<?xml version="1.0" encoding="utf-8"?>
<!-- Generator: Adobe Illustrator 16.0.4, SVG Export Plug-In . SVG Version: 6.00 Build 0)  -->
<!DOCTYPE svg PUBLIC "-//W3C//DTD SVG 1.1//EN" "http://www.w3.org/Graphics/SVG/1.1/DTD/svg11.dtd">
<svg version="1.1" id="Layer_1" xmlns="http://www.w3.org/2000/svg" xmlns:xlink="http://www.w3.org/1999/xlink" x="0px" y="0px"
	 width="350px" height="120px" viewBox="0 0 350 120" enable-background="new 0 0 350 120" xml:space="preserve">
<g>
	<path fill="#001C71" d="M12.016,78.188l-0.519,2.944H4.562l8.213-46.583h6.936l-2.635,14.947c1.999-1.416,3.998-2.449,6.005-3.097
		c2.003-0.646,4.124-0.97,6.361-0.97c5.083,0,9.105,1.796,12.07,5.389c2.965,3.595,4,7.93,3.104,13.004
		c-0.895,5.076-3.449,9.421-7.666,13.035c-4.214,3.613-8.884,5.422-14.006,5.422C18.472,82.277,14.829,80.915,12.016,78.188z
		 M28.305,51.931c-3.333,0-6.364,1.159-9.087,3.477c-2.727,2.316-4.378,5.121-4.959,8.414c-0.581,3.294,0.091,6.109,2.016,8.447
		c1.925,2.334,4.533,3.506,7.826,3.506c3.291,0,6.3-1.159,9.025-3.478c2.725-2.317,4.383-5.144,4.97-8.478
		c0.574-3.25-0.082-6.046-1.966-8.383C34.246,53.1,31.638,51.931,28.305,51.931z"/>
	<path fill="#001C71" d="M52.459,81.132h-6.936l8.214-46.583h6.935L52.459,81.132z"/>
	<path fill="#001C71" d="M72.519,46.532l-2.928,16.606l-0.259,1.465c-0.409,2.32-0.517,4.365-0.32,6.137
		c0.195,1.77,0.911,3.07,2.146,3.906c1.233,0.834,2.684,1.252,4.349,1.252s3.384-0.479,5.158-1.437
		c1.774-0.955,3.062-2.44,3.863-4.457c0.801-2.014,1.458-4.467,1.968-7.354l2.841-16.118h7.019l-6.101,34.6h-7.018l0.461-2.616
		c-1.48,1.254-3.119,2.194-4.915,2.821c-1.794,0.626-3.607,0.94-5.435,0.94c-2.313,0-4.614-0.603-6.899-1.801
		c-2.287-1.199-3.711-3.133-4.277-5.795s-0.516-5.887,0.151-9.668l3.259-18.482L72.519,46.532L72.519,46.532z"/>
	<path fill="#001C71" d="M113.348,75.773c2.116,0,4.136-0.496,6.06-1.485c1.923-0.99,3.591-2.377,5.004-4.158h7.309
		c-1.923,3.522-4.69,6.429-8.306,8.716c-3.615,2.287-7.354,3.434-11.216,3.434c-5.041,0-9.053-1.809-12.034-5.422
		c-2.981-3.614-4.023-7.959-3.129-13.035c0.902-5.115,3.456-9.46,7.662-13.033c4.207-3.574,8.869-5.36,13.99-5.36
		c5.08,0,9.112,1.788,12.099,5.366c2.985,3.577,4.027,7.928,3.124,13.049l-0.362,1.708h-30.173c-0.087,2.8,0.831,5.201,2.755,7.212
		C108.054,74.771,110.46,75.773,113.348,75.773z M105.107,59.497H127.3c-0.554-2.157-1.722-3.956-3.5-5.4
		c-1.777-1.444-3.863-2.166-6.262-2.166s-4.729,0.701-6.988,2.105C108.292,55.439,106.476,57.259,105.107,59.497z"/>
	<path fill="#0075C9" d="M150.953,82.277c-5.039,0-9.047-1.807-12.025-5.422c-2.979-3.613-4.02-7.959-3.125-13.035
		c0.902-5.114,3.456-9.459,7.663-13.032c4.204-3.574,8.866-5.36,13.984-5.36c2.317,0,4.313,0.312,5.992,0.936
		c1.677,0.625,3.302,1.663,4.875,3.113l0.519-2.945h7.018l-6.101,34.6h-7.018l0.519-2.944
		C159.481,80.915,155.381,82.277,150.953,82.277z M142.281,63.82c-0.581,3.295,0.09,6.109,2.013,8.447
		c1.923,2.336,4.529,3.506,7.819,3.506c3.29,0,6.307-1.17,9.055-3.506c2.747-2.338,4.411-5.152,4.992-8.447
		c0.581-3.291-0.082-6.097-1.988-8.413c-1.906-2.317-4.525-3.477-7.854-3.477c-3.291,0-6.308,1.169-9.056,3.507
		C144.514,57.774,142.854,60.57,142.281,63.82z"/>
	<path fill="#0075C9" d="M204.211,70.089l7.309,0.011c-1.933,3.573-4.703,6.494-8.316,8.768s-7.35,3.412-11.212,3.412
		c-5.043,0-9.054-1.809-12.036-5.422c-2.979-3.614-4.021-7.959-3.127-13.035c0.9-5.115,3.456-9.46,7.662-13.033
		c4.207-3.574,8.871-5.36,13.99-5.36c3.901,0,7.248,1.125,10.041,3.373c2.795,2.249,4.526,5.162,5.195,8.738h-7.312
		c-0.762-1.666-1.943-3.018-3.549-4.054c-1.604-1.036-3.441-1.555-5.514-1.555c-3.29,0-6.311,1.169-9.055,3.507
		c-2.749,2.337-4.41,5.132-4.982,8.384c-0.58,3.294,0.09,6.109,2.018,8.447c1.924,2.334,4.531,3.506,7.824,3.506
		c2.072,0,4.096-0.51,6.062-1.528C201.177,73.229,202.846,71.842,204.211,70.089z"/>
	<path fill="#0075C9" d="M242.125,70.089l7.309,0.011c-1.933,3.573-4.703,6.494-8.315,8.768c-3.613,2.273-7.351,3.412-11.214,3.412
		c-5.04,0-9.053-1.809-12.033-5.422c-2.98-3.614-4.023-7.959-3.13-13.035c0.903-5.115,3.456-9.46,7.663-13.033
		c4.207-3.574,8.869-5.36,13.99-5.36c3.901,0,7.25,1.125,10.041,3.373c2.795,2.249,4.525,5.162,5.194,8.738h-7.31
		c-0.762-1.666-1.945-3.018-3.549-4.054c-1.604-1.036-3.443-1.555-5.515-1.555c-3.289,0-6.309,1.169-9.056,3.507
		c-2.749,2.337-4.409,5.132-4.982,8.384c-0.58,3.294,0.094,6.109,2.016,8.447c1.928,2.334,4.535,3.506,7.826,3.506
		c2.073,0,4.096-0.51,6.062-1.528C239.091,73.229,240.759,71.842,242.125,70.089z"/>
	<path fill="#0075C9" d="M268.969,75.773c2.115,0,4.135-0.496,6.059-1.485c1.926-0.99,3.595-2.377,5.006-4.158h7.31
		c-1.92,3.522-4.69,6.429-8.306,8.716c-3.616,2.287-7.354,3.434-11.217,3.434c-5.043,0-9.053-1.809-12.034-5.422
		c-2.981-3.614-4.022-7.959-3.13-13.035c0.902-5.115,3.457-9.46,7.662-13.033c4.207-3.574,8.871-5.36,13.99-5.36
		c5.08,0,9.114,1.788,12.1,5.366c2.986,3.577,4.027,7.928,3.125,13.049l-0.361,1.708h-30.175c-0.088,2.8,0.833,5.201,2.756,7.212
		C263.676,74.771,266.08,75.773,268.969,75.773z M260.729,59.497h22.194c-0.556-2.157-1.721-3.956-3.499-5.4
		c-1.777-1.444-3.867-2.166-6.266-2.166c-2.399,0-4.727,0.701-6.986,2.105C263.911,55.439,262.1,57.259,260.729,59.497z"/>
	<path fill="#0075C9" d="M313.6,55.591h-6.146c0.075-0.891-0.022-1.732-0.291-2.521c-0.269-0.789-0.763-1.287-1.479-1.489
		c-0.721-0.202-1.304-0.304-1.752-0.304c-0.938,0-1.736,0.233-2.389,0.7c-0.654,0.467-1.158,1.005-1.508,1.614
		c-0.354,0.608-0.598,1.3-0.732,2.07c-0.047,1.422,0.408,2.416,1.365,2.984c0.956,0.569,2.777,1.382,5.461,2.436
		c2.682,1.058,4.377,2.528,5.082,4.418c0.704,1.886,0.9,3.724,0.585,5.511c-0.353,1.99-1.204,3.889-2.56,5.694
		c-1.355,1.81-2.909,3.188-4.664,4.142c-1.754,0.954-3.525,1.434-5.313,1.434c-2.521,0-4.512-0.348-5.977-1.035
		c-1.462-0.689-2.556-1.651-3.271-2.891c-0.717-1.236-1.146-2.545-1.289-3.924c-0.144-1.379-0.08-2.84,0.192-4.382h6.271
		c-0.053,1.457,0.06,2.621,0.334,3.493c0.275,0.869,0.845,1.508,1.711,1.913c0.865,0.403,1.646,0.606,2.342,0.606
		c1.017,0,1.9-0.225,2.654-0.67c0.75-0.449,1.373-1.024,1.863-1.736c0.495-0.709,0.805-1.432,0.934-2.161
		c0.136-0.772,0.093-1.502-0.135-2.192c-0.223-0.689-0.55-1.208-0.977-1.554c-0.43-0.345-2.139-1.104-5.129-2.283
		c-2.991-1.176-4.809-2.579-5.46-4.202c-0.65-1.624-0.815-3.35-0.492-5.177c0.293-1.664,0.935-3.288,1.926-4.871
		c0.992-1.583,2.253-2.863,3.789-3.837c1.533-0.974,2.937-1.542,4.205-1.705c1.271-0.162,2.106-0.243,2.515-0.243
		c1.422,0,2.75,0.253,3.981,0.76c1.231,0.508,2.255,1.35,3.063,2.526c0.862,1.095,1.35,2.211,1.451,3.347
		C313.869,53.197,313.812,54.374,313.6,55.591z"/>
	<path fill="#0075C9" d="M337.557,55.591h-6.146c0.074-0.891-0.021-1.732-0.29-2.521c-0.269-0.789-0.763-1.287-1.481-1.489
		c-0.721-0.202-1.304-0.304-1.75-0.304c-0.939,0-1.736,0.233-2.39,0.7c-0.653,0.467-1.156,1.005-1.508,1.614
		c-0.354,0.608-0.599,1.3-0.733,2.07c-0.049,1.422,0.406,2.416,1.366,2.984c0.956,0.569,2.776,1.382,5.462,2.436
		c2.684,1.058,4.374,2.528,5.08,4.418c0.705,1.886,0.9,3.724,0.585,5.511c-0.353,1.99-1.205,3.889-2.56,5.694
		c-1.354,1.81-2.909,3.188-4.664,4.142c-1.752,0.954-3.523,1.434-5.312,1.434c-2.521,0-4.512-0.348-5.978-1.035
		c-1.463-0.689-2.553-1.651-3.271-2.891c-0.717-1.236-1.146-2.545-1.29-3.924s-0.077-2.84,0.193-4.382h6.271
		c-0.054,1.457,0.057,2.621,0.332,3.493c0.274,0.869,0.846,1.508,1.713,1.913c0.865,0.403,1.646,0.606,2.34,0.606
		c1.021,0,1.903-0.225,2.656-0.67c0.75-0.449,1.371-1.024,1.863-1.736c0.492-0.709,0.805-1.432,0.934-2.161
		c0.137-0.772,0.09-1.502-0.133-2.192c-0.227-0.689-0.552-1.208-0.98-1.554c-0.428-0.345-2.135-1.104-5.126-2.283
		c-2.989-1.176-4.81-2.579-5.462-4.202c-0.648-1.624-0.812-3.35-0.49-5.177c0.293-1.664,0.934-3.288,1.925-4.871
		c0.992-1.583,2.254-2.863,3.789-3.837c1.533-0.974,2.935-1.542,4.205-1.705c1.271-0.162,2.106-0.243,2.515-0.243
		c1.424,0,2.75,0.253,3.983,0.76c1.229,0.508,2.253,1.35,3.062,2.526c0.866,1.095,1.351,2.211,1.455,3.347
		C337.824,53.197,337.77,54.374,337.557,55.591z"/>
</g>
<path fill="#001C71" d="M77.214,112.089c-20.183,1.772-38.643-9.136-47.815-26.205c-2.312,0.691-4.907,1.28-7.411,1.481
	c9.057,17.66,27.198,29.738,48.136,29.738c21.953,0,40.815-13.283,49.373-32.353c-1.036,0.524-2.144,1.022-3.304,1.446
	C108.517,100.408,94.255,110.596,77.214,112.089z"/>
<g>
	<path fill="#010101" d="M200.438,108.915h-1.213v-11.31h-1.373v-1.131h1.373V90.9c0-0.916,0.026-2.234,0.484-3.043
		c0.564-0.996,1.645-1.508,2.773-1.508c0.377,0,0.727,0.053,1.076,0.188v1.104c-0.322-0.056-0.646-0.162-0.996-0.162
		c-2.101,0-2.125,2.102-2.125,3.662v5.332h3.121v1.131h-3.121V108.915L200.438,108.915z"/>
	<path fill="#010101" d="M217.48,102.693c0,3.689-2.881,6.49-6.543,6.49c-3.582,0-6.463-2.936-6.463-6.463
		c0-3.58,2.854-6.517,6.463-6.517C214.6,96.205,217.48,99.006,217.48,102.693z M205.686,102.723c0,2.826,2.236,5.332,5.172,5.332
		c3.043,0,5.412-2.316,5.412-5.332c0-3.07-2.345-5.387-5.412-5.387C207.895,97.336,205.686,99.841,205.686,102.723z"/>
	<path fill="#010101" d="M221.628,98.09h0.054c0.485-1.13,1.373-1.885,2.692-1.885c0.483,0,0.89,0.107,1.319,0.297l-0.646,1.076
		c-0.297-0.161-0.539-0.242-0.86-0.242c-2.721,0-2.56,3.395-2.56,5.225v6.354h-1.213v-12.44h1.213V98.09z"/>
	<path fill="#010101" d="M253.373,92.113h-0.053l-7.082,17.475l-7.057-17.475h-0.053l-3.475,16.802h-1.237l4.362-20.978
		l7.457,18.474l7.486-18.474l4.362,20.978h-1.237L253.373,92.113z"/>
	<path fill="#010101" d="M260.402,102.803c-0.08,3.149,2.1,5.252,4.979,5.252c1.938,0,3.502-1.158,4.39-2.828l1.023,0.592
		c-1.13,2.156-3.124,3.367-5.574,3.367c-3.688,0-6.031-2.99-6.031-6.518c0-3.475,2.396-6.463,6.031-6.463
		c3.771,0,6.006,3.018,5.979,6.598H260.402z M269.988,101.671c-0.297-2.288-2.182-4.335-4.739-4.335
		c-2.53,0-4.631,1.992-4.847,4.335H269.988z"/>
	<path fill="#010101" d="M275.348,98.037h0.055c0.563-1.158,1.803-1.832,3.123-1.832c1.588,0,2.854,0.809,3.5,2.263
		c0.672-1.481,2.047-2.263,3.636-2.263c3.204,0,3.85,2.182,3.85,4.9v7.81h-1.21v-7.97c0-1.912-0.298-3.609-2.668-3.609
		c-2.584,0-3.204,2.262-3.204,4.417v7.162h-1.212v-7.675c0-1.938-0.349-3.904-2.771-3.904c-2.612,0-3.096,2.721-3.096,4.739v6.84
		h-1.213v-12.44h1.213v1.562H275.348z"/>
	<path fill="#010101" d="M293.656,86.7h1.212v11.928h0.056c1.049-1.562,2.881-2.423,4.791-2.423c3.717,0,6.087,2.773,6.087,6.408
		c0,3.636-2.37,6.57-6.141,6.57c-1.83,0-3.823-0.916-4.737-2.504h-0.056v2.234h-1.212V86.7z M304.59,102.613
		c0-2.721-1.966-5.277-4.847-5.277c-3.15,0-4.955,2.344-4.955,5.305c0,2.908,1.83,5.414,4.899,5.414
		C302.73,108.055,304.59,105.468,304.59,102.613z"/>
	<path fill="#010101" d="M308.736,102.803c-0.082,3.149,2.102,5.252,4.981,5.252c1.938,0,3.499-1.158,4.39-2.828l1.021,0.592
		c-1.132,2.156-3.124,3.367-5.574,3.367c-3.688,0-6.031-2.99-6.031-6.518c0-3.475,2.396-6.463,6.031-6.463
		c3.771,0,6.006,3.018,5.979,6.598H308.736z M318.322,101.671c-0.297-2.288-2.182-4.335-4.738-4.335
		c-2.532,0-4.633,1.992-4.848,4.335H318.322z"/>
	<path fill="#010101" d="M323.68,98.09h0.055c0.484-1.13,1.373-1.885,2.691-1.885c0.486,0,0.891,0.107,1.321,0.297l-0.646,1.076
		c-0.299-0.161-0.541-0.242-0.861-0.242c-2.721,0-2.561,3.395-2.561,5.225v6.354h-1.212v-12.44h1.212V98.09L323.68,98.09z"/>
	<path fill="#010101" d="M335.177,98.736c-0.403-0.862-1.211-1.4-2.181-1.4c-1.051,0-2.127,0.862-2.127,1.939
		c0,2.988,6.059,1.535,6.059,6.031c0,2.289-1.775,3.877-4.012,3.877c-2.073,0-3.771-1.266-4.281-3.285l1.186-0.377
		c0.457,1.481,1.453,2.531,3.097,2.531c1.562,0,2.801-1.238,2.801-2.802c0-1.533-1.186-2.019-2.424-2.449
		c-1.696-0.618-3.635-1.347-3.635-3.446c0-1.885,1.588-3.15,3.392-3.15c1.268,0,2.641,0.835,3.178,1.993L335.177,98.736z"/>
</g>
<g>
	<path fill="#010101" d="M337.618,94.852l0.483-0.041c0.024,0.194,0.078,0.354,0.162,0.479c0.084,0.123,0.215,0.226,0.391,0.302
		c0.177,0.077,0.377,0.114,0.599,0.114c0.195,0,0.37-0.028,0.521-0.087s0.263-0.139,0.334-0.24c0.076-0.102,0.111-0.213,0.111-0.333
		c0-0.122-0.035-0.228-0.105-0.319c-0.07-0.091-0.188-0.168-0.352-0.229c-0.104-0.04-0.336-0.104-0.691-0.189
		c-0.356-0.086-0.608-0.166-0.75-0.242c-0.188-0.098-0.324-0.219-0.416-0.361c-0.092-0.146-0.137-0.309-0.137-0.484
		c0-0.197,0.057-0.381,0.166-0.552c0.111-0.172,0.275-0.3,0.488-0.39c0.215-0.09,0.452-0.133,0.714-0.133
		c0.289,0,0.544,0.047,0.765,0.141c0.221,0.093,0.389,0.229,0.508,0.408c0.117,0.182,0.182,0.386,0.191,0.613l-0.494,0.039
		c-0.026-0.246-0.115-0.432-0.27-0.559s-0.38-0.188-0.68-0.188c-0.311,0-0.538,0.058-0.68,0.17
		c-0.144,0.114-0.213,0.252-0.213,0.414c0,0.141,0.049,0.254,0.149,0.344c0.101,0.091,0.356,0.184,0.774,0.275
		c0.42,0.098,0.707,0.18,0.861,0.25c0.229,0.104,0.395,0.236,0.504,0.397c0.105,0.159,0.16,0.345,0.16,0.553
		c0,0.207-0.061,0.402-0.178,0.585c-0.119,0.186-0.288,0.325-0.512,0.428c-0.223,0.102-0.471,0.152-0.75,0.152
		c-0.353,0-0.646-0.052-0.885-0.152c-0.238-0.104-0.424-0.258-0.562-0.465C337.697,95.348,337.625,95.111,337.618,94.852z"/>
	<path fill="#010101" d="M341.402,96.104v-3.893h0.773l0.922,2.756c0.084,0.256,0.147,0.448,0.186,0.575
		c0.046-0.142,0.113-0.349,0.209-0.622l0.93-2.709h0.691v3.893h-0.494v-3.258l-1.131,3.258h-0.465l-1.125-3.312v3.312H341.402z"/>
</g>
<path fill="#001C71" d="M29.524,40.569c5.049-18.949,22.54-32.928,43.347-32.928c21.148,0,38.864,14.443,43.579,33.867
	c0.956,0.396,1.89,0.833,2.811,1.292C115.003,20.371,94.859,3.38,70.632,3.38c-23.591,0-43.312,16.113-48.261,37.668
	c2.178-0.321,4.407-0.49,6.675-0.49C29.207,40.558,29.364,40.568,29.524,40.569z"/>
<linearGradient id="SVGID_1_" gradientUnits="userSpaceOnUse" x1="22.3716" y1="22.2139" x2="74.9619" y2="22.2139">
	<stop  offset="0" style="stop-color:#001C71"/>
	<stop  offset="1" style="stop-color:#195A89"/>
</linearGradient>
<path fill="url(#SVGID_1_)" d="M74.962,3.768l-0.046-0.189c-0.032-0.008-0.064-0.015-0.096-0.022
	c-1.381-0.113-2.776-0.176-4.188-0.176c-23.591,0-43.312,16.113-48.261,37.668c2.178-0.321,4.407-0.49,6.675-0.49
	c0.16,0,0.317,0.01,0.477,0.012C33.51,13.187,54.278,4.274,74.962,3.768z"/>
<radialGradient id="SVGID_2_" cx="92.0259" cy="10.8018" r="14.3224" gradientTransform="matrix(-0.9167 -0.3995 0.1178 -0.2703 175.1178 50.4835)" gradientUnits="userSpaceOnUse">
	<stop  offset="0.4587" style="stop-color:#FFFFFF"/>
	<stop  offset="0.5054" style="stop-color:#F3F5F8"/>
	<stop  offset="0.5892" style="stop-color:#D4D9E7"/>
	<stop  offset="0.7004" style="stop-color:#A2ACCB"/>
	<stop  offset="0.8335" style="stop-color:#5D6FA4"/>
	<stop  offset="0.9667" style="stop-color:#112B7A"/>
</radialGradient>
<path fill="url(#SVGID_2_)" d="M87.646,6.315c-4.025-1.439-8.296-2.382-12.735-2.753l0.004,0.017
	c3.076,0.718,5.916,1.351,5.849,2.629c-0.074,1.405-4.827,0.99-7.574,1.441c13.104,0.091,24.867,5.721,33.001,14.638
	C102.105,15.781,97.393,9.966,87.646,6.315z"/>
</svg>
