<?xml version="1.0" encoding="utf-8"?>
<!-- Generator: Adobe Illustrator 16.0.4, SVG Export Plug-In . SVG Version: 6.00 Build 0)  -->
<!DOCTYPE svg PUBLIC "-//W3C//DTD SVG 1.1//EN" "http://www.w3.org/Graphics/SVG/1.1/DTD/svg11.dtd">
<svg version="1.1" id="Layer_1" xmlns="http://www.w3.org/2000/svg" xmlns:xlink="http://www.w3.org/1999/xlink" x="0px" y="0px"
	 width="150px" height="56px" viewBox="0 0 150 56" enable-background="new 0 0 150 56" xml:space="preserve">
<path fill="#FFFFFF" d="M104.377,16.657h2.517v0.59h-3.146V7.364h0.629V16.657z"/>
<path fill="#FFFFFF" d="M113.724,14.219c0,1.796-1.402,3.159-3.185,3.159c-1.743,0-3.146-1.429-3.146-3.146
	c0-1.743,1.39-3.172,3.146-3.172C112.321,11.061,113.724,12.424,113.724,14.219z M107.982,14.232c0,1.376,1.088,2.595,2.517,2.595
	c1.481,0,2.635-1.127,2.635-2.595c0-1.494-1.14-2.622-2.635-2.622C109.058,11.61,107.982,12.83,107.982,14.232z"/>
<path fill="#FFFFFF" d="M120.568,16.958c0,0.931-0.026,1.77-0.604,2.569c-0.563,0.773-1.455,1.167-2.411,1.167
	c-1.586,0-2.897-0.931-2.989-2.596h0.59c0.066,1.259,1.128,2.045,2.347,2.045c0.76,0,1.494-0.262,1.939-0.904
	c0.473-0.694,0.538-1.481,0.538-2.294v-0.747h-0.026c-0.537,0.721-1.442,1.18-2.359,1.18c-1.757,0-2.937-1.481-2.937-3.172
	c0-1.743,1.246-3.146,3.015-3.146c0.983,0,1.718,0.419,2.281,1.18h0.026v-1.049h0.59V16.958z M115.246,14.18
	c0,1.39,0.918,2.647,2.386,2.647c1.547,0,2.386-1.258,2.386-2.713c0-1.402-0.957-2.504-2.425-2.504
	C116.203,11.61,115.246,12.869,115.246,14.18z"/>
<path fill="#FFFFFF" d="M127.334,17.247h-0.629V7.364h0.629V17.247z"/>
<path fill="#FFFFFF" d="M129.996,12.135h0.026c0.354-0.668,1.01-1.074,1.796-1.074c1.56,0,1.992,0.97,1.992,2.529v3.657h-0.59V13.59
	c0-1.088-0.131-1.979-1.455-1.979c-1.521,0-1.77,1.416-1.77,2.648v2.988h-0.59v-6.056h0.59V12.135z"/>
<path fill="#FFFFFF" d="M13.396,35.223l-0.194,1.099h-2.59l3.068-17.399h2.59l-0.984,5.584c0.747-0.529,1.494-0.915,2.243-1.157
	c0.748-0.241,1.541-0.362,2.376-0.362c1.898,0,3.4,0.671,4.508,2.014c1.107,1.342,1.494,2.961,1.159,4.856
	c-0.334,1.896-1.288,3.52-2.863,4.869c-1.574,1.35-3.318,2.024-5.231,2.024C15.808,36.75,14.447,36.24,13.396,35.223z M19.48,25.414
	c-1.245,0-2.377,0.434-3.394,1.299c-1.019,0.866-1.635,1.914-1.853,3.144c-0.217,1.23,0.034,2.282,0.753,3.155
	c0.719,0.871,1.693,1.31,2.923,1.31c1.229,0,2.353-0.434,3.371-1.299c1.019-0.865,1.637-1.921,1.857-3.167
	c0.214-1.213-0.031-2.259-0.734-3.131C21.699,25.852,20.725,25.414,19.48,25.414z"/>
<path fill="#FFFFFF" d="M28.502,36.321h-2.591l3.068-17.399h2.59L28.502,36.321z"/>
<path fill="#FFFFFF" d="M35.995,23.398l-1.094,6.203l-0.097,0.547c-0.152,0.866-0.193,1.63-0.119,2.292
	c0.073,0.66,0.34,1.147,0.802,1.459c0.46,0.312,1.002,0.468,1.624,0.468c0.622,0,1.264-0.18,1.927-0.537
	c0.662-0.356,1.144-0.911,1.442-1.664c0.3-0.753,0.545-1.669,0.736-2.748l1.061-6.02h2.622l-2.279,12.923h-2.622l0.172-0.977
	c-0.553,0.468-1.165,0.819-1.835,1.054s-1.348,0.352-2.03,0.352c-0.864,0-1.723-0.226-2.577-0.673
	c-0.854-0.448-1.386-1.17-1.598-2.165c-0.211-0.994-0.193-2.198,0.056-3.61l1.217-6.904L35.995,23.398L35.995,23.398z"/>
<path fill="#FFFFFF" d="M51.245,34.32c0.791,0,1.545-0.186,2.263-0.555c0.718-0.37,1.342-0.888,1.87-1.553h2.73
	c-0.719,1.314-1.752,2.4-3.103,3.255c-1.35,0.854-2.746,1.282-4.189,1.282c-1.883,0-3.382-0.675-4.495-2.024
	c-1.114-1.35-1.503-2.974-1.169-4.869c0.337-1.911,1.291-3.534,2.862-4.868c1.571-1.335,3.312-2.002,5.226-2.002
	c1.897,0,3.403,0.668,4.519,2.005c1.115,1.336,1.504,2.961,1.167,4.873l-0.135,0.638H47.52c-0.033,1.046,0.31,1.943,1.029,2.694
	C49.268,33.946,50.166,34.32,51.245,34.32z M48.167,28.241h8.289c-0.207-0.806-0.643-1.478-1.307-2.017
	c-0.664-0.54-1.443-0.811-2.339-0.811s-1.766,0.263-2.61,0.787C49.356,26.725,48.678,27.404,48.167,28.241z"/>
<path fill="#D9E7F6" d="M65.291,36.75c-1.882,0-3.379-0.675-4.491-2.025c-1.113-1.35-1.502-2.974-1.167-4.869
	c0.337-1.91,1.291-3.533,2.862-4.867c1.571-1.335,3.312-2.002,5.224-2.002c0.865,0,1.611,0.117,2.238,0.35
	c0.627,0.233,1.234,0.622,1.821,1.162l0.194-1.1h2.621l-2.279,12.923h-2.622l0.194-1.099C68.476,36.24,66.944,36.75,65.291,36.75z
	 M62.052,29.855c-0.217,1.231,0.033,2.282,0.751,3.155c0.718,0.872,1.692,1.31,2.92,1.31c1.229,0,2.356-0.438,3.382-1.31
	c1.027-0.873,1.648-1.924,1.865-3.155c0.217-1.229-0.031-2.277-0.743-3.143s-1.689-1.299-2.933-1.299
	c-1.229,0-2.356,0.438-3.383,1.311C62.885,27.597,62.266,28.643,62.052,29.855z"/>
<path fill="#D9E7F6" d="M85.183,32.197l2.73,0.004c-0.723,1.334-1.757,2.426-3.106,3.274c-1.35,0.85-2.746,1.274-4.188,1.274
	c-1.885,0-3.383-0.675-4.496-2.024c-1.112-1.35-1.502-2.974-1.167-4.869c0.336-1.911,1.291-3.534,2.861-4.868
	c1.572-1.335,3.314-2.002,5.227-2.002c1.457,0,2.706,0.421,3.75,1.26c1.044,0.84,1.69,1.928,1.94,3.264h-2.731
	c-0.284-0.622-0.726-1.127-1.325-1.514c-0.6-0.388-1.285-0.582-2.06-0.582c-1.229,0-2.356,0.438-3.382,1.311
	c-1.026,0.873-1.647,1.918-1.861,3.132c-0.217,1.23,0.034,2.282,0.754,3.155c0.719,0.871,1.692,1.31,2.923,1.31
	c0.773,0,1.529-0.19,2.264-0.571C84.049,33.37,84.674,32.852,85.183,32.197z"/>
<path fill="#D9E7F6" d="M99.345,32.197l2.729,0.004c-0.721,1.334-1.756,2.426-3.105,3.274c-1.35,0.85-2.745,1.274-4.188,1.274
	c-1.882,0-3.381-0.675-4.494-2.024s-1.503-2.974-1.169-4.869c0.337-1.911,1.291-3.534,2.862-4.868
	c1.571-1.335,3.312-2.002,5.226-2.002c1.457,0,2.708,0.421,3.75,1.26c1.045,0.84,1.69,1.928,1.94,3.264h-2.73
	c-0.285-0.622-0.726-1.127-1.325-1.514c-0.6-0.388-1.286-0.582-2.06-0.582c-1.229,0-2.357,0.438-3.383,1.311
	c-1.027,0.873-1.646,1.918-1.861,3.132c-0.216,1.23,0.035,2.282,0.753,3.155c0.72,0.871,1.693,1.31,2.924,1.31
	c0.773,0,1.53-0.19,2.264-0.571C98.211,33.37,98.834,32.852,99.345,32.197z"/>
<path fill="#D9E7F6" d="M109.371,34.32c0.79,0,1.544-0.186,2.263-0.555c0.72-0.37,1.343-0.888,1.869-1.553h2.73
	c-0.717,1.314-1.751,2.4-3.102,3.255s-2.747,1.282-4.189,1.282c-1.885,0-3.382-0.675-4.495-2.024s-1.503-2.974-1.169-4.869
	c0.337-1.911,1.29-3.534,2.861-4.868c1.571-1.335,3.314-2.002,5.226-2.002c1.897,0,3.404,0.668,4.52,2.005
	c1.115,1.336,1.504,2.961,1.167,4.873l-0.135,0.638h-11.271c-0.033,1.046,0.312,1.943,1.029,2.694
	C107.395,33.946,108.292,34.32,109.371,34.32z M106.293,28.241h8.29c-0.208-0.806-0.644-1.478-1.307-2.017
	c-0.664-0.54-1.445-0.811-2.341-0.811c-0.896,0-1.765,0.263-2.609,0.787C107.481,26.725,106.806,27.404,106.293,28.241z"/>
<path fill="#D9E7F6" d="M126.041,26.781h-2.296c0.028-0.332-0.008-0.646-0.108-0.941c-0.101-0.294-0.284-0.48-0.553-0.557
	c-0.27-0.074-0.487-0.112-0.654-0.112c-0.35,0-0.648,0.087-0.893,0.261c-0.243,0.175-0.433,0.376-0.562,0.604
	c-0.132,0.228-0.224,0.485-0.273,0.772c-0.019,0.532,0.152,0.903,0.51,1.114c0.357,0.213,1.037,0.517,2.039,0.91
	c1.002,0.396,1.636,0.945,1.898,1.65c0.264,0.704,0.337,1.392,0.219,2.059c-0.132,0.743-0.449,1.452-0.956,2.127
	c-0.506,0.676-1.087,1.191-1.742,1.547c-0.654,0.356-1.316,0.535-1.984,0.535c-0.941,0-1.686-0.129-2.232-0.387
	c-0.547-0.257-0.955-0.616-1.222-1.079c-0.268-0.462-0.428-0.951-0.481-1.466s-0.03-1.061,0.072-1.637h2.342
	c-0.02,0.545,0.021,0.979,0.125,1.305c0.104,0.324,0.315,0.563,0.639,0.715c0.323,0.15,0.614,0.227,0.875,0.227
	c0.379,0,0.71-0.084,0.991-0.251c0.28-0.167,0.513-0.382,0.696-0.648c0.185-0.265,0.301-0.534,0.349-0.807
	c0.05-0.288,0.034-0.561-0.05-0.819c-0.084-0.257-0.206-0.45-0.365-0.58c-0.161-0.129-0.799-0.413-1.916-0.853
	s-1.796-0.964-2.039-1.569c-0.243-0.606-0.305-1.252-0.185-1.934c0.11-0.621,0.35-1.229,0.72-1.82
	c0.371-0.591,0.842-1.068,1.415-1.433s1.098-0.576,1.571-0.637s0.786-0.091,0.939-0.091c0.53,0,1.026,0.095,1.486,0.284
	c0.46,0.19,0.843,0.504,1.145,0.943c0.322,0.409,0.504,0.825,0.542,1.25C126.142,25.888,126.121,26.327,126.041,26.781z"/>
<path fill="#D9E7F6" d="M134.989,26.781h-2.296c0.028-0.332-0.008-0.646-0.108-0.941c-0.101-0.294-0.284-0.48-0.554-0.557
	c-0.269-0.074-0.486-0.112-0.653-0.112c-0.351,0-0.648,0.087-0.893,0.261c-0.243,0.175-0.432,0.376-0.563,0.604
	s-0.224,0.485-0.273,0.772c-0.019,0.532,0.151,0.903,0.511,1.114c0.356,0.213,1.036,0.517,2.039,0.91
	c1.003,0.396,1.634,0.945,1.897,1.65c0.265,0.704,0.337,1.392,0.219,2.059c-0.132,0.743-0.449,1.452-0.955,2.127
	c-0.507,0.676-1.087,1.191-1.743,1.547c-0.654,0.356-1.315,0.535-1.983,0.535c-0.942,0-1.686-0.129-2.232-0.387
	c-0.547-0.257-0.954-0.616-1.223-1.079c-0.267-0.462-0.428-0.951-0.481-1.466s-0.029-1.061,0.072-1.637h2.343
	c-0.021,0.545,0.021,0.979,0.123,1.305c0.103,0.324,0.315,0.563,0.64,0.715c0.323,0.15,0.614,0.227,0.875,0.227
	c0.38,0,0.711-0.084,0.992-0.251c0.279-0.167,0.511-0.382,0.695-0.648c0.184-0.265,0.301-0.534,0.349-0.807
	c0.051-0.288,0.033-0.561-0.049-0.819c-0.085-0.257-0.206-0.45-0.367-0.58c-0.159-0.129-0.797-0.413-1.914-0.853
	s-1.797-0.964-2.041-1.569c-0.241-0.606-0.303-1.252-0.183-1.934c0.109-0.621,0.349-1.229,0.719-1.82
	c0.371-0.591,0.842-1.068,1.415-1.433s1.097-0.576,1.571-0.637s0.787-0.091,0.939-0.091c0.531,0,1.026,0.095,1.487,0.284
	c0.459,0.19,0.842,0.504,1.145,0.943c0.322,0.409,0.503,0.825,0.543,1.25C135.089,25.888,135.069,26.327,134.989,26.781z"/>
<path fill="#FFFFFF" d="M37.748,47.885c-7.539,0.662-14.434-3.413-17.859-9.788c-0.864,0.258-1.833,0.478-2.768,0.553
	c3.383,6.597,10.159,11.108,17.979,11.108c8.2,0,15.245-4.961,18.441-12.084c-0.387,0.195-0.8,0.382-1.234,0.539
	C49.44,43.522,44.113,47.327,37.748,47.885z"/>
<g>
	<path fill="#FFFFFF" d="M83.773,46.699h-0.452v-4.225h-0.514v-0.423h0.514v-2.081c0-0.343,0.01-0.835,0.18-1.137
		c0.211-0.372,0.614-0.562,1.037-0.562c0.141,0,0.271,0.019,0.401,0.07v0.412c-0.12-0.021-0.241-0.061-0.372-0.061
		c-0.785,0-0.794,0.785-0.794,1.367v1.991h1.166v0.423h-1.166V46.699L83.773,46.699z"/>
	<path fill="#FFFFFF" d="M90.14,44.376c0,1.377-1.076,2.423-2.444,2.423c-1.338,0-2.414-1.096-2.414-2.414
		c0-1.337,1.066-2.433,2.414-2.433C89.063,41.952,90.14,42.998,90.14,44.376z M85.734,44.386c0,1.057,0.835,1.991,1.931,1.991
		c1.137,0,2.021-0.864,2.021-1.991c0-1.146-0.876-2.012-2.021-2.012C86.559,42.374,85.734,43.311,85.734,44.386z"/>
	<path fill="#FFFFFF" d="M91.688,42.656h0.02c0.182-0.422,0.513-0.704,1.006-0.704c0.181,0,0.333,0.04,0.492,0.11l-0.24,0.402
		c-0.111-0.061-0.201-0.091-0.321-0.091c-1.016,0-0.956,1.269-0.956,1.951v2.374h-0.453v-4.647h0.453V42.656z"/>
	<path fill="#FFFFFF" d="M103.546,40.423h-0.021l-2.646,6.527l-2.636-6.527h-0.019l-1.298,6.276h-0.463l1.63-7.836l2.785,6.9
		l2.796-6.9l1.63,7.836h-0.463L103.546,40.423z"/>
	<path fill="#FFFFFF" d="M106.171,44.416c-0.03,1.176,0.785,1.961,1.86,1.961c0.724,0,1.308-0.432,1.639-1.056l0.383,0.221
		c-0.422,0.806-1.167,1.258-2.082,1.258c-1.377,0-2.253-1.117-2.253-2.434c0-1.298,0.896-2.414,2.253-2.414
		c1.409,0,2.243,1.127,2.233,2.464H106.171z M109.751,43.993c-0.11-0.854-0.814-1.619-1.77-1.619c-0.944,0-1.729,0.744-1.811,1.619
		H109.751z"/>
	<path fill="#FFFFFF" d="M111.753,42.636h0.021c0.21-0.433,0.673-0.684,1.165-0.684c0.594,0,1.066,0.302,1.309,0.845
		c0.25-0.553,0.764-0.845,1.357-0.845c1.197,0,1.438,0.814,1.438,1.83v2.917h-0.452v-2.977c0-0.715-0.111-1.349-0.997-1.349
		c-0.965,0-1.196,0.845-1.196,1.65v2.675h-0.453v-2.867c0-0.724-0.13-1.458-1.035-1.458c-0.975,0-1.156,1.016-1.156,1.771v2.555
		h-0.453v-4.647h0.453L111.753,42.636L111.753,42.636z"/>
	<path fill="#FFFFFF" d="M118.592,38.401h0.452v4.455h0.021c0.392-0.583,1.076-0.904,1.789-0.904c1.389,0,2.274,1.035,2.274,2.394
		c0,1.357-0.886,2.453-2.294,2.453c-0.684,0-1.429-0.342-1.77-0.935h-0.021v0.835h-0.452V38.401z M122.676,44.346
		c0-1.017-0.734-1.972-1.811-1.972c-1.177,0-1.851,0.875-1.851,1.981c0,1.087,0.684,2.021,1.83,2.021
		C121.981,46.377,122.676,45.411,122.676,44.346z"/>
	<path fill="#FFFFFF" d="M124.224,44.416c-0.029,1.176,0.785,1.961,1.861,1.961c0.724,0,1.308-0.432,1.64-1.056l0.382,0.221
		c-0.423,0.806-1.167,1.258-2.082,1.258c-1.379,0-2.253-1.117-2.253-2.434c0-1.298,0.895-2.414,2.253-2.414
		c1.408,0,2.242,1.127,2.233,2.464H124.224z M127.805,43.993c-0.11-0.854-0.815-1.619-1.77-1.619c-0.946,0-1.73,0.744-1.812,1.619
		H127.805z"/>
	<path fill="#FFFFFF" d="M129.807,42.656h0.02c0.181-0.422,0.513-0.704,1.005-0.704c0.183,0,0.334,0.04,0.494,0.11l-0.241,0.402
		c-0.112-0.061-0.201-0.091-0.322-0.091c-1.016,0-0.955,1.269-0.955,1.951v2.374h-0.453v-4.647h0.453V42.656L129.807,42.656z"/>
	<path fill="#FFFFFF" d="M134.1,42.896c-0.15-0.321-0.451-0.522-0.813-0.522c-0.394,0-0.795,0.322-0.795,0.725
		c0,1.116,2.263,0.574,2.263,2.253c0,0.854-0.663,1.447-1.498,1.447c-0.774,0-1.409-0.473-1.599-1.227l0.441-0.141
		c0.172,0.554,0.544,0.945,1.157,0.945c0.584,0,1.046-0.462,1.046-1.047c0-0.572-0.442-0.753-0.905-0.914
		c-0.633-0.231-1.357-0.503-1.357-1.288c0-0.703,0.594-1.176,1.267-1.176c0.475,0,0.987,0.312,1.188,0.744L134.1,42.896z"/>
</g>
<g>
	<path fill="#FFFFFF" d="M135.012,41.446l0.181-0.016c0.01,0.073,0.029,0.132,0.061,0.18c0.032,0.046,0.081,0.084,0.146,0.112
		c0.065,0.029,0.141,0.042,0.224,0.042c0.073,0,0.138-0.01,0.194-0.031c0.056-0.022,0.099-0.052,0.124-0.09
		c0.029-0.038,0.042-0.08,0.042-0.125s-0.013-0.085-0.04-0.118c-0.025-0.035-0.07-0.064-0.131-0.086
		c-0.038-0.016-0.125-0.039-0.258-0.07c-0.133-0.033-0.228-0.062-0.28-0.091c-0.07-0.036-0.121-0.082-0.155-0.135
		c-0.035-0.055-0.051-0.115-0.051-0.182c0-0.073,0.021-0.143,0.062-0.206c0.041-0.064,0.103-0.111,0.183-0.146
		c0.08-0.033,0.169-0.05,0.266-0.05c0.108,0,0.204,0.018,0.286,0.053s0.146,0.085,0.19,0.152c0.043,0.067,0.067,0.145,0.071,0.229
		l-0.186,0.015c-0.01-0.092-0.042-0.161-0.1-0.209s-0.142-0.069-0.255-0.069c-0.115,0-0.2,0.021-0.253,0.063
		c-0.054,0.042-0.08,0.094-0.08,0.154c0,0.053,0.019,0.095,0.056,0.128c0.038,0.034,0.133,0.069,0.289,0.103
		c0.157,0.037,0.265,0.067,0.322,0.094c0.085,0.04,0.147,0.089,0.188,0.148c0.039,0.06,0.06,0.129,0.06,0.207
		c0,0.077-0.023,0.15-0.066,0.218c-0.044,0.069-0.107,0.121-0.19,0.16c-0.084,0.038-0.177,0.057-0.28,0.057
		c-0.132,0-0.241-0.02-0.331-0.057c-0.089-0.039-0.158-0.097-0.21-0.174C135.042,41.631,135.015,41.544,135.012,41.446z"/>
	<path fill="#FFFFFF" d="M136.426,41.913V40.46h0.288l0.346,1.029c0.03,0.096,0.055,0.168,0.069,0.215
		c0.016-0.053,0.041-0.13,0.078-0.231l0.347-1.013h0.258v1.453h-0.184v-1.217l-0.423,1.217h-0.174l-0.42-1.236v1.236H136.426z"/>
</g>
<path fill="#FFFFFF" d="M19.935,21.172c1.886-7.078,8.419-12.3,16.191-12.3c7.899,0,14.516,5.396,16.277,12.65
	c0.357,0.147,0.706,0.311,1.05,0.482C51.863,13.627,44.339,7.28,35.29,7.28c-8.812,0-16.178,6.018-18.026,14.069
	c0.813-0.119,1.646-0.183,2.493-0.183C19.817,21.167,19.875,21.171,19.935,21.172z"/>
<linearGradient id="SVGID_1_" gradientUnits="userSpaceOnUse" x1="17.2642" y1="14.3149" x2="36.9067" y2="14.3149">
	<stop  offset="0" style="stop-color:#D9E7F6"/>
	<stop  offset="1" style="stop-color:#C8C8C8"/>
</linearGradient>
<path fill="url(#SVGID_1_)" d="M36.907,7.425l-0.017-0.07c-0.012-0.003-0.024-0.006-0.036-0.007
	C36.338,7.305,35.817,7.28,35.29,7.28c-8.812,0-16.178,6.018-18.026,14.069c0.813-0.119,1.646-0.183,2.493-0.183
	c0.06,0,0.119,0.004,0.178,0.005C21.424,10.943,29.182,7.615,36.907,7.425z"/>
<radialGradient id="SVGID_2_" cx="43.2803" cy="10.0527" r="5.3495" gradientTransform="matrix(-0.9167 -0.3995 0.1178 -0.2703 81.7731 30.0596)" gradientUnits="userSpaceOnUse">
	<stop  offset="0" style="stop-color:#D9E7F6"/>
	<stop  offset="1" style="stop-color:#FFFFFF"/>
</radialGradient>
<path fill="url(#SVGID_2_)" d="M41.645,8.377c-1.504-0.538-3.099-0.889-4.757-1.028l0.001,0.006
	c1.148,0.269,2.209,0.505,2.185,0.982c-0.028,0.525-1.803,0.37-2.829,0.539c4.895,0.034,9.288,2.136,12.326,5.467
	C47.045,11.912,45.285,9.741,41.645,8.377z"/>
</svg>
