<?xml version="1.0" encoding="utf-8"?>
<!-- Generator: Adobe Illustrator 16.0.4, SVG Export Plug-In . SVG Version: 6.00 Build 0)  -->
<!DOCTYPE svg PUBLIC "-//W3C//DTD SVG 1.1//EN" "http://www.w3.org/Graphics/SVG/1.1/DTD/svg11.dtd">
<svg version="1.1" id="Layer_1" xmlns="http://www.w3.org/2000/svg" xmlns:xlink="http://www.w3.org/1999/xlink" x="0px" y="0px"
	 width="193.852px" height="32.246px" viewBox="0 0 193.852 32.246" enable-background="new 0 0 193.852 32.246"
	 xml:space="preserve">
<g>
	<g>
		<g>
			<path fill="#0081C6" d="M24.31,30.461c0-0.875,0.714-1.589,1.596-1.589c0.879,0,1.588,0.714,1.588,1.589
				c0,0.883-0.709,1.596-1.588,1.596C25.024,32.057,24.31,31.344,24.31,30.461z M27.243,30.461c0-0.775-0.563-1.375-1.337-1.375
				c-0.777,0-1.345,0.6-1.345,1.375c0,0.78,0.566,1.389,1.345,1.389C26.679,31.85,27.243,31.242,27.243,30.461z M26.702,31.354
				h-0.259l-0.51-0.822h-0.399v0.822h-0.218v-1.779h0.776c0.471,0,0.631,0.176,0.631,0.469c0,0.35-0.243,0.481-0.56,0.488
				L26.702,31.354z M25.866,30.361c0.251,0,0.622,0.043,0.622-0.32c0-0.276-0.227-0.312-0.446-0.312h-0.508v0.632H25.866z"/>
			<path fill="#0081C6" d="M54.295,30.461c0-0.875,0.715-1.589,1.599-1.589c0.877,0,1.588,0.714,1.588,1.589
				c0,0.883-0.711,1.596-1.588,1.596C55.01,32.057,54.295,31.344,54.295,30.461z M57.229,30.461c0-0.775-0.562-1.375-1.336-1.375
				c-0.777,0-1.347,0.6-1.347,1.375c0,0.78,0.568,1.389,1.347,1.389C56.667,31.85,57.229,31.242,57.229,30.461z M56.687,31.354
				h-0.259l-0.512-0.822h-0.398v0.822h-0.22v-1.779h0.776c0.473,0,0.632,0.176,0.632,0.469c0,0.35-0.243,0.481-0.559,0.488
				L56.687,31.354z M55.849,30.361c0.253,0,0.623,0.043,0.623-0.32c0-0.276-0.229-0.312-0.445-0.312h-0.509v0.632H55.849z"/>
			<polygon fill="#0081C6" points="22.745,31.905 22.745,23.135 31.516,23.135 31.516,9.11 22.745,9.11 22.745,0.342 8.771,0.342 
				8.771,9.11 0,9.11 0,23.135 8.771,23.135 8.771,31.905 			"/>
			<path fill="#0081C6" d="M48.827,32.244c6.058-3.344,9.729-8.675,11.62-14.522C62.41,11.654,62.085,4.473,59.812,0
				c-3.459,1.742-6.94,2.616-10.984,2.629C44.783,2.641,41.302,1.742,37.843,0c-2.273,4.473-2.601,11.654-0.636,17.721
				C39.099,23.569,42.771,28.9,48.827,32.244L48.827,32.244z"/>
			<path fill="#FFFFFF" d="M15.783,16.147"/>
			<path fill="#FFFFFF" d="M15.783,16.147"/>
			<path fill="#FFFFFF" d="M15.783,16.147"/>
			<path fill="#FFFFFF" d="M15.783,16.147"/>
			<g>
				<path fill="#FFFFFF" d="M7.672,13.094l5.813,0.562c1.091,0.148,1.218,1.207,0.93,1.844l-3.981,7.477l0.004-0.01
					c-2.021-1.588-3.318-4.051-3.318-6.82c0-1.073,0.198-2.104,0.555-3.055L7.672,13.094z"/>
				<path fill="#FFFFFF" d="M23.894,13.094l-5.815,0.562c-1.091,0.148-1.217,1.207-0.929,1.844l3.982,7.479l-0.006-0.012
					c2.02-1.586,3.317-4.051,3.317-6.819c0-1.073-0.196-2.104-0.554-3.056L23.894,13.094z"/>
				<path fill="#FFFFFF" d="M15.783,8.586c1.024,0,1.319,1.159,0.866,1.76c-0.408,0.529-0.487,0.688-0.465,1.186
					c0.017,0.419,0.401,0.934,1.283,0.954h6.165c-1.379-2.955-4.376-4.998-7.851-4.998S9.31,9.531,7.929,12.486h6.164
					c0.882-0.021,1.27-0.534,1.287-0.954c0.021-0.498-0.058-0.656-0.468-1.186C14.463,9.745,14.754,8.586,15.783,8.586z"/>
				<path fill="#FFFFFF" d="M15.783,24.809c1.759,0,3.396-0.522,4.762-1.426l0.001,0.01l-4.224-6.314
					c-0.297-0.406-0.769-0.441-1.082,0l-4.223,6.314l0.001-0.01C12.386,24.286,14.021,24.809,15.783,24.809"/>
				<path fill="#FFFFFF" d="M48.82,29.533c4.987-3.088,7.642-7.51,9.344-12.507c1.511-4.436,1.88-9.624,0.218-13.676
					c-2.49,0.855-3.949,1.121-5.306,1.332C51.812,4.879,50.682,5,48.832,5.025H48.82C46.971,5,45.841,4.879,44.579,4.682
					c-1.355-0.211-2.816-0.476-5.309-1.332c-1.659,4.052-1.29,9.24,0.22,13.676c1.702,4.997,4.357,9.418,9.342,12.507H48.82z"/>
			</g>
			<g>
				<path fill="#0081C6" d="M8.534,14.374l4.402,0.405c0.314,0.026,0.342,0.159,0.27,0.344l-3.082,5.884
					C9,19.702,8.322,18.002,8.322,16.147C8.321,15.536,8.396,14.942,8.534,14.374z"/>
				<path fill="#0081C6" d="M13.708,8.979c-0.438,0.732-0.083,1.687,0.333,2.14c0.078,0.077,0.039,0.16-0.031,0.179l-3.898,0.002
					C11.048,10.206,12.293,9.389,13.708,8.979z"/>
				<path fill="#0081C6" d="M23.029,14.374l-4.4,0.405c-0.316,0.026-0.343,0.159-0.27,0.344l3.083,5.884
					c1.123-1.305,1.8-3.004,1.8-4.859C23.242,15.536,23.168,14.942,23.029,14.374z"/>
				<path fill="#0081C6" d="M17.854,8.979c0.438,0.732,0.084,1.687-0.332,2.14c-0.077,0.077-0.04,0.16,0.032,0.179l3.897,0.002
					C20.518,10.206,19.273,9.389,17.854,8.979z"/>
				<path fill="#0081C6" d="M48.823,28.307c3.374-2.119,7.195-6.935,8.722-13.267c0.813-3.358,1.04-7.135-0.016-10.129
					c-1.513,0.401-2.921,0.733-4.378,0.931c-1.457,0.198-2.899,0.338-4.319,0.349h-0.01c-1.419-0.009-2.861-0.15-4.318-0.349
					c-1.46-0.197-2.87-0.529-4.377-0.931c-1.059,2.994-0.831,6.771-0.021,10.129c1.528,6.333,5.352,11.147,8.726,13.267H48.823z"/>
				<path fill="#0081C6" d="M15.66,18.504c0.067-0.086,0.166-0.096,0.245,0l2.913,4.461c-0.928,0.412-1.956,0.644-3.035,0.644
					c-1.083,0-2.108-0.231-3.038-0.644L15.66,18.504c0.081-0.096,0.176-0.086,0.245,0"/>
			</g>
			<g>
				<path fill="#FFFFFF" d="M45.384,8.441c-1.142,0.593-1.535,1.985-1.024,3.11c0.445,0.975,1.321,1.621,2.34,1.922
					c0.51,0.154,1.026,0.192,1.555,0.217c0.646,0.031,1.229,0.052,1.853,0.21c0.133,0.034,0.275,0.11,0.346,0.239
					c0.166,0.312,0.015,0.652-0.312,0.748c-0.007,0.545-0.056,1.637-0.056,1.637s2.646-0.251,2.198-2.631
					c-0.108-0.569-0.556-1.153-1.066-1.418c-1.326-0.68-2.783-0.385-4.144-0.824c-0.457-0.148-1.096-0.375-1.219-0.891
					c-0.05-0.205-0.005-0.617,0.208-0.684c0.342-0.109,0.722,0.178,1.221,0.292c0.313,0.072,0.624,0.071,0.872-0.004
					c0.109-0.032,0.271-0.076,0.283-0.138c-0.014-0.055-0.138-0.104-0.201-0.139c-0.151-0.078-0.311-0.115-0.476-0.178
					c-0.274-0.104-0.55-0.236-0.826-0.391c0.26-0.053,0.698-0.066,0.957-0.037C48.1,9.51,48.743,9.5,48.934,9.451
					c0.042-0.01,0.137-0.049,0.094-0.12c-0.075-0.125-0.2-0.169-0.283-0.287c-0.188-0.256-0.353-0.519-0.653-0.633
					C47.222,8.076,46.251,7.991,45.384,8.441z"/>
				<path fill="#FFFFFF" d="M49.798,16.93l0.016-2.776c0,0-0.357-0.075-0.856-0.106c-0.648-0.043-0.941-0.035-0.941-0.035
					l-0.005,0.234c0,0-0.312,0.133-0.36,0.217c-0.022,0.039-0.105,0.144-0.065,0.248c0.256,0.686,0.611,1.352,0.711,2.086
					C48.78,16.864,49.208,16.85,49.798,16.93z"/>
				<path fill="#FFFFFF" d="M46.478,16.51c-0.116,1.088,0.595,1.67,1.382,1.858c0.621,0.147,1.223,0.181,1.872,0.256
					c0.082,0.009,0.255,0.015,0.387,0.072c0.113,0.051,0.171,0.116,0.193,0.188c0.03,0.103,0.018,0.18-0.049,0.26
					c-0.069,0.087-0.256,0.137-0.256,0.137L49.97,20.59c0,0,0.526-0.021,0.955-0.277c0.403-0.243,0.653-0.555,0.745-0.941
					c0.104-0.451,0.032-0.893-0.286-1.332c-0.213-0.292-0.581-0.5-0.954-0.63c-0.772-0.271-1.609-0.229-2.411-0.344
					c-0.122-0.017-0.233-0.112-0.245-0.222c-0.021-0.205,0.169-0.295,0.169-0.295s-0.094-0.314-0.197-0.615
					c-0.088-0.231-0.22-0.551-0.31-0.721C46.889,15.445,46.539,15.948,46.478,16.51z"/>
				<path fill="#FFFFFF" d="M49.731,18.928l-0.021,2.351l-0.588-0.271l-0.582-0.242l-0.014-1.961
					C49.049,18.869,49.288,18.875,49.731,18.928z"/>
				<path fill="#FFFFFF" d="M47.098,20.227c-0.319,0.76,0.083,1.504,0.723,1.82c0.335,0.162,0.776,0.312,1.137,0.448
					c0.354,0.136,0.978,0.524,1.022,0.71c0.032,0.114-0.104,0.225-0.104,0.225l-0.015,0.92c0,0,0.382-0.082,0.667-0.316
					c0.264-0.221,0.458-0.504,0.456-0.962c-0.003-0.503-0.235-0.896-0.951-1.312c-0.554-0.326-1.225-0.586-1.748-0.817
					c-0.079-0.033-0.145-0.183-0.115-0.272c0.032-0.099,0.093-0.133,0.093-0.133l-0.013-1.061c0,0-0.401,0.08-0.592,0.191
					C47.482,19.772,47.219,19.944,47.098,20.227z"/>
				<path fill="#FFFFFF" d="M49.633,23.35c0.008-0.078-0.02-0.088-0.053-0.139c-0.158-0.164-0.386-0.277-0.438-0.31
					c-0.166-0.097-0.526-0.231-0.526-0.231s0.025,2.402,0.069,3.645c0.01,0.283,0.168,0.355,0.438,0.371
					c0.332,0.021,0.427-0.188,0.434-0.309C49.568,25.979,49.618,24.254,49.633,23.35z"/>
				<path fill="#FFFFFF" d="M49.888,7.881c0.119,0.09,0.119,0.096,0.154,0.272c0.083,0.384-0.002,0.983,0.074,1.25
					c0.038,0.083,0.124,0.083,0.189,0.046c0.532-0.289,0.895-0.781,1.431-1.012c0.256-0.106,0.955,0.244,0.794,0.771
					c-0.077,0.247-0.188,0.285-0.343,0.446c-0.312,0.327-0.756,0.634-1.146,1.054c-0.262,0.288-0.578,0.496-0.781,0.82
					c-0.063,0.102-0.169,0.242-0.169,0.242c-0.749-0.151-1.5-0.125-2.083-0.242l-0.002-0.867c0,0,0.596-0.102,0.707-0.393
					c0.008-0.025-0.008-0.127-0.094-0.188c-0.1-0.077-0.277-0.155-0.332-0.174c0.599,0.095,0.968,0.194,1.544,0.444
					c0.039-0.063,0.017-0.207-0.027-0.254c-0.079-0.088-0.122-0.119-0.323-0.166c-0.354-0.092-1.31-0.209-1.31-0.209
					s0.442-0.002,0.812-0.063c0.182-0.03,0.33-0.065,0.37-0.126c0.041-0.092-0.035-0.232-0.164-0.365
					c-0.083-0.091-0.178-0.184-0.249-0.277c-0.087-0.121-0.23-0.34-0.385-0.478c-0.137-0.12-0.473-0.294-0.473-0.294
					s-0.062-0.466,0.033-0.652c0.071-0.141,0.25-0.22,0.346-0.172C48.893,7.54,49.315,7.783,49.888,7.881z"/>
				<g>
					<path fill="#FFFFFF" d="M48.035,24.237c-0.145,0.15-0.387,0.456-0.428,0.947c-0.039,0.439,0.061,0.562,0.173,0.799
						c0.09,0.193,0.301,0.182,0.376,0.002c0.062-0.146-0.027-0.284,0.027-0.607c0.042-0.234,0.229-0.365,0.229-0.365l-0.018-1.067
						C48.394,23.947,48.228,24.034,48.035,24.237z"/>
				</g>
			</g>
			<g>
				<path fill="#0081C6" d="M48.003,8.777c-0.109,0.079-0.186,0.159-0.311,0.18c-0.245,0.039-0.21-0.174-0.378-0.292
					c-0.105-0.074-0.202,0.02-0.293-0.15c0.354,0.01,0.821-0.021,1.087,0.25C48.076,8.744,48.018,8.766,48.003,8.777z"/>
			</g>
		</g>
	</g>
	<g>
		<path d="M70.914,9.045h1.173V1.038h-1.173V0.671h4.621c1.527,0,2.738,0.318,2.738,1.796c0,1.381-1.101,2.006-2.348,2.092v0.023
			c1.479,0.037,2.897,0.771,2.897,2.434c0,1.369-0.941,2.396-3.032,2.396h-4.877V9.045L70.914,9.045z M73.994,4.461h0.782
			c1.088,0,1.516-0.478,1.516-1.699c0-1.21-0.354-1.725-1.589-1.725h-0.709V4.461L73.994,4.461z M73.994,9.045h0.697
			c1.369,0,2.078-0.551,2.078-2.213c0-1.406-0.464-2.005-1.87-2.005h-0.905V9.045z"/>
		<path d="M79.222,9.045h0.88V1.038h-0.88V0.671h0.757c0.624,0,1.259-0.024,1.882-0.073v8.448h0.88v0.366H79.22L79.222,9.045
			L79.222,9.045z"/>
		<path d="M89.585,9.045h0.881v0.366c-1.198,0.013-1.907,0.024-2.641,0.074V8.557h-0.024c-0.416,0.672-1.187,1.002-1.943,1.002
			c-1.235,0-2.104-0.44-2.104-2.018V3.79h-0.88V3.422h0.757c0.624,0,1.26-0.023,1.884-0.072v4.56c0,0.94,0.451,1.063,0.953,1.063
			c0.782,0,1.356-0.647,1.356-1.957V3.79h-0.88V3.422h0.758c0.624,0,1.259-0.023,1.882-0.072L89.585,9.045L89.585,9.045z"/>
		<path d="M92.772,6.112v0.525c0,1.088,0.195,2.408,1.589,2.408c1.026,0,1.675-0.586,2.078-1.468l0.33,0.147
			c-0.489,1.222-1.468,1.832-2.727,1.832c-1.896,0-3.179-1.223-3.179-3.142c0-1.81,1.308-3.142,3.179-3.142
			c1.588,0,2.836,1.027,2.836,2.836h-4.106V6.112z M94.973,5.745V5.182c0-0.696-0.172-1.541-1.002-1.541
			c-1.138,0-1.162,1.32-1.198,2.104H94.973z"/>
		<path d="M105.47,3.715h-0.367c-0.109-1.516-1.332-2.824-2.75-2.824c-2.396,0-2.665,2.457-2.665,4.144
			c0,1.54,0.146,4.156,2.58,4.156c1.441,0,2.736-1.333,2.896-2.812h0.365v2.469c-0.916,0.379-2.236,0.709-3.312,0.709
			c-2.8,0-4.585-1.883-4.585-4.522c0-2.628,1.785-4.511,4.585-4.511c1.075,0,2.104,0.269,3.252,0.709L105.47,3.715L105.47,3.715z"/>
		<path d="M106.015,9.045h0.88V3.789h-0.88V3.422h0.758c0.624,0,1.26-0.025,1.883-0.074v0.99h0.024
			c0.244-0.623,0.855-1.063,1.54-1.063c0.771,0,1.174,0.538,1.174,1.235c0,0.5-0.244,0.818-0.795,0.818
			c-0.478,0-0.746-0.244-0.746-0.648c0-0.354,0.023-0.391,0.023-0.573c0-0.147-0.061-0.245-0.23-0.245
			c-0.709,0-0.99,1.65-0.99,2.604v2.58h0.88v0.366h-3.521V9.045L106.015,9.045z"/>
		<path d="M114.692,9.559c-1.896,0-3.18-1.223-3.18-3.143c0-1.81,1.309-3.142,3.18-3.142c1.869,0,3.178,1.333,3.178,3.142
			S116.562,9.559,114.692,9.559z M114.692,3.641c-1.272,0-1.272,1.346-1.272,2.775s0,2.775,1.272,2.775
			c1.27,0,1.27-1.346,1.27-2.775S115.962,3.641,114.692,3.641z"/>
		<path d="M118.514,7.151h0.365c0.05,1.102,0.771,2.042,1.834,2.042c0.623,0,1.234-0.245,1.234-0.88c0-1.406-3.35-0.782-3.35-3.154
			c0-1.259,0.967-1.883,2.151-1.883c0.916,0,1.418,0.208,1.896,0.393v1.576h-0.367c-0.085-0.855-0.746-1.602-1.613-1.602
			c-0.489,0-0.893,0.257-0.893,0.758c0,1.246,3.35,0.673,3.35,3.068c0,1.356-1.223,2.09-2.457,2.09c-0.93,0-1.699-0.269-2.15-0.428
			V7.151L118.514,7.151z"/>
		<path d="M123.743,7.151h0.366c0.05,1.102,0.771,2.042,1.834,2.042c0.623,0,1.235-0.245,1.235-0.88
			c0-1.406-3.351-0.782-3.351-3.154c0-1.259,0.965-1.883,2.15-1.883c0.918,0,1.419,0.208,1.896,0.393v1.576h-0.366
			c-0.086-0.855-0.745-1.602-1.613-1.602c-0.489,0-0.894,0.257-0.894,0.758c0,1.246,3.351,0.673,3.351,3.068
			c0,1.356-1.223,2.09-2.457,2.09c-0.93,0-1.699-0.269-2.151-0.428V7.151L123.743,7.151z"/>
		<path d="M131.782,9.045h1.174V1.038h-1.174V0.671h4.621c1.527,0,2.738,0.318,2.738,1.796c0,1.381-1.101,2.006-2.349,2.092v0.023
			c1.479,0.037,2.897,0.771,2.897,2.434c0,1.369-0.941,2.396-3.032,2.396h-4.877L131.782,9.045L131.782,9.045z M134.862,4.461h0.783
			c1.088,0,1.516-0.478,1.516-1.699c0-1.21-0.354-1.725-1.589-1.725h-0.71V4.461z M134.862,9.045h0.697
			c1.369,0,2.078-0.551,2.078-2.213c0-1.406-0.466-2.005-1.87-2.005h-0.905V9.045L134.862,9.045z"/>
		<path d="M140.091,9.045h0.88V1.038h-0.88V0.671h0.759c0.623,0,1.259-0.024,1.882-0.073v8.448h0.88v0.366h-3.521V9.045z"/>
		<path d="M150.454,9.045h0.881v0.366c-1.197,0.013-1.905,0.024-2.641,0.074V8.557h-0.024c-0.415,0.672-1.187,1.002-1.943,1.002
			c-1.234,0-2.103-0.44-2.103-2.018V3.79h-0.881V3.422h0.758c0.624,0,1.26-0.023,1.883-0.072v4.56c0,0.94,0.453,1.063,0.953,1.063
			c0.783,0,1.357-0.647,1.357-1.957V3.79h-0.88V3.422h0.757c0.624,0,1.26-0.023,1.883-0.072V9.045L150.454,9.045z"/>
		<path d="M153.641,6.112v0.525c0,1.088,0.195,2.408,1.59,2.408c1.025,0,1.675-0.586,2.077-1.468l0.33,0.147
			c-0.488,1.222-1.468,1.832-2.726,1.832c-1.896,0-3.18-1.223-3.18-3.142c0-1.81,1.309-3.142,3.18-3.142
			c1.588,0,2.836,1.027,2.836,2.836h-4.107V6.112z M155.841,5.745V5.182c0-0.696-0.171-1.541-1.002-1.541
			c-1.137,0-1.162,1.32-1.197,2.104H155.841z"/>
		<path d="M158.331,6.465h0.428c0.062,1.248,1.064,2.652,2.642,2.652c0.967,0,1.883-0.391,1.883-1.441
			c0-2.164-4.816-1.455-4.816-4.523c0-1.858,1.528-2.628,2.861-2.628c0.721,0,1.356,0.122,2.469,0.538l0.099,2.09h-0.416
			c-0.231-1.198-1.111-2.188-2.359-2.188c-0.794,0-1.381,0.538-1.381,1.333c0,1.92,4.719,1.198,4.719,4.596
			c0,1.578-1.393,2.666-3.166,2.666c-0.965,0-1.942-0.184-2.848-0.574L158.331,6.465z"/>
		<path d="M164.868,9.045h0.879V1.038h-0.879V0.671h0.758c0.623,0,1.258-0.024,1.883-0.073v3.655h0.023
			c0.416-0.648,1.088-0.978,1.944-0.978c1.233,0,2.103,0.659,2.103,2.017v3.752h0.881v0.367h-3.521V9.045h0.88V5.047
			c0-0.953-0.452-1.186-0.953-1.186c-0.685,0-1.356,0.66-1.356,1.688v3.496h0.881v0.366h-3.521L164.868,9.045L164.868,9.045z"/>
		<path d="M172.589,9.045h0.882V3.789h-0.882V3.422h0.759c0.624,0,1.26-0.025,1.883-0.074v5.697h0.881v0.366h-3.521L172.589,9.045
			L172.589,9.045z M174.351,0.525c0.523,0,0.952,0.428,0.952,0.954s-0.429,0.954-0.952,0.954c-0.526,0-0.955-0.428-0.955-0.954
			C173.396,0.952,173.824,0.525,174.351,0.525z"/>
		<path d="M178.418,6.112v0.525c0,1.088,0.196,2.408,1.589,2.408c1.027,0,1.676-0.586,2.078-1.468l0.33,0.147
			c-0.488,1.222-1.467,1.832-2.726,1.832c-1.896,0-3.18-1.223-3.18-3.142c0-1.81,1.31-3.142,3.18-3.142
			c1.589,0,2.836,1.027,2.836,2.836h-4.107V6.112z M180.618,5.745V5.182c0-0.696-0.172-1.541-1.002-1.541
			c-1.137,0-1.162,1.32-1.198,2.104H180.618z"/>
		<path d="M182.827,9.045h0.881V1.038h-0.881V0.671h0.758c0.624,0,1.261-0.024,1.883-0.073v8.448h0.882v0.366h-3.521L182.827,9.045
			L182.827,9.045z"/>
		<path d="M191.212,8.703h-0.023c-0.44,0.722-1.139,0.856-1.798,0.856c-1.857,0-2.642-1.443-2.642-3.143
			c0-1.65,0.941-3.142,2.738-3.142c0.771,0,1.418,0.269,1.7,0.88h0.023V1.038h-0.881V0.671h0.758c0.623,0,1.261-0.024,1.884-0.073
			v8.448h0.88v0.366c-1.198,0.013-1.907,0.024-2.641,0.073L191.212,8.703L191.212,8.703z M189.879,3.789
			c-1.21,0-1.271,1.173-1.271,2.628c0,1.771,0.33,2.629,1.271,2.629c1.283,0,1.369-1.468,1.369-2.629
			C191.248,5.426,191.162,3.789,189.879,3.789z"/>
		<path d="M74.275,24.219c-1.896,0-3.179-1.222-3.179-3.142c0-1.81,1.309-3.142,3.179-3.142s3.178,1.332,3.178,3.142
			S76.146,24.219,74.275,24.219z M74.275,18.303c-1.271,0-1.271,1.346-1.271,2.775s0,2.775,1.271,2.775
			c1.271,0,1.271-1.346,1.271-2.775S75.546,18.303,74.275,18.303z"/>
		<path d="M77.754,23.707h0.88v-5.256h-0.88v-0.366h0.88v-0.746c0-1.309,0.686-2.152,2.445-2.152c0.562,0,1.981,0.207,1.981,1.32
			c0,0.598-0.281,0.855-0.759,0.855c-0.623,0-0.782-0.342-0.782-0.782c0-0.489,0-1.026-0.526-1.026
			c-0.538,0-0.599,0.451-0.599,0.916v1.615h1.015v0.366h-1.015v5.256h1.015v0.367h-3.655V23.707L77.754,23.707z"/>
		<path d="M84.78,23.707h1.174V15.7H84.78v-0.367h4.254V15.7H87.86v8.007h1.174v0.367H84.78V23.707z"/>
		<path d="M89.374,23.707h0.88V15.7h-0.88v-0.367h0.758c0.624,0,1.26-0.023,1.883-0.074v8.447h0.881v0.367h-3.521V23.707z"/>
		<path d="M93.149,23.707h0.88V15.7h-0.88v-0.367h0.758c0.624,0,1.259-0.023,1.883-0.074v8.447h0.881v0.367H93.15L93.149,23.707
			L93.149,23.707z"/>
		<path d="M96.925,23.707h0.881v-5.256h-0.881v-0.366h0.759c0.623,0,1.259-0.025,1.883-0.074v5.696h0.88v0.367h-3.521V23.707z
			 M98.685,15.186c0.524,0,0.953,0.429,0.953,0.955c0,0.524-0.429,0.953-0.953,0.953c-0.525,0-0.953-0.429-0.953-0.953
			C97.731,15.615,98.159,15.186,98.685,15.186z"/>
		<path d="M100.7,23.707h0.879v-5.256H100.7v-0.366h0.758c0.623,0,1.259-0.025,1.882-0.074v0.904h0.024
			c0.416-0.648,1.088-0.979,1.944-0.979c1.233,0,2.103,0.66,2.103,2.018v3.753h0.881v0.367h-3.521v-0.367h0.88v-3.997
			c0-0.953-0.452-1.186-0.953-1.186c-0.685,0-1.357,0.66-1.357,1.688v3.495h0.881v0.367h-3.521L100.7,23.707L100.7,23.707z"/>
		<path d="M111.991,24.219c-1.895,0-3.179-1.222-3.179-3.142c0-1.81,1.308-3.142,3.179-3.142c1.87,0,3.178,1.332,3.178,3.142
			S113.861,24.219,111.991,24.219z M111.991,18.303c-1.271,0-1.271,1.346-1.271,2.775s0,2.775,1.271,2.775
			c1.271,0,1.271-1.346,1.271-2.775S113.263,18.303,111.991,18.303z"/>
		<path d="M115.568,23.707h0.88v-5.256h-0.88v-0.366h0.758c0.624,0,1.259-0.025,1.883-0.074v5.696h0.88v0.367h-3.521V23.707z
			 M117.329,15.186c0.525,0,0.953,0.429,0.953,0.955c0,0.524-0.428,0.953-0.953,0.953s-0.953-0.429-0.953-0.953
			C116.376,15.615,116.803,15.186,117.329,15.186z"/>
		<path d="M119.466,21.811h0.367c0.049,1.101,0.771,2.043,1.833,2.043c0.624,0,1.235-0.245,1.235-0.881
			c0-1.405-3.351-0.781-3.351-3.153c0-1.259,0.967-1.882,2.151-1.882c0.917,0,1.417,0.207,1.896,0.391v1.577h-0.366
			c-0.086-0.856-0.746-1.603-1.613-1.603c-0.49,0-0.894,0.258-0.894,0.758c0,1.248,3.351,0.673,3.351,3.068
			c0,1.356-1.223,2.09-2.457,2.09c-0.93,0-1.7-0.269-2.152-0.428V21.811z"/>
	</g>
</g>
</svg>
