<?xml version="1.0" encoding="utf-8"?>
<!-- Generator: Adobe Illustrator 16.0.4, SVG Export Plug-In . SVG Version: 6.00 Build 0)  -->
<!DOCTYPE svg PUBLIC "-//W3C//DTD SVG 1.1//EN" "http://www.w3.org/Graphics/SVG/1.1/DTD/svg11.dtd">
<svg version="1.1" id="Layer_1" xmlns="http://www.w3.org/2000/svg" xmlns:xlink="http://www.w3.org/1999/xlink" x="0px" y="0px"
	 width="193.852px" height="32.246px" viewBox="0 0 193.852 32.246" enable-background="new 0 0 193.852 32.246"
	 xml:space="preserve">
<g>
	<g>
		<g>
			<path fill="#0081C6" d="M24.309,30.502c0-0.874,0.714-1.589,1.596-1.589c0.879,0,1.588,0.715,1.588,1.589
				c0,0.884-0.708,1.597-1.588,1.597C25.024,32.099,24.309,31.386,24.309,30.502z M27.242,30.502c0-0.773-0.563-1.375-1.337-1.375
				c-0.777,0-1.345,0.602-1.345,1.375c0,0.781,0.567,1.389,1.345,1.389C26.679,31.891,27.242,31.283,27.242,30.502z M26.701,31.396
				h-0.259l-0.51-0.822h-0.399v0.822h-0.218v-1.78h0.777c0.471,0,0.63,0.177,0.63,0.469c0,0.352-0.243,0.482-0.559,0.489
				L26.701,31.396z M25.865,30.401c0.251,0,0.622,0.044,0.622-0.32c0-0.275-0.227-0.311-0.446-0.311h-0.508v0.631H25.865z"/>
			<path fill="#0081C6" d="M54.294,30.502c0-0.874,0.714-1.589,1.598-1.589c0.877,0,1.588,0.715,1.588,1.589
				c0,0.884-0.711,1.597-1.588,1.597C55.009,32.099,54.294,31.386,54.294,30.502z M57.228,30.502c0-0.773-0.562-1.375-1.336-1.375
				c-0.777,0-1.345,0.602-1.345,1.375c0,0.781,0.568,1.389,1.345,1.389C56.666,31.891,57.228,31.283,57.228,30.502z M56.686,31.396
				h-0.259l-0.511-0.822h-0.399v0.822h-0.219v-1.78h0.777c0.473,0,0.632,0.177,0.632,0.469c0,0.352-0.242,0.482-0.558,0.489
				L56.686,31.396z M55.848,30.401c0.252,0,0.624,0.044,0.624-0.32c0-0.275-0.228-0.311-0.445-0.311h-0.51v0.631H55.848z"/>
			<polygon fill="#0081C6" points="22.745,31.944 22.745,23.176 31.516,23.176 31.516,9.15 22.745,9.15 22.745,0.383 8.77,0.383 
				8.77,9.15 0,9.15 0,23.176 8.77,23.176 8.77,31.944 			"/>
			<path fill="#0081C6" d="M48.827,32.284c6.057-3.343,9.729-8.676,11.618-14.523c1.964-6.066,1.639-13.248-0.635-17.721
				c-3.458,1.742-6.939,2.615-10.983,2.629C44.781,2.68,41.301,1.782,37.842,0.04c-2.274,4.473-2.601,11.655-0.635,17.721
				C39.098,23.608,42.771,28.941,48.827,32.284L48.827,32.284z"/>
			<path fill="#FFFFFF" d="M15.782,16.188"/>
			<path fill="#FFFFFF" d="M15.782,16.188"/>
			<path fill="#FFFFFF" d="M15.782,16.188"/>
			<path fill="#FFFFFF" d="M15.782,16.188"/>
			<g>
				<path fill="#FFFFFF" d="M7.672,13.133l5.813,0.563c1.091,0.149,1.218,1.207,0.929,1.844l-3.982,7.478l0.003-0.011
					c-2.02-1.588-3.317-4.051-3.317-6.82c0-1.074,0.198-2.104,0.555-3.055L7.672,13.133z"/>
				<path fill="#FFFFFF" d="M23.893,13.133l-5.814,0.563c-1.092,0.149-1.217,1.207-0.929,1.844l3.983,7.478l-0.006-0.011
					c2.019-1.588,3.317-4.051,3.317-6.82c0-1.074-0.196-2.104-0.554-3.055L23.893,13.133z"/>
				<path fill="#FFFFFF" d="M15.782,8.626c1.025,0,1.32,1.16,0.866,1.76c-0.408,0.529-0.487,0.687-0.465,1.185
					c0.017,0.42,0.402,0.933,1.285,0.954h6.165c-1.38-2.955-4.376-4.997-7.851-4.997c-3.474,0-6.471,2.042-7.853,4.997h6.165
					c0.881-0.021,1.269-0.534,1.287-0.954c0.02-0.498-0.058-0.655-0.468-1.185C14.463,9.786,14.753,8.626,15.782,8.626z"/>
				<path fill="#FFFFFF" d="M15.782,24.851c1.76,0,3.396-0.524,4.762-1.427l0.002,0.01l-4.224-6.315
					c-0.297-0.406-0.769-0.441-1.082,0l-4.223,6.315l0.001-0.01C12.385,24.326,14.021,24.851,15.782,24.851"/>
				<path fill="#FFFFFF" d="M48.819,29.574c4.986-3.088,7.642-7.511,9.344-12.507c1.511-4.435,1.88-9.624,0.218-13.676
					c-2.491,0.857-3.95,1.122-5.306,1.333c-1.264,0.197-2.394,0.316-4.244,0.343h-0.012C46.97,5.04,45.84,4.92,44.579,4.724
					c-1.356-0.21-2.817-0.476-5.31-1.333c-1.659,4.052-1.29,9.242,0.219,13.676c1.702,4.996,4.358,9.419,9.342,12.507H48.819z"/>
			</g>
			<g>
				<path fill="#0081C6" d="M8.534,14.415l4.402,0.405c0.315,0.026,0.342,0.16,0.269,0.344l-3.082,5.884
					c-1.124-1.305-1.802-3.005-1.802-4.86C8.321,15.577,8.396,14.982,8.534,14.415z"/>
				<path fill="#0081C6" d="M13.708,9.02c-0.438,0.732-0.083,1.688,0.333,2.139c0.078,0.077,0.039,0.161-0.031,0.179l-3.899,0.003
					C11.048,10.247,12.292,9.429,13.708,9.02z"/>
				<path fill="#0081C6" d="M23.029,14.415l-4.4,0.405c-0.318,0.026-0.343,0.16-0.27,0.344l3.083,5.884
					c1.123-1.305,1.8-3.005,1.8-4.86C23.241,15.577,23.168,14.982,23.029,14.415z"/>
				<path fill="#0081C6" d="M17.853,9.02c0.44,0.732,0.084,1.688-0.332,2.139c-0.077,0.077-0.039,0.161,0.031,0.179l3.899,0.003
					C20.517,10.247,19.273,9.429,17.853,9.02z"/>
				<path fill="#0081C6" d="M48.823,28.348c3.372-2.117,7.194-6.934,8.721-13.266c0.813-3.36,1.04-7.135-0.017-10.129
					c-1.513,0.401-2.921,0.734-4.379,0.93c-1.456,0.199-2.899,0.339-4.318,0.349h-0.01c-1.419-0.01-2.861-0.15-4.317-0.349
					c-1.46-0.196-2.87-0.529-4.378-0.93c-1.058,2.994-0.83,6.769-0.021,10.129c1.53,6.333,5.352,11.149,8.727,13.266H48.823z"/>
				<path fill="#0081C6" d="M15.66,18.546c0.067-0.089,0.165-0.097,0.245,0l2.912,4.46c-0.927,0.412-1.956,0.643-3.035,0.643
					c-1.082,0-2.108-0.23-3.037-0.643L15.66,18.546c0.081-0.097,0.175-0.089,0.245,0"/>
			</g>
			<g>
				<path fill="#FFFFFF" d="M45.384,8.481c-1.141,0.593-1.536,1.986-1.025,3.11c0.444,0.975,1.321,1.621,2.34,1.923
					c0.51,0.153,1.026,0.192,1.555,0.215c0.645,0.032,1.229,0.052,1.852,0.209c0.132,0.034,0.277,0.111,0.346,0.24
					c0.166,0.312,0.016,0.653-0.313,0.748c-0.006,0.544-0.055,1.636-0.055,1.636s2.646-0.25,2.198-2.63
					c-0.108-0.57-0.556-1.153-1.066-1.418c-1.327-0.679-2.783-0.385-4.143-0.825c-0.457-0.148-1.096-0.375-1.219-0.89
					c-0.05-0.207-0.005-0.618,0.208-0.684c0.342-0.11,0.723,0.177,1.221,0.292c0.313,0.072,0.625,0.071,0.873-0.004
					c0.109-0.032,0.271-0.076,0.282-0.138c-0.013-0.055-0.136-0.104-0.201-0.138c-0.151-0.08-0.31-0.116-0.476-0.178
					c-0.274-0.104-0.549-0.235-0.825-0.391c0.26-0.053,0.698-0.066,0.956-0.037c0.208,0.026,0.852,0.017,1.042-0.032
					c0.042-0.011,0.136-0.049,0.094-0.12c-0.075-0.125-0.2-0.17-0.283-0.288c-0.188-0.254-0.352-0.518-0.653-0.631
					C47.221,8.117,46.25,8.031,45.384,8.481z"/>
				<path fill="#FFFFFF" d="M49.797,16.972l0.015-2.777c0,0-0.356-0.075-0.855-0.106c-0.649-0.043-0.942-0.035-0.942-0.035
					l-0.004,0.234c0,0-0.312,0.132-0.36,0.216c-0.022,0.038-0.106,0.144-0.065,0.248c0.255,0.686,0.611,1.352,0.71,2.085
					C48.779,16.903,49.207,16.891,49.797,16.972z"/>
				<path fill="#FFFFFF" d="M46.477,16.55c-0.116,1.09,0.594,1.673,1.382,1.859c0.621,0.147,1.223,0.181,1.871,0.257
					c0.081,0.009,0.255,0.014,0.387,0.071c0.113,0.05,0.17,0.116,0.193,0.188c0.031,0.103,0.019,0.18-0.05,0.26
					c-0.068,0.087-0.255,0.138-0.255,0.138l-0.038,1.309c0,0,0.529-0.021,0.958-0.278c0.402-0.243,0.652-0.554,0.744-0.941
					c0.104-0.452,0.032-0.894-0.286-1.332c-0.213-0.291-0.583-0.501-0.955-0.63c-0.774-0.271-1.609-0.229-2.411-0.344
					c-0.122-0.017-0.233-0.112-0.245-0.222c-0.02-0.204,0.17-0.296,0.17-0.296s-0.095-0.315-0.198-0.616
					c-0.089-0.231-0.219-0.549-0.31-0.72C46.889,15.485,46.539,15.989,46.477,16.55z"/>
				<path fill="#FFFFFF" d="M49.731,18.97l-0.021,2.351l-0.587-0.271l-0.582-0.242l-0.015-1.961
					C49.049,18.909,49.287,18.916,49.731,18.97z"/>
				<path fill="#FFFFFF" d="M47.098,20.269c-0.319,0.76,0.083,1.504,0.722,1.819c0.336,0.163,0.775,0.312,1.137,0.449
					c0.353,0.137,0.976,0.524,1.021,0.71c0.032,0.114-0.102,0.226-0.102,0.226l-0.016,0.918c0,0,0.383-0.082,0.669-0.315
					c0.263-0.22,0.458-0.505,0.455-0.963c-0.003-0.503-0.235-0.895-0.951-1.311c-0.553-0.326-1.224-0.586-1.747-0.818
					c-0.078-0.033-0.145-0.183-0.115-0.272c0.032-0.099,0.093-0.133,0.093-0.133L48.25,19.52c0,0-0.402,0.077-0.592,0.189
					C47.483,19.812,47.219,19.984,47.098,20.269z"/>
				<path fill="#FFFFFF" d="M49.632,23.391c0.008-0.078-0.02-0.087-0.053-0.139c-0.157-0.163-0.385-0.277-0.438-0.309
					c-0.165-0.097-0.526-0.232-0.526-0.232s0.025,2.403,0.069,3.644c0.01,0.286,0.167,0.356,0.438,0.372
					c0.331,0.021,0.426-0.188,0.432-0.31C49.567,26.021,49.616,24.296,49.632,23.391z"/>
				<path fill="#FFFFFF" d="M49.887,7.923c0.12,0.089,0.12,0.095,0.155,0.271c0.083,0.384-0.003,0.985,0.075,1.25
					c0.037,0.083,0.124,0.082,0.189,0.046c0.533-0.289,0.895-0.782,1.431-1.01c0.255-0.107,0.955,0.245,0.793,0.771
					c-0.078,0.247-0.188,0.284-0.343,0.445c-0.311,0.327-0.756,0.634-1.144,1.055c-0.263,0.288-0.579,0.496-0.784,0.819
					c-0.062,0.104-0.168,0.244-0.168,0.244c-0.748-0.152-1.499-0.125-2.083-0.244l-0.002-0.867c0,0,0.595-0.101,0.708-0.393
					c0.007-0.024-0.009-0.126-0.096-0.187c-0.099-0.076-0.275-0.155-0.33-0.175c0.597,0.094,0.967,0.195,1.542,0.445
					c0.039-0.064,0.016-0.208-0.027-0.255c-0.079-0.088-0.123-0.118-0.323-0.167c-0.353-0.091-1.309-0.208-1.309-0.208
					s0.441-0.003,0.811-0.064c0.182-0.03,0.331-0.064,0.37-0.126c0.041-0.091-0.035-0.232-0.164-0.364
					c-0.083-0.091-0.178-0.184-0.249-0.278c-0.087-0.121-0.23-0.339-0.385-0.477c-0.137-0.12-0.472-0.294-0.472-0.294
					s-0.062-0.465,0.033-0.651c0.071-0.141,0.249-0.219,0.345-0.171C48.892,7.581,49.315,7.824,49.887,7.923z"/>
				<g>
					<path fill="#FFFFFF" d="M48.035,24.276c-0.145,0.151-0.388,0.457-0.428,0.949c-0.04,0.438,0.061,0.561,0.172,0.799
						c0.09,0.193,0.301,0.182,0.376,0.001c0.061-0.147-0.027-0.283,0.027-0.606c0.042-0.234,0.229-0.364,0.229-0.364l-0.019-1.068
						C48.393,23.986,48.227,24.075,48.035,24.276z"/>
				</g>
			</g>
			<g>
				<path fill="#0081C6" d="M48.003,8.817c-0.11,0.079-0.186,0.16-0.311,0.179c-0.245,0.039-0.209-0.174-0.378-0.291
					c-0.105-0.074-0.202,0.02-0.293-0.152c0.354,0.01,0.822-0.02,1.087,0.25C48.076,8.784,48.017,8.807,48.003,8.817z"/>
			</g>
		</g>
	</g>
	<g>
		<path fill="#231F20" d="M70.912,9.086h1.174V1.078h-1.174V0.712h4.622c1.527,0,2.738,0.317,2.738,1.796
			c0,1.382-1.1,2.006-2.347,2.09v0.024c1.479,0.038,2.896,0.771,2.896,2.434c0,1.369-0.941,2.396-3.031,2.396h-4.878V9.086z
			 M73.994,4.501h0.782c1.087,0,1.515-0.477,1.515-1.699c0-1.21-0.354-1.725-1.589-1.725h-0.708V4.501z M73.994,9.086h0.695
			c1.37,0,2.079-0.55,2.079-2.212c0-1.406-0.465-2.005-1.871-2.005h-0.904V9.086z"/>
		<path fill="#231F20" d="M79.22,9.086h0.881V1.078H79.22V0.712h0.758c0.624,0,1.259-0.024,1.883-0.073v8.447h0.88v0.366H79.22
			V9.086z"/>
		<path fill="#231F20" d="M89.585,9.086h0.881v0.366c-1.199,0.013-1.908,0.024-2.642,0.074v-0.93h-0.024
			c-0.416,0.672-1.187,1.002-1.943,1.002c-1.235,0-2.103-0.44-2.103-2.017V3.829h-0.881V3.462h0.758c0.624,0,1.26-0.024,1.883-0.073
			v4.56c0,0.941,0.452,1.063,0.954,1.063c0.782,0,1.357-0.648,1.357-1.956V3.829h-0.881V3.462h0.758
			c0.623,0,1.259-0.024,1.883-0.073V9.086z"/>
		<path fill="#231F20" d="M92.771,6.152v0.526c0,1.088,0.195,2.408,1.589,2.408c1.027,0,1.675-0.587,2.079-1.467l0.33,0.147
			c-0.489,1.223-1.467,1.833-2.726,1.833c-1.895,0-3.179-1.223-3.179-3.142c0-1.809,1.309-3.142,3.179-3.142
			c1.59,0,2.836,1.027,2.836,2.836H92.771z M94.972,5.785V5.222c0-0.696-0.171-1.54-1.001-1.54c-1.139,0-1.162,1.321-1.199,2.103
			H94.972z"/>
		<path fill="#231F20" d="M105.469,3.756h-0.368c-0.108-1.517-1.33-2.824-2.749-2.824c-2.396,0-2.664,2.457-2.664,4.144
			c0,1.54,0.146,4.157,2.578,4.157c1.442,0,2.738-1.333,2.897-2.812h0.366v2.47c-0.915,0.379-2.236,0.709-3.312,0.709
			c-2.799,0-4.584-1.883-4.584-4.523c0-2.628,1.785-4.511,4.584-4.511c1.075,0,2.102,0.269,3.251,0.709V3.756z"/>
		<path fill="#231F20" d="M106.015,9.086h0.879V3.829h-0.879V3.462h0.758c0.622,0,1.259-0.024,1.882-0.073V4.38h0.025
			c0.244-0.624,0.855-1.064,1.539-1.064c0.77,0,1.173,0.538,1.173,1.234c0,0.501-0.243,0.819-0.795,0.819
			c-0.475,0-0.744-0.245-0.744-0.648c0-0.354,0.023-0.391,0.023-0.574c0-0.148-0.061-0.246-0.231-0.246
			c-0.709,0-0.99,1.65-0.99,2.604v2.58h0.881v0.366h-3.521V9.086z"/>
		<path fill="#231F20" d="M114.691,9.599c-1.896,0-3.178-1.223-3.178-3.142c0-1.809,1.308-3.142,3.178-3.142
			s3.178,1.333,3.178,3.142S116.561,9.599,114.691,9.599z M114.691,3.682c-1.272,0-1.272,1.345-1.272,2.775s0,2.775,1.272,2.775
			c1.271,0,1.271-1.345,1.271-2.775S115.961,3.682,114.691,3.682z"/>
		<path fill="#231F20" d="M118.513,7.191h0.366c0.049,1.1,0.771,2.042,1.834,2.042c0.623,0,1.235-0.245,1.235-0.881
			c0-1.405-3.35-0.782-3.35-3.154c0-1.258,0.965-1.882,2.151-1.882c0.915,0,1.418,0.208,1.894,0.392v1.577h-0.366
			c-0.086-0.856-0.744-1.603-1.613-1.603c-0.489,0-0.893,0.257-0.893,0.758c0,1.247,3.35,0.673,3.35,3.069
			c0,1.357-1.222,2.09-2.457,2.09c-0.93,0-1.699-0.269-2.151-0.428V7.191z"/>
		<path fill="#231F20" d="M123.742,7.191h0.366c0.049,1.1,0.77,2.042,1.834,2.042c0.623,0,1.235-0.245,1.235-0.881
			c0-1.405-3.35-0.782-3.35-3.154c0-1.258,0.965-1.882,2.151-1.882c0.917,0,1.418,0.208,1.896,0.392v1.577h-0.368
			c-0.086-0.856-0.744-1.603-1.613-1.603c-0.489,0-0.893,0.257-0.893,0.758c0,1.247,3.35,0.673,3.35,3.069
			c0,1.357-1.222,2.09-2.457,2.09c-0.93,0-1.699-0.269-2.151-0.428V7.191z"/>
		<path fill="#231F20" d="M131.781,9.086h1.175V1.078h-1.175V0.712h4.621c1.527,0,2.737,0.317,2.737,1.796
			c0,1.382-1.099,2.006-2.348,2.09v0.024c1.481,0.038,2.899,0.771,2.899,2.434c0,1.369-0.943,2.396-3.031,2.396h-4.879V9.086z
			 M134.862,4.501h0.783c1.087,0,1.516-0.477,1.516-1.699c0-1.21-0.354-1.725-1.59-1.725h-0.709V4.501z M134.862,9.086h0.697
			c1.37,0,2.077-0.55,2.077-2.212c0-1.406-0.464-2.005-1.87-2.005h-0.904V9.086z"/>
		<path fill="#231F20" d="M140.089,9.086h0.881V1.078h-0.881V0.712h0.758c0.623,0,1.259-0.024,1.882-0.073v8.447h0.881v0.366h-3.521
			V9.086z"/>
		<path fill="#231F20" d="M150.454,9.086h0.88v0.366c-1.197,0.013-1.907,0.024-2.642,0.074v-0.93h-0.023
			c-0.415,0.672-1.187,1.002-1.944,1.002c-1.235,0-2.103-0.44-2.103-2.017V3.829h-0.88V3.462h0.758c0.623,0,1.261-0.024,1.884-0.073
			v4.56c0,0.941,0.452,1.063,0.953,1.063c0.783,0,1.355-0.648,1.355-1.956V3.829h-0.879V3.462h0.756
			c0.624,0,1.261-0.024,1.885-0.073V9.086z"/>
		<path fill="#231F20" d="M153.64,6.152v0.526c0,1.088,0.194,2.408,1.59,2.408c1.026,0,1.675-0.587,2.076-1.467l0.332,0.147
			c-0.489,1.223-1.468,1.833-2.727,1.833c-1.896,0-3.18-1.223-3.18-3.142c0-1.809,1.31-3.142,3.18-3.142
			c1.588,0,2.835,1.027,2.835,2.836H153.64z M155.841,5.785V5.222c0-0.696-0.171-1.54-1.003-1.54c-1.137,0-1.161,1.321-1.198,2.103
			H155.841z"/>
		<path fill="#231F20" d="M158.331,6.506h0.427c0.062,1.247,1.065,2.652,2.642,2.652c0.965,0,1.882-0.391,1.882-1.442
			c0-2.164-4.816-1.454-4.816-4.522c0-1.859,1.528-2.629,2.86-2.629c0.721,0,1.356,0.123,2.471,0.538l0.096,2.092h-0.415
			c-0.232-1.198-1.112-2.189-2.359-2.189c-0.793,0-1.382,0.538-1.382,1.333c0,1.919,4.719,1.198,4.719,4.596
			c0,1.577-1.393,2.665-3.166,2.665c-0.964,0-1.942-0.183-2.849-0.575L158.331,6.506z"/>
		<path fill="#231F20" d="M164.865,9.086h0.881V1.078h-0.881V0.712h0.758c0.626,0,1.261-0.024,1.885-0.073v3.655h0.023
			c0.416-0.649,1.089-0.978,1.944-0.978c1.233,0,2.102,0.661,2.102,2.017v3.753h0.881v0.366h-3.521V9.086h0.881V5.089
			c0-0.954-0.452-1.187-0.955-1.187c-0.684,0-1.355,0.661-1.355,1.687v3.497h0.88v0.366h-3.522V9.086z"/>
		<path fill="#231F20" d="M172.589,9.086h0.879V3.829h-0.879V3.462h0.758c0.623,0,1.259-0.024,1.882-0.073v5.697h0.881v0.366h-3.521
			V9.086z M174.348,0.565c0.526,0,0.955,0.429,0.955,0.954c0,0.526-0.429,0.954-0.955,0.954c-0.525,0-0.952-0.428-0.952-0.954
			C173.396,0.994,173.823,0.565,174.348,0.565z"/>
		<path fill="#231F20" d="M178.418,6.152v0.526c0,1.088,0.195,2.408,1.588,2.408c1.026,0,1.676-0.587,2.079-1.467l0.329,0.147
			c-0.489,1.223-1.465,1.833-2.726,1.833c-1.894,0-3.178-1.223-3.178-3.142c0-1.809,1.308-3.142,3.178-3.142
			c1.59,0,2.837,1.027,2.837,2.836H178.418z M180.617,5.785V5.222c0-0.696-0.171-1.54-1.001-1.54c-1.138,0-1.163,1.321-1.198,2.103
			H180.617z"/>
		<path fill="#231F20" d="M182.827,9.086h0.881V1.078h-0.881V0.712h0.758c0.623,0,1.259-0.024,1.882-0.073v8.447h0.881v0.366h-3.521
			V9.086z"/>
		<path fill="#231F20" d="M191.211,8.744h-0.025c-0.44,0.721-1.136,0.855-1.797,0.855c-1.858,0-2.64-1.443-2.64-3.142
			c0-1.65,0.941-3.142,2.737-3.142c0.77,0,1.418,0.269,1.699,0.879h0.025V1.078h-0.881V0.712h0.758c0.623,0,1.259-0.024,1.882-0.073
			v8.447h0.881v0.366c-1.198,0.013-1.907,0.024-2.64,0.074V8.744z M189.878,3.829c-1.21,0-1.272,1.174-1.272,2.628
			c0,1.772,0.331,2.628,1.272,2.628c1.284,0,1.37-1.467,1.37-2.628C191.248,5.468,191.162,3.829,189.878,3.829z"/>
		<path fill="#231F20" d="M74.275,24.262c-1.895,0-3.179-1.223-3.179-3.143c0-1.809,1.308-3.142,3.179-3.142
			c1.87,0,3.178,1.333,3.178,3.142C77.453,22.929,76.145,24.262,74.275,24.262z M74.275,18.344c-1.271,0-1.271,1.346-1.271,2.775
			c0,1.431,0,2.774,1.271,2.774c1.271,0,1.271-1.344,1.271-2.774C75.546,19.689,75.546,18.344,74.275,18.344z"/>
		<path fill="#231F20" d="M77.754,23.748h0.88v-5.257h-0.88v-0.367h0.88v-0.745c0-1.309,0.684-2.152,2.444-2.152
			c0.562,0,1.98,0.208,1.98,1.32c0,0.6-0.281,0.856-0.758,0.856c-0.624,0-0.782-0.343-0.782-0.782c0-0.489,0-1.027-0.526-1.027
			c-0.538,0-0.598,0.452-0.598,0.917v1.613h1.014v0.367h-1.014v5.257h1.014v0.366h-3.655V23.748z"/>
		<path fill="#231F20" d="M87.224,23.748h1.174V15.74h-0.452c-1.797,0-2.469,1.346-2.494,2.593h-0.367v-2.959h8.534v2.959h-0.368
			c-0.023-1.247-0.696-2.593-2.494-2.593h-0.452v8.008h1.173v0.366h-4.254V23.748z"/>
		<path fill="#231F20" d="M95.765,20.813v0.525c0,1.088,0.195,2.409,1.591,2.409c1.026,0,1.674-0.588,2.077-1.467l0.331,0.146
			c-0.489,1.223-1.467,1.835-2.729,1.835c-1.894,0-3.177-1.223-3.177-3.143c0-1.809,1.307-3.142,3.177-3.142
			c1.591,0,2.838,1.027,2.838,2.836H95.765z M97.965,20.446v-0.562c0-0.697-0.171-1.541-1.002-1.541
			c-1.138,0-1.161,1.321-1.198,2.103H97.965z"/>
		<path fill="#231F20" d="M100.321,23.748h0.88l1.809-2.273l-1.857-2.983h-0.953v-0.367h3.788v0.367h-0.807l0.979,1.539l1.224-1.539
			h-0.807v-0.367h2.162v0.367h-0.807l-1.541,1.932l2.103,3.325h0.797v0.366h-3.729v-0.366h0.881l-1.187-1.895l-1.504,1.895h0.952
			v0.366h-2.382V23.748z"/>
		<path fill="#231F20" d="M113.312,22.721c0,0.782,0.122,1.027,0.866,1.027v0.366c-0.451,0.037-0.915,0.073-1.367,0.073
			c-0.734,0-1.101-0.159-1.224-0.88h-0.023c-0.271,0.771-1.198,0.954-1.981,0.954c-1.233,0-1.87-0.759-1.87-1.945
			c0-1.467,1.124-1.588,2.616-1.882c0.28-0.061,0.904-0.232,1.222-0.366v-0.758c0-0.563-0.183-0.967-1.075-0.967
			c-1.662,0-0.306,1.626-1.676,1.626c-0.366,0-0.672-0.134-0.672-0.659c0-1.063,1.455-1.333,2.324-1.333
			c1.637,0,2.86,0.184,2.86,1.847V22.721z M111.55,20.435l-1.05,0.379c-0.661,0.232-1.027,0.587-1.027,1.688
			c0,0.623,0.219,1.173,0.904,1.173c1.161,0,1.173-1.479,1.173-2.188V20.435z"/>
		<path fill="#231F20" d="M114.872,21.854h0.366c0.049,1.1,0.77,2.04,1.833,2.04c0.624,0,1.235-0.244,1.235-0.879
			c0-1.407-3.352-0.782-3.352-3.154c0-1.259,0.967-1.883,2.153-1.883c0.916,0,1.418,0.208,1.894,0.391v1.577h-0.366
			c-0.086-0.854-0.746-1.602-1.613-1.602c-0.489,0-0.893,0.258-0.893,0.759c0,1.246,3.35,0.673,3.35,3.068
			c0,1.356-1.222,2.091-2.457,2.091c-0.929,0-1.698-0.27-2.15-0.428V21.854z"/>
	</g>
</g>
</svg>
