<?xml version="1.0" encoding="utf-8"?>
<!-- Generator: Adobe Illustrator 16.0.4, SVG Export Plug-In . SVG Version: 6.00 Build 0)  -->
<!DOCTYPE svg PUBLIC "-//W3C//DTD SVG 1.1//EN" "http://www.w3.org/Graphics/SVG/1.1/DTD/svg11.dtd">
<svg version="1.1" id="Layer_3" xmlns="http://www.w3.org/2000/svg" xmlns:xlink="http://www.w3.org/1999/xlink" x="0px" y="0px"
	 width="145px" height="145px" viewBox="0 0 145 145" enable-background="new 0 0 145 145" xml:space="preserve">
<g>
	<linearGradient id="SVGID_1_" gradientUnits="userSpaceOnUse" x1="72.5005" y1="141.5127" x2="72.5005" y2="51.4818">
		<stop  offset="0" style="stop-color:#E4A941"/>
		<stop  offset="1" style="stop-color:#FFC943"/>
	</linearGradient>
	<path fill="url(#SVGID_1_)" d="M72.5,143.25c-39.012,0-70.75-31.738-70.75-70.75S33.488,1.75,72.5,1.75s70.75,31.738,70.75,70.75
		S111.512,143.25,72.5,143.25z"/>
	<path fill="#D6D6D6" d="M72.5,2.25c38.736,0,70.25,31.514,70.25,70.25c0,38.736-31.514,70.25-70.25,70.25
		c-38.736,0-70.25-31.514-70.25-70.25C2.25,33.764,33.764,2.25,72.5,2.25 M72.5,1.25c-39.35,0-71.25,31.9-71.25,71.25
		c0,39.351,31.9,71.25,71.25,71.25c39.351,0,71.25-31.899,71.25-71.25C143.75,33.15,111.851,1.25,72.5,1.25L72.5,1.25z"/>
</g>
<g>
	<path fill="#FFFFFF" d="M71.583,28.744c9.874,3.38,15.141,14.139,11.756,24.016L69.015,94.562
		c-3.385,9.883-14.139,15.142-24.021,11.763c-9.886-3.393-15.148-14.146-11.763-24.028l14.32-41.795
		C50.943,30.622,61.697,25.35,71.583,28.744 M72.437,26.22c-11.246-3.854-23.541,2.16-27.397,13.417L30.714,81.432
		c-3.856,11.253,2.166,23.548,13.411,27.404c11.257,3.862,23.548-2.16,27.41-13.417L85.855,53.63
		C89.713,42.374,83.693,30.082,72.437,26.22L72.437,26.22z"/>
	<path fill="#FFFFFF" d="M66.438,93.635c-2.897,8.451-12.095,12.958-20.547,10.061l0,0c-8.446-2.9-12.955-12.092-10.056-20.543
		l7.709-22.504l30.6,10.496L66.438,93.635z"/>
	<path fill="#FFFFFF" d="M62.584,41.093c-0.782,2.277-3.258,3.487-5.543,2.711c-2.275-0.787-3.492-3.263-2.709-5.54
		c0.78-2.284,3.256-3.498,5.54-2.712C62.156,36.326,63.364,38.809,62.584,41.093z"/>
	<path fill="#FFFFFF" d="M75.242,39.718c-0.773,2.278-3.256,3.492-5.537,2.712s-3.49-3.263-2.714-5.542
		c0.787-2.276,3.265-3.496,5.542-2.708C74.816,34.96,76.029,37.442,75.242,39.718z"/>
	<path fill="#FFFFFF" d="M66.72,51.511c-0.786,2.284-3.263,3.492-5.54,2.712c-2.284-0.781-3.498-3.257-2.711-5.542
		c0.774-2.276,3.258-3.492,5.542-2.712C66.287,46.751,67.496,49.229,66.72,51.511z"/>
	<path fill="#FFFFFF" d="M55.988,56.459c-0.782,2.276-3.263,3.487-5.543,2.711c-2.282-0.787-3.492-3.263-2.716-5.54
		c0.787-2.278,3.263-3.498,5.54-2.713C55.552,51.692,56.768,54.175,55.988,56.459z"/>
	<path fill="#FFFFFF" d="M79.68,51.516c-0.779,2.278-3.264,3.5-5.539,2.713c-2.277-0.78-3.493-3.263-2.713-5.542
		c0.783-2.278,3.264-3.492,5.54-2.713C79.247,46.756,80.46,49.238,79.68,51.516z"/>
	<path fill="#FFFFFF" d="M72.038,62.551c-0.78,2.276-3.263,3.5-5.54,2.712c-2.277-0.783-3.493-3.265-2.711-5.542
		c0.78-2.278,3.263-3.492,5.538-2.712C71.605,57.792,72.825,60.273,72.038,62.551z"/>
</g>
<g>
	<path fill="#FFFFFF" d="M79.946,98.312c5.798,10.308,18.37,14.404,28.999,9.844L86.602,68.42
		C77.182,75.135,74.151,88.001,79.946,98.312z"/>
	<path fill="#FFFFFF" d="M119.921,75.833c-5.795-10.307-18.371-14.401-29.003-9.843l22.347,39.737
		C122.685,99.012,125.719,86.146,119.921,75.833z"/>
</g>
</svg>
