<?xml version="1.0" encoding="utf-8"?>
<!-- Generator: Adobe Illustrator 16.0.4, SVG Export Plug-In . SVG Version: 6.00 Build 0)  -->
<!DOCTYPE svg PUBLIC "-//W3C//DTD SVG 1.1//EN" "http://www.w3.org/Graphics/SVG/1.1/DTD/svg11.dtd">
<svg version="1.1" id="Layer_1" xmlns="http://www.w3.org/2000/svg" xmlns:xlink="http://www.w3.org/1999/xlink" x="0px" y="0px"
	 width="145px" height="145px" viewBox="0 0 145 145" enable-background="new 0 0 145 145" xml:space="preserve">
<g>
	<linearGradient id="SVGID_1_" gradientUnits="userSpaceOnUse" x1="72.5005" y1="141.5127" x2="72.5005" y2="51.4818">
		<stop  offset="0" style="stop-color:#47C3D8"/>
		<stop  offset="1" style="stop-color:#85D2E5"/>
	</linearGradient>
	<path fill="url(#SVGID_1_)" d="M72.5,143.25c-39.012,0-70.75-31.738-70.75-70.75S33.488,1.75,72.5,1.75s70.75,31.738,70.75,70.75
		S111.512,143.25,72.5,143.25z"/>
	<path fill="#D6D6D6" d="M72.5,2.25c38.736,0,70.25,31.514,70.25,70.25c0,38.736-31.514,70.25-70.25,70.25
		c-38.736,0-70.25-31.514-70.25-70.25C2.25,33.764,33.764,2.25,72.5,2.25 M72.5,1.25c-39.35,0-71.25,31.9-71.25,71.25
		c0,39.351,31.9,71.25,71.25,71.25c39.351,0,71.25-31.899,71.25-71.25C143.75,33.15,111.851,1.25,72.5,1.25L72.5,1.25z"/>
</g>
<g>
	<path fill="#FFFFFF" d="M115.148,27.667l2.382,3.404c-9.712,7.308-20.517,18.564-32.407,33.769
		C73.23,80.046,64.153,94.251,57.89,107.46l-5.038,3.405c-4.176,2.904-7.013,5.061-8.51,6.468c-0.59-2.133-1.884-5.629-3.881-10.484
		l-1.906-4.427c-2.723-6.354-5.254-11.052-7.591-14.093c-2.338-3.04-4.96-5.061-7.864-6.06c4.902-5.176,9.396-7.762,13.48-7.762
		c3.495,0,7.375,4.743,11.642,14.229l2.111,4.767c7.67-12.937,17.52-25.508,29.548-37.719
		C91.908,43.576,103.665,34.202,115.148,27.667z"/>
</g>
</svg>
