<?xml version="1.0" encoding="utf-8"?>
<!-- Generator: Adobe Illustrator 16.0.4, SVG Export Plug-In . SVG Version: 6.00 Build 0)  -->
<!DOCTYPE svg PUBLIC "-//W3C//DTD SVG 1.1//EN" "http://www.w3.org/Graphics/SVG/1.1/DTD/svg11.dtd">
<svg version="1.1" id="Layer_2" xmlns="http://www.w3.org/2000/svg" xmlns:xlink="http://www.w3.org/1999/xlink" x="0px" y="0px"
	 width="145px" height="145px" viewBox="0 0 145 145" enable-background="new 0 0 145 145" xml:space="preserve">
<g>
	<linearGradient id="SVGID_1_" gradientUnits="userSpaceOnUse" x1="72.5005" y1="141.5127" x2="72.5005" y2="51.4818">
		<stop  offset="0" style="stop-color:#AAE763"/>
		<stop  offset="1" style="stop-color:#C2F389"/>
	</linearGradient>
	<path fill="url(#SVGID_1_)" d="M72.5,143.25c-39.012,0-70.75-31.738-70.75-70.75S33.488,1.75,72.5,1.75s70.75,31.738,70.75,70.75
		S111.512,143.25,72.5,143.25z"/>
	<path fill="#D6D6D6" d="M72.5,2.25c38.736,0,70.25,31.514,70.25,70.25c0,38.736-31.514,70.25-70.25,70.25
		c-38.736,0-70.25-31.514-70.25-70.25C2.25,33.764,33.764,2.25,72.5,2.25 M72.5,1.25c-39.35,0-71.25,31.9-71.25,71.25
		c0,39.351,31.9,71.25,71.25,71.25c39.351,0,71.25-31.899,71.25-71.25C143.75,33.15,111.851,1.25,72.5,1.25L72.5,1.25z"/>
</g>
<path fill="#FFFFFF" d="M102.479,31.006c-6.933,0-12.554,5.62-12.554,12.553c0,0.338,0.019,0.673,0.043,1.005l-8.989,2.997
	c-3.965-8.998-12.957-15.282-23.421-15.282c-14.132,0-25.589,11.457-25.589,25.589c0,14.134,11.457,25.588,25.589,25.588
	c3.381,0,6.606-0.661,9.56-1.854l6.073,10.636c-3.948,3.118-6.485,7.946-6.485,13.366c0,9.407,7.626,17.034,17.032,17.034
	c9.407,0,17.031-7.627,17.031-17.034c0-9.403-7.624-17.03-17.031-17.03c-2.016,0-3.946,0.353-5.741,0.995L71.97,79.012
	c6.748-4.607,11.178-12.357,11.178-21.145c0-1.735-0.177-3.428-0.505-5.066l8.956-2.985c2.167,3.762,6.227,6.295,10.88,6.295
	c6.933,0,12.551-5.62,12.551-12.552C115.03,36.626,109.412,31.006,102.479,31.006z M94.302,105.604
	c0,5.833-4.73,10.562-10.563,10.562s-10.562-4.729-10.562-10.562c0-5.832,4.729-10.562,10.562-10.562S94.302,99.771,94.302,105.604z
	 M57.559,75.595c-9.79,0-17.728-7.937-17.728-17.728c0-9.791,7.938-17.727,17.728-17.727c9.791,0,17.728,7.937,17.728,17.727
	C75.286,67.658,67.349,75.595,57.559,75.595z M102.479,50.888c-4.049,0-7.33-3.281-7.33-7.329c0-4.048,3.281-7.33,7.33-7.33
	c4.046,0,7.328,3.282,7.328,7.33C109.808,47.607,106.525,50.888,102.479,50.888z"/>
</svg>
