<?xml version="1.0" encoding="utf-8"?>
<!-- Generator: Adobe Illustrator 16.0.4, SVG Export Plug-In . SVG Version: 6.00 Build 0)  -->
<!DOCTYPE svg PUBLIC "-//W3C//DTD SVG 1.1//EN" "http://www.w3.org/Graphics/SVG/1.1/DTD/svg11.dtd">
<svg version="1.1" id="Layer_13" xmlns="http://www.w3.org/2000/svg" xmlns:xlink="http://www.w3.org/1999/xlink" x="0px" y="0px"
	 width="75px" height="65px" viewBox="0 0 75 65" enable-background="new 0 0 75 65" xml:space="preserve">
<path fill="#004B91" d="M32.938,33.723c0-2.519,2.042-4.562,4.562-4.562s4.562,2.042,4.562,4.562c0,1.627-0.858,3.045-2.14,3.852
	l0.231,1.449L58.15,28.422H16.85l17.998,10.601l0.231-1.449C33.796,36.768,32.938,35.35,32.938,33.723z"/>
<path fill="#004B91" d="M40.588,41.766l0.982,6.171H33.43l0.982-6.171L14.728,30.172v21.584c0,0.779,0.632,1.41,1.411,1.41h42.724
	c0.779,0,1.411-0.631,1.411-1.41V30.172L40.588,41.766z"/>
<path fill="#004B91" d="M28.218,17.499c0-5.118,4.164-9.282,9.282-9.282s9.282,4.164,9.282,9.282v8.391h5.159v-8.391
	c0-7.963-6.478-14.441-14.441-14.441S23.059,9.536,23.059,17.499v8.391h5.159V17.499z"/>
</svg>
