<?xml version="1.0" encoding="utf-8"?>
<!-- Generator: Adobe Illustrator 16.0.4, SVG Export Plug-In . SVG Version: 6.00 Build 0)  -->
<!DOCTYPE svg PUBLIC "-//W3C//DTD SVG 1.1//EN" "http://www.w3.org/Graphics/SVG/1.1/DTD/svg11.dtd">
<svg version="1.1" id="Layer_12" xmlns="http://www.w3.org/2000/svg" xmlns:xlink="http://www.w3.org/1999/xlink" x="0px" y="0px"
	 width="75px" height="65px" viewBox="0 0 75 65" enable-background="new 0 0 75 65" xml:space="preserve">
<path fill="#004B91" d="M35.773,20.912h5.774l0.795-6.85h-6.569v-2.445c0-1.127,0.603-1.952,1.554-1.952h5.29V2.641h-5.53
	c-4.347,0-7.883,1.724-7.883,6.433v4.989h-4.932v6.85h4.932v7.216c1.927,1.683,4.157,2.977,6.569,3.792V20.912z"/>
<g>
	<path fill="#004B91" d="M58.934,28.688c-1.303,0.578-2.707,0.971-4.179,1.145c1.504-0.901,2.658-2.326,3.201-4.028
		c-1.407,0.835-2.967,1.441-4.625,1.767c-1.327-1.416-3.22-2.299-5.313-2.299c-4.021,0-7.281,3.262-7.281,7.281
		c0,0.569,0.063,1.125,0.189,1.659c-6.053-0.307-11.417-3.201-15.008-7.608c-0.627,1.077-0.986,2.328-0.986,3.664
		c0,2.523,1.285,4.752,3.239,6.056c-1.193-0.035-2.315-0.363-3.297-0.908c0,0.032,0,0.063,0,0.09c0,3.529,2.509,6.472,5.839,7.138
		c-0.61,0.171-1.254,0.258-1.918,0.258c-0.468,0-0.925-0.044-1.369-0.13c0.926,2.892,3.614,4.998,6.8,5.055
		c-2.493,1.953-5.631,3.117-9.042,3.117c-0.588,0-1.168-0.033-1.736-0.101c3.222,2.065,7.05,3.27,11.162,3.27
		c13.393,0,20.714-11.094,20.714-20.714c0-0.317-0.006-0.633-0.02-0.941C56.727,31.428,57.962,30.147,58.934,28.688z"/>
</g>
</svg>
