<?xml version="1.0" encoding="utf-8"?>
<!-- Generator: Adobe Illustrator 16.0.4, SVG Export Plug-In . SVG Version: 6.00 Build 0)  -->
<!DOCTYPE svg PUBLIC "-//W3C//DTD SVG 1.1//EN" "http://www.w3.org/Graphics/SVG/1.1/DTD/svg11.dtd">
<svg version="1.1" id="Layer_3" xmlns="http://www.w3.org/2000/svg" xmlns:xlink="http://www.w3.org/1999/xlink" x="0px" y="0px"
	 width="75px" height="65px" viewBox="0 0 75 65" enable-background="new 0 0 75 65" xml:space="preserve">
<g>
	<path fill="#004B91" d="M40.986,1.371c-14.622,0-26.585,11.59-27.193,26.063l-10.691-2.36l13.981,14.798l13.981-14.798
		l-10.631,2.348c0.607-10.811,9.594-19.419,20.553-19.419c11.351,0,20.586,9.235,20.586,20.588c0,11.351-9.235,20.586-20.586,20.586
		v6.631c15.008,0,27.218-12.21,27.218-27.218S55.994,1.371,40.986,1.371z"/>
	<path fill="#004B91" d="M42.427,31.127l13.715,8.153L43.836,29.242c0.045-0.201,0.071-0.411,0.071-0.625
		c0-1.163-0.694-2.164-1.69-2.614l-1.181-15.917l-1.179,15.917c-0.996,0.45-1.69,1.451-1.69,2.614c0,1.584,1.285,2.871,2.869,2.871
		C41.542,31.487,42.015,31.355,42.427,31.127z"/>
</g>
</svg>
