<?xml version="1.0" encoding="utf-8"?>
<!-- Generator: Adobe Illustrator 16.0.4, SVG Export Plug-In . SVG Version: 6.00 Build 0)  -->
<!DOCTYPE svg PUBLIC "-//W3C//DTD SVG 1.1//EN" "http://www.w3.org/Graphics/SVG/1.1/DTD/svg11.dtd">
<svg version="1.1" id="Layer_15" xmlns="http://www.w3.org/2000/svg" xmlns:xlink="http://www.w3.org/1999/xlink" x="0px" y="0px"
	 width="75px" height="65px" viewBox="0 0 75 65" enable-background="new 0 0 75 65" xml:space="preserve">
<g>
	<path fill="#004B91" d="M22.631,6.493h-0.902c-1.798,0-3.27,1.472-3.27,3.27v4.038c-0.408-0.184-0.859-0.289-1.334-0.289h-0.833
		c-1.798,0-3.27,1.472-3.27,3.27v16.769c0,1.799,1.472,3.271,3.27,3.271h0.833c0.475,0,0.926-0.105,1.334-0.289v4.038
		c0,1.798,1.472,3.27,3.27,3.27h0.902c1.798,0,3.27-1.472,3.27-3.27V9.763C25.901,7.964,24.43,6.493,22.631,6.493z"/>
	<path fill="#004B91" d="M58.538,13.512h-0.833c-0.475,0-0.925,0.104-1.333,0.289V9.763c0-1.798-1.472-3.27-3.271-3.27h-0.902
		c-1.799,0-3.271,1.472-3.271,3.27V40.57c0,1.798,1.472,3.27,3.271,3.27h0.902c1.799,0,3.271-1.472,3.271-3.27v-4.038
		c0.408,0.184,0.859,0.289,1.333,0.289h0.833c1.799,0,3.27-1.472,3.27-3.271V16.782C61.808,14.984,60.337,13.512,58.538,13.512z"/>
	<path fill="#004B91" d="M46.203,22.24H28.626c-0.301,0-0.545,0.244-0.545,0.545v4.763c0,0.301,0.244,0.545,0.545,0.545h17.577
		c0.301,0,0.545-0.245,0.545-0.545v-4.763C46.748,22.484,46.504,22.24,46.203,22.24z"/>
	<path fill="#004B91" d="M10.296,22.24H9.164C8.524,22.24,8,22.73,8,23.33v3.673c0,0.6,0.524,1.09,1.164,1.09h1.133
		c0.301,0,0.545-0.245,0.545-0.545v-4.763C10.841,22.484,10.597,22.24,10.296,22.24z"/>
	<path fill="#004B91" d="M67,23.33c0-0.6-0.524-1.09-1.164-1.09h-1.302c-0.301,0-0.545,0.244-0.545,0.545v4.763
		c0,0.301,0.245,0.545,0.545,0.545h1.304c0.64,0,1.164-0.491,1.163-1.09L67,23.33z"/>
</g>
</svg>
