<?xml version="1.0" encoding="utf-8"?>
<!-- Generator: Adobe Illustrator 16.0.4, SVG Export Plug-In . SVG Version: 6.00 Build 0)  -->
<!DOCTYPE svg PUBLIC "-//W3C//DTD SVG 1.1//EN" "http://www.w3.org/Graphics/SVG/1.1/DTD/svg11.dtd">
<svg version="1.1" id="Layer_6" xmlns="http://www.w3.org/2000/svg" xmlns:xlink="http://www.w3.org/1999/xlink" x="0px" y="0px"
	 width="75px" height="65px" viewBox="0 0 75 65" enable-background="new 0 0 75 65" xml:space="preserve">
<g>
	<circle fill="#004B91" cx="47.351" cy="15.645" r="4.145"/>
	<circle fill="#004B91" cx="33.584" cy="22.471" r="2.871"/>
	<circle fill="#004B91" cx="34.259" cy="10.205" r="2.319"/>
	<path fill="#004B91" d="M54.374,52.114c-2.324-5.927-2.222-8.936-2.179-10.219l0.005-0.148c0.093-3.201,2.671-7.648,3.775-9.413
		c4.032-6.441,4.064-11.87,3.892-13.903l-0.009-0.125C59.541,14.15,57.294,4.285,43.294,2.462c-0.663-0.086-1.749-0.189-3.159-0.189
		c-3.178,0-7.96,0.527-12.698,3.038c-1,0.53-2.411,1.805-3.231,2.733c-0.762,0.863-1.857,2.483-2.391,3.538
		c-0.55,1.086-1.253,2.767-1.567,3.746c-0.313,0.981-0.696,2.588-0.851,3.58c-0.025,0.155-0.053,0.315-0.083,0.481
		c-0.143,0.813-0.305,1.736-0.027,2.257c0.007,0.016,0.018,0.03,0.03,0.048c0.4,0.6,0.703,1.478-0.753,4.326
		c-0.328,0.638-0.844,1.485-1.257,2.165c-0.153,0.253-0.295,0.484-0.409,0.678c-0.424,0.716-1.029,1.773-1.35,2.359
		c-0.028,0.053-0.061,0.108-0.094,0.169c-0.418,0.73-0.632,1.251,0.176,1.862c0.392,0.295,1.114,0.653,1.545,0.766
		c0.742,0.198,1.31,0.805,1.353,1.448c0.026,0.381-0.175,0.78-0.406,1.241c-0.19,0.381-0.509,1.015-0.404,1.245
		c0.034,0.077,0.176,0.155,0.377,0.207c0.76,0.201,0.952,0.591,0.981,0.885c0.041,0.427-0.276,0.783-0.586,0.931
		c-0.187,0.089-0.198,0.166-0.203,0.198c-0.042,0.278,0.307,0.808,0.558,1.042c0.509,0.472,0.99,1.723,0.896,2.831
		c-0.084,0.978-0.262,2.172-0.406,2.719c-0.111,0.42-0.098,1.021-0.013,1.257c0.118,0.331,0.258,0.544,0.634,0.655
		c0.208,0.062,0.933,0.12,1.699,0.182c1.949,0.159,5.213,0.42,7.917,1.277c1.18,0.374,2.444,1.757,1.759,6.223
		c-0.155,1.011-0.593,2.97-1.161,4.227c-0.121,0.267-0.121,0.495,0.002,0.682c0.211,0.33,0.769,0.534,1.456,0.534H57.73
		c0.979,0,1.44-0.271,1.512-0.402c0.018-0.037-0.048-0.137-0.055-0.147C58.618,60.4,54.904,53.469,54.374,52.114z M29.247,10.755
		l0.694-0.226c0.2-0.064,0.367-0.618,0.396-0.81c0.028-0.19-0.102-0.424-0.289-0.52l-0.65-0.333
		c-0.187-0.094-0.26-0.324-0.166-0.511l0.584-1.142c0.094-0.185,0.324-0.26,0.509-0.164l0.652,0.331
		c0.187,0.096,0.701-0.182,0.854-0.295c0.151-0.116,0.224-0.37,0.16-0.568l-0.224-0.696c-0.064-0.198,0.044-0.413,0.246-0.479
		l1.218-0.395c0.199-0.064,0.415,0.046,0.479,0.246l0.224,0.694c0.066,0.199,0.62,0.367,0.81,0.395
		c0.19,0.027,0.426-0.101,0.52-0.288l0.333-0.65c0.094-0.185,0.324-0.26,0.511-0.166l1.142,0.584
		c0.185,0.094,0.26,0.324,0.166,0.511l-0.333,0.652c-0.094,0.185,0.183,0.7,0.295,0.851c0.116,0.153,0.37,0.228,0.57,0.164
		l0.694-0.226c0.199-0.066,0.413,0.044,0.479,0.244l0.394,1.221c0.064,0.198-0.045,0.413-0.244,0.477l-0.694,0.226
		c-0.199,0.062-0.367,0.616-0.395,0.809c-0.027,0.19,0.101,0.425,0.288,0.52l0.65,0.332c0.187,0.096,0.262,0.326,0.166,0.511
		l-0.584,1.143c-0.094,0.185-0.324,0.26-0.511,0.166l-0.65-0.333c-0.187-0.094-0.702,0.184-0.854,0.297
		c-0.151,0.112-0.226,0.369-0.161,0.568l0.225,0.694c0.064,0.2-0.046,0.415-0.244,0.479l-1.219,0.394
		c-0.2,0.064-0.415-0.046-0.479-0.244l-0.225-0.696c-0.064-0.198-0.618-0.365-0.81-0.392c-0.19-0.03-0.423,0.1-0.52,0.287
		l-0.333,0.65c-0.095,0.187-0.324,0.262-0.511,0.166l-1.141-0.584c-0.185-0.095-0.26-0.324-0.166-0.511l0.333-0.65
		c0.096-0.185-0.182-0.7-0.296-0.854c-0.116-0.153-0.37-0.224-0.569-0.16l-0.694,0.224c-0.2,0.064-0.415-0.046-0.479-0.244
		l-0.394-1.22C28.939,11.033,29.047,10.818,29.247,10.755z M40.143,23.444l-0.418,1.529c-0.068,0.25-0.33,0.397-0.577,0.33
		l-0.874-0.239c-0.249-0.067-0.803,0.399-0.959,0.575s-0.18,0.506-0.052,0.728l0.449,0.787c0.128,0.226,0.048,0.513-0.176,0.641
		l-1.378,0.787c-0.225,0.126-0.513,0.048-0.643-0.174l-0.448-0.785c-0.128-0.226-0.841-0.289-1.079-0.274
		c-0.239,0.015-0.49,0.23-0.557,0.479L33.19,28.7c-0.069,0.249-0.328,0.397-0.579,0.33l-1.529-0.418
		c-0.251-0.068-0.399-0.328-0.331-0.579l0.24-0.873c0.067-0.248-0.399-0.801-0.577-0.958c-0.176-0.157-0.504-0.18-0.73-0.052
		l-0.785,0.449c-0.224,0.126-0.513,0.046-0.641-0.176l-0.787-1.378c-0.126-0.226-0.048-0.515,0.176-0.643l0.785-0.449
		c0.226-0.128,0.287-0.84,0.272-1.079c-0.013-0.24-0.229-0.489-0.479-0.559l-0.873-0.238c-0.249-0.069-0.397-0.328-0.329-0.579
		l0.418-1.529c0.069-0.25,0.328-0.397,0.577-0.33l0.874,0.239c0.25,0.067,0.801-0.399,0.96-0.575c0.157-0.178,0.18-0.506,0.052-0.73
		l-0.449-0.785c-0.128-0.226-0.048-0.513,0.176-0.641l1.378-0.787c0.226-0.128,0.513-0.05,0.641,0.176l0.448,0.785
		c0.128,0.225,0.842,0.287,1.081,0.272c0.238-0.014,0.489-0.229,0.557-0.479l0.239-0.873c0.067-0.251,0.328-0.399,0.579-0.331
		l1.531,0.418c0.247,0.069,0.397,0.329,0.329,0.579l-0.24,0.872c-0.068,0.25,0.399,0.803,0.575,0.96
		c0.178,0.158,0.505,0.182,0.73,0.053l0.785-0.449c0.226-0.128,0.514-0.05,0.643,0.174l0.785,1.38
		c0.128,0.225,0.05,0.513-0.174,0.639l-0.785,0.449c-0.225,0.128-0.287,0.842-0.274,1.083c0.014,0.237,0.231,0.488,0.481,0.556
		l0.872,0.238C40.063,22.934,40.21,23.193,40.143,23.444z M49.989,22.198c-0.322,0.119-0.575,0.523-0.564,0.897l0.044,1.305
		c0.013,0.374-0.283,0.689-0.655,0.702l-2.29,0.077c-0.372,0.012-0.687-0.282-0.7-0.655l-0.044-1.305
		c-0.013-0.374-0.892-0.935-1.202-1.077c-0.312-0.141-0.774-0.032-1.029,0.24l-0.892,0.953c-0.252,0.271-0.686,0.287-0.958,0.032
		l-1.674-1.565c-0.271-0.255-0.287-0.688-0.032-0.96l0.892-0.953c0.255-0.272,0.038-1.284-0.083-1.604
		c-0.123-0.324-0.527-0.579-0.899-0.566l-1.305,0.044c-0.374,0.012-0.691-0.283-0.702-0.655l-0.077-2.29
		c-0.012-0.372,0.283-0.689,0.655-0.702l1.305-0.042c0.374-0.013,0.937-0.894,1.077-1.202c0.141-0.312,0.032-0.774-0.24-1.029
		l-0.953-0.892c-0.272-0.254-0.287-0.686-0.032-0.958l1.565-1.672c0.255-0.272,0.686-0.288,0.958-0.034l0.953,0.892
		c0.274,0.256,1.284,0.038,1.606-0.083c0.324-0.123,0.577-0.527,0.564-0.899L45.235,6.89c-0.012-0.372,0.283-0.688,0.655-0.7
		l2.29-0.077c0.372-0.012,0.688,0.281,0.7,0.655l0.044,1.305c0.013,0.374,0.892,0.937,1.202,1.077
		c0.31,0.139,0.772,0.032,1.029-0.241l0.89-0.952c0.256-0.272,0.688-0.289,0.96-0.032l1.673,1.565
		c0.271,0.255,0.287,0.688,0.03,0.958l-0.89,0.953c-0.256,0.272-0.038,1.284,0.083,1.606c0.123,0.322,0.527,0.577,0.899,0.564
		l1.305-0.042c0.374-0.013,0.689,0.283,0.702,0.655l0.077,2.29c0.012,0.372-0.283,0.686-0.655,0.7l-1.305,0.044
		c-0.374,0.011-0.937,0.892-1.077,1.202c-0.141,0.312-0.032,0.774,0.239,1.029l0.954,0.89c0.272,0.256,0.287,0.687,0.032,0.959
		l-1.565,1.672c-0.253,0.272-0.686,0.289-0.958,0.034l-0.954-0.892C51.322,21.858,50.312,22.075,49.989,22.198z"/>
</g>
</svg>
