<?xml version="1.0" encoding="utf-8"?>
<!-- Generator: Adobe Illustrator 16.0.4, SVG Export Plug-In . SVG Version: 6.00 Build 0)  -->
<!DOCTYPE svg PUBLIC "-//W3C//DTD SVG 1.1//EN" "http://www.w3.org/Graphics/SVG/1.1/DTD/svg11.dtd">
<svg version="1.1" id="Layer_11" xmlns="http://www.w3.org/2000/svg" xmlns:xlink="http://www.w3.org/1999/xlink" x="0px" y="0px"
	 width="75px" height="65px" viewBox="0 0 75 65" enable-background="new 0 0 75 65" xml:space="preserve">
<path fill="#004B91" d="M50.831,4.093H24.169c-2.454,0-4.443,1.99-4.443,4.444v44.436c0,2.454,1.99,4.444,4.443,4.444h26.662
	c2.454,0,4.443-1.99,4.443-4.444V8.537C55.274,6.083,53.285,4.093,50.831,4.093z M34.445,7.426h7.221
	c0.614,0,1.111,0.497,1.111,1.111c0,0.614-0.497,1.111-1.111,1.111h-7.221c-0.614,0-1.111-0.497-1.111-1.111
	C33.334,7.923,33.831,7.426,34.445,7.426z M37.5,55.473c-1.38,0-2.5-1.12-2.5-2.5c0-1.38,1.12-2.5,2.5-2.5s2.5,1.12,2.5,2.5
	C40,54.353,38.88,55.473,37.5,55.473z M50.831,47.418c0,0.614-0.497,1.111-1.111,1.111H25.28c-0.614,0-1.111-0.497-1.111-1.111
	V14.091c0-0.614,0.497-1.111,1.111-1.111H49.72c0.614,0,1.111,0.497,1.111,1.111V47.418z"/>
</svg>
