<?xml version="1.0" encoding="utf-8"?>
<!-- Generator: Adobe Illustrator 16.0.4, SVG Export Plug-In . SVG Version: 6.00 Build 0)  -->
<!DOCTYPE svg PUBLIC "-//W3C//DTD SVG 1.1//EN" "http://www.w3.org/Graphics/SVG/1.1/DTD/svg11.dtd">
<svg version="1.1" id="Layer_5" xmlns="http://www.w3.org/2000/svg" xmlns:xlink="http://www.w3.org/1999/xlink" x="0px" y="0px"
	 width="75px" height="65px" viewBox="0 0 75 65" enable-background="new 0 0 75 65" xml:space="preserve">
<g>
	<path fill="#004B91" d="M69.962,7.444c-0.872-1.51-3.157-2.083-6.442-1.832c-2.405,0.183-5.348,0.81-8.666,1.835
		c0.052,0.043,0.104,0.087,0.157,0.132c3.375-0.823,6.126-1.055,7.958-0.616c1.032,0.248,1.775,0.707,2.171,1.396
		c1.008,1.744-0.357,4.673-3.464,8.16c-0.453,0.509-0.945,1.029-1.47,1.558c-1.903,1.924-4.267,3.977-7,6.07
		c-0.618,0.471-1.252,0.945-1.907,1.42c-0.162,0.119-0.326,0.237-0.492,0.354c-0.913,0.656-1.856,1.313-2.833,1.968h5.277
		c0.922-0.656,1.814-1.313,2.676-1.968c1.955-1.483,3.752-2.953,5.362-4.384c0.574-0.509,1.122-1.013,1.647-1.51
		C68.607,14.652,71.428,9.982,69.962,7.444z"/>
	<g>
		<path fill="#004B91" d="M63.446,22.245c-0.562,0.515-1.149,1.033-1.751,1.553c0.089,0.699,0.148,1.408,0.174,2.125h-2.735
			c-0.82,0.656-1.669,1.312-2.543,1.968h5.268c-0.171,3.712-1.212,7.197-2.92,10.258H51.76c0.698-2.428,1.164-5.05,1.383-7.774
			c0.012-0.154,0.023-0.307,0.035-0.462h-1.971c-0.047,0.646-0.11,1.28-0.185,1.907c-0.271,2.249-0.717,4.376-1.315,6.33h-4.146
			l-1.038,1.798l-0.098,0.169h4.609c-2.133,5.592-5.572,9.4-9.51,9.948v-9.948h1.619l-0.096-0.169l-0.914-1.582
			c-1.117,0.605-2.228,1.189-3.329,1.751h0.754v9.948c-3.084-0.429-5.859-2.854-7.942-6.569c-0.614,0.265-1.224,0.522-1.826,0.766
			c1.052,1.917,2.254,3.508,3.569,4.743c-2.459-0.793-4.741-1.987-6.768-3.499c-0.743,0.272-1.472,0.527-2.189,0.768
			C26.787,49.909,32.412,52.1,38.54,52.1c13.958,0,25.314-11.355,25.314-25.314C63.854,25.237,63.712,23.719,63.446,22.245z
			 M45.723,49.003c1.319-1.24,2.526-2.836,3.581-4.764c0.696-1.271,1.305-2.657,1.827-4.124h6.576
			C54.822,44.257,50.626,47.419,45.723,49.003z"/>
		<path fill="#004B91" d="M18.144,38.148c-1.471-2.637-2.446-5.589-2.798-8.727c0.001-0.001,0.003-0.003,0.005-0.005
			c-0.001,0.001-0.003,0.003-0.005,0.005c-0.058-0.506-0.1-1.017-0.124-1.531h8.584c0.083,3.459,0.568,6.794,1.402,9.841
			c0.604-0.233,1.216-0.479,1.835-0.738c-0.74-2.771-1.188-5.851-1.27-9.104h11.785v0.016h0.012h1.954V27.89h4.849
			c1.026-0.649,2.027-1.307,3-1.968h-7.85V15.666h10.258c0.686,2.312,1.166,4.856,1.39,7.557c0.63-0.471,1.242-0.94,1.837-1.41
			c-0.242-2.14-0.638-4.204-1.181-6.147h7.244c0.089,0.164,0.174,0.33,0.26,0.496c0.527-0.551,0.989-1.066,1.397-1.547
			c-1.474-2.676-3.417-5.057-5.718-7.033c-0.052-0.045-0.104-0.089-0.157-0.132c-4.41-3.726-10.104-5.975-16.315-5.975
			c-13.957,0-25.312,11.355-25.312,25.312c0,1.42,0.12,2.814,0.347,4.169c0.005,0.041,0.012,0.079,0.019,0.117
			c0.57,3.333,1.793,6.445,3.534,9.2c2.083-0.459,4.441-1.179,6.984-2.123H18.144z M57.875,13.698h-6.66
			c-0.539-1.558-1.176-3.023-1.91-4.364c-1.055-1.927-2.262-3.525-3.581-4.766C50.723,6.184,54.984,9.437,57.875,13.698z
			 M39.524,3.507c3.995,0.557,7.476,4.466,9.603,10.19h-9.603V3.507z M37.558,25.922h-11.79c0.075-3.703,0.619-7.188,1.531-10.257
			h10.259V25.922z M37.558,3.507v10.19h-9.603C30.082,7.973,33.562,4.064,37.558,3.507z M31.358,4.568
			c-1.32,1.24-2.527,2.838-3.583,4.766c-0.733,1.341-1.37,2.807-1.909,4.364h-6.66C22.096,9.437,26.359,6.184,31.358,4.568z
			 M18.009,15.666h7.244c-0.884,3.165-1.382,6.648-1.451,10.257h-8.589C15.347,22.219,16.343,18.734,18.009,15.666z"/>
	</g>
	<path fill="#004B91" d="M48,29.912H37.57l1.854,3.215c-15.108,8.439-28.888,12.062-31.184,8.085
		c-1.195-2.067,0.942-5.793,5.354-10.14c-0.007-0.039-0.014-0.077-0.019-0.117c-6.67,5.954-10.128,11.22-8.539,13.974
		c2.667,4.619,18.542,0.479,35.871-9.236l1.877,3.251L48,29.912z"/>
</g>
</svg>
