<?xml version="1.0" encoding="utf-8"?>
<!-- Generator: Adobe Illustrator 16.0.4, SVG Export Plug-In . SVG Version: 6.00 Build 0)  -->
<!DOCTYPE svg PUBLIC "-//W3C//DTD SVG 1.1//EN" "http://www.w3.org/Graphics/SVG/1.1/DTD/svg11.dtd">
<svg version="1.1" id="Layer_1" xmlns="http://www.w3.org/2000/svg" xmlns:xlink="http://www.w3.org/1999/xlink" x="0px" y="0px"
	 width="17px" height="17px" viewBox="0 0 17 17" enable-background="new 0 0 17 17" xml:space="preserve">
<path fill="#0E4D90" d="M12.297,14.287c0,0.087-0.072,0.159-0.159,0.159H2.733c-0.087,0-0.159-0.072-0.159-0.159V4.882
	c0-0.087,0.072-0.159,0.159-0.159h6.99l1.594-1.594H2.733c-0.967,0-1.753,0.787-1.753,1.753v9.405c0,0.967,0.787,1.753,1.753,1.753
	h9.405c0.967,0,1.753-0.787,1.753-1.753V6.442l-1.594,1.595V14.287z"/>
<polygon fill="#0E4D90" points="10.371,1.055 12.444,3.128 5.655,9.918 7.472,11.734 14.261,4.945 16.292,6.976 16.292,1.055 "/>
</svg>
