<?xml version="1.0" encoding="utf-8"?>
<!-- Generator: Adobe Illustrator 16.0.4, SVG Export Plug-In . SVG Version: 6.00 Build 0)  -->
<!DOCTYPE svg PUBLIC "-//W3C//DTD SVG 1.1//EN" "http://www.w3.org/Graphics/SVG/1.1/DTD/svg11.dtd">
<svg version="1.1" id="Layer_8" xmlns="http://www.w3.org/2000/svg" xmlns:xlink="http://www.w3.org/1999/xlink" x="0px" y="0px"
	 width="75px" height="65px" viewBox="0 0 75 65" enable-background="new 0 0 75 65" xml:space="preserve">
<g>
	<path fill="#004B91" d="M69.613,1.018l1.641,2.344c-6.69,5.034-14.131,12.787-22.322,23.26
		C40.741,37.095,34.488,46.88,30.173,55.978l-3.47,2.345c-2.877,2.001-4.83,3.487-5.862,4.456c-0.407-1.469-1.298-3.876-2.673-7.222
		l-1.313-3.047c-1.876-4.376-3.619-7.612-5.228-9.708c-1.611-2.093-3.417-3.485-5.417-4.173c3.376-3.565,6.472-5.346,9.286-5.346
		c2.407,0,5.08,3.266,8.019,9.801l1.454,3.283c5.283-8.911,12.068-17.569,20.353-25.981C53.605,11.975,61.703,5.519,69.613,1.018z"
		/>
</g>
</svg>
