<?xml version="1.0" encoding="utf-8"?>
<!-- Generator: Adobe Illustrator 16.0.4, SVG Export Plug-In . SVG Version: 6.00 Build 0)  -->
<!DOCTYPE svg PUBLIC "-//W3C//DTD SVG 1.1//EN" "http://www.w3.org/Graphics/SVG/1.1/DTD/svg11.dtd">
<svg version="1.1" id="Icon" xmlns="http://www.w3.org/2000/svg" xmlns:xlink="http://www.w3.org/1999/xlink" x="0px" y="0px"
	 width="75px" height="65px" viewBox="0 0 75 65" enable-background="new 0 0 75 65" xml:space="preserve">
<g>
	<g>
		<path fill="#004B91" d="M34.349,3.732c6.418,2.195,9.841,9.189,7.641,15.609l-9.31,27.172c-2.201,6.424-9.19,9.842-15.614,7.646
			c-6.425-2.205-9.846-9.194-7.645-15.619l9.308-27.166C20.934,4.952,27.923,1.525,34.349,3.732 M34.903,2.091
			c-7.309-2.506-15.3,1.404-17.807,8.721L7.784,37.978c-2.506,7.314,1.408,15.306,8.717,17.812
			c7.317,2.511,15.306-1.404,17.816-8.72l9.308-27.163C46.133,12.59,42.221,4.6,34.903,2.091L34.903,2.091z"/>
		<path fill="#004B91" d="M31.005,45.91c-1.884,5.493-7.862,8.423-13.356,6.54l0,0c-5.489-1.886-8.42-7.861-6.535-13.354
			l5.01-14.627l19.89,6.822L31.005,45.91z"/>
		<path fill="#004B91" d="M28.499,11.758c-0.507,1.479-2.117,2.266-3.602,1.761c-1.479-0.511-2.27-2.121-1.762-3.601
			c0.507-1.483,2.117-2.273,3.6-1.763C28.221,8.659,29.006,10.273,28.499,11.758z"/>
		<path fill="#004B91" d="M36.727,10.865c-0.502,1.48-2.116,2.269-3.599,1.763c-1.482-0.507-2.268-2.122-1.764-3.603
			c0.512-1.48,2.122-2.272,3.602-1.761C36.451,7.771,37.239,9.385,36.727,10.865z"/>
		<path fill="#004B91" d="M31.188,18.529c-0.511,1.485-2.121,2.271-3.601,1.763c-1.485-0.508-2.274-2.118-1.763-3.601
			c0.504-1.48,2.118-2.271,3.603-1.763C30.906,15.436,31.693,17.045,31.188,18.529z"/>
		<path fill="#004B91" d="M24.212,21.746c-0.508,1.48-2.122,2.266-3.603,1.761c-1.483-0.51-2.27-2.12-1.765-3.599
			c0.51-1.482,2.121-2.273,3.6-1.765C23.929,18.647,24.719,20.261,24.212,21.746z"/>
		<circle fill="#004B91" cx="36.93" cy="17.614" r="2.835"/>
		<circle fill="#004B91" cx="31.963" cy="24.786" r="2.834"/>
	</g>
	<g>
		<path fill="#004B91" d="M39.785,48.95c3.769,6.699,11.941,9.363,18.849,6.398L44.111,29.521
			C37.988,33.885,36.019,42.247,39.785,48.95z"/>
		<path fill="#004B91" d="M65.769,34.339c-3.767-6.701-11.941-9.361-18.852-6.399l14.526,25.829
			C67.565,49.405,69.537,41.042,65.769,34.339z"/>
	</g>
</g>
</svg>
