<?xml version="1.0" encoding="utf-8"?>
<!-- Generator: Adobe Illustrator 16.0.4, SVG Export Plug-In . SVG Version: 6.00 Build 0)  -->
<!DOCTYPE svg PUBLIC "-//W3C//DTD SVG 1.1//EN" "http://www.w3.org/Graphics/SVG/1.1/DTD/svg11.dtd">
<svg version="1.1" id="Layer_14" xmlns="http://www.w3.org/2000/svg" xmlns:xlink="http://www.w3.org/1999/xlink" x="0px" y="0px"
	 width="75px" height="65px" viewBox="0 0 75 65" enable-background="new 0 0 75 65" xml:space="preserve">
<g>
	<path fill="#004B91" d="M43.757,22.874c-1.675,0-4.825,1.024-6.441,1.024c-1.615,0-4.766-1.024-6.44-1.024
		c-8.232,0-13.25,3.922-13.25,13.527c0,9.604,8.954,21.254,14.906,21.254c1.484,0,2.917-0.257,4.269-0.728
		c0.286-0.101,0.746-0.101,1.035,0c1.352,0.471,2.782,0.728,4.266,0.728c5.953,0,14.906-11.65,14.906-21.254
		C57.007,26.796,51.989,22.874,43.757,22.874z"/>
	<path fill="#004B91" d="M36.204,21.097c0.133,0.273,0.431,0.533,0.672,0.562c0.168,0.018,0.317,0.03,0.439,0.03
		c0.037,0,0.076-0.001,0.117-0.003c0.065-0.003,0.354-0.068,0.645-0.144c0.292-0.075,0.471-0.379,0.393-0.673
		c-0.417-1.563-1.845-6.149-5.282-9.048c-0.232-0.197-0.582-0.15-0.767,0.091l-1.292,1.675c-0.187,0.241-0.139,0.586,0.094,0.782
		C33.766,16.501,35.487,19.623,36.204,21.097z"/>
	<path fill="#004B91" d="M39.697,17.495c1.813,0.38,7.821,1.325,12.061-1.667c4.238-2.993,5.361-8.97,5.612-10.805
		c0.041-0.304-0.176-0.611-0.476-0.674c-1.813-0.378-7.821-1.325-12.061,1.668c-4.239,2.991-5.36,8.969-5.61,10.805
		C39.18,17.125,39.398,17.432,39.697,17.495z"/>
</g>
</svg>
