<?xml version="1.0" encoding="utf-8"?>
<!-- Generator: Adobe Illustrator 16.0.4, SVG Export Plug-In . SVG Version: 6.00 Build 0)  -->
<!DOCTYPE svg PUBLIC "-//W3C//DTD SVG 1.1//EN" "http://www.w3.org/Graphics/SVG/1.1/DTD/svg11.dtd">
<svg version="1.1" id="Layer_12" xmlns="http://www.w3.org/2000/svg" xmlns:xlink="http://www.w3.org/1999/xlink" x="0px" y="0px"
	 width="30px" height="30px" viewBox="22.5 17.5 30 30" enable-background="new 22.5 17.5 30 30" xml:space="preserve">
<g>
	<path fill="#FFFFFF" d="M46.742,27.639c-0.649,0.288-1.35,0.483-2.083,0.571c0.749-0.449,1.326-1.16,1.595-2.007
		c-0.7,0.416-1.479,0.718-2.304,0.88c-0.662-0.705-1.604-1.145-2.648-1.145c-2.003,0-3.628,1.625-3.628,3.627
		c0,0.283,0.032,0.562,0.095,0.827c-3.016-0.153-5.689-1.595-7.479-3.792c-0.312,0.537-0.491,1.161-0.491,1.826
		c0,1.257,0.64,2.368,1.614,3.018c-0.594-0.018-1.153-0.181-1.643-0.453c0,0.016,0,0.032,0,0.045c0,1.758,1.25,3.224,2.91,3.557
		c-0.304,0.085-0.625,0.128-0.956,0.128c-0.233,0-0.461-0.021-0.682-0.064c0.461,1.44,1.801,2.49,3.389,2.52
		c-1.243,0.973-2.806,1.553-4.506,1.553c-0.293,0-0.582-0.017-0.864-0.05c1.605,1.028,3.513,1.628,5.562,1.628
		c6.672,0,10.323-5.528,10.323-10.32c0-0.159-0.004-0.316-0.012-0.469C45.643,29.004,46.258,28.366,46.742,27.639z"/>
</g>
<path opacity="0.4" d="M46.254,26.202c-0.269,0.848-0.846,1.558-1.595,2.007c0.733-0.087,1.434-0.283,2.083-0.571
	c-0.484,0.727-1.1,1.365-1.81,1.879c0.008,0.153,0.012,0.31,0.012,0.469c0,4.792-3.65,10.32-10.323,10.32
	c-2.049,0-3.957-0.6-5.562-1.628l8.841,8.841L52.5,47.5V32.448L46.254,26.202z"/>
</svg>
