<?xml version="1.0" encoding="utf-8"?>
<!-- Generator: Adobe Illustrator 16.0.4, SVG Export Plug-In . SVG Version: 6.00 Build 0)  -->
<!DOCTYPE svg PUBLIC "-//W3C//DTD SVG 1.1//EN" "http://www.w3.org/Graphics/SVG/1.1/DTD/svg11.dtd">
<svg version="1.1" id="Layer_9" xmlns="http://www.w3.org/2000/svg" xmlns:xlink="http://www.w3.org/1999/xlink" x="0px" y="0px"
	 width="75px" height="65px" viewBox="0 0 75 65" enable-background="new 0 0 75 65" xml:space="preserve">
<g>
	<path fill="#004B91" d="M62.765,31.832H60.42v-3.623c0-8.744-7.089-15.833-15.834-15.833h-3.159v-1.702h-1.596V9.127
		c0.621-0.609,1.008-1.457,1.008-2.395c0-1.68-1.238-3.069-2.852-3.314V2.739h2.653V1.616h-2.653h-0.923H34.41v1.123h2.655v0.667
		c-1.655,0.207-2.935,1.615-2.935,3.326c0,0.979,0.42,1.857,1.089,2.472v1.47h-1.594v1.702h-3.409
		c-8.746,0-15.834,7.089-15.834,15.833v3.623h-2.343v3.75h50.726V31.832z"/>
	<path fill="#004B91" d="M62.429,37.431H12.571c-0.701,3.377-3.286,6.057-6.603,6.912v5.082h63.064v-5.082
		C65.713,43.488,63.13,40.808,62.429,37.431z"/>
</g>
</svg>
