<?xml version="1.0" encoding="utf-8"?>
<!-- Generator: Adobe Illustrator 16.0.4, SVG Export Plug-In . SVG Version: 6.00 Build 0)  -->
<!DOCTYPE svg PUBLIC "-//W3C//DTD SVG 1.1//EN" "http://www.w3.org/Graphics/SVG/1.1/DTD/svg11.dtd">
<svg version="1.1" id="Layer_1" xmlns="http://www.w3.org/2000/svg" xmlns:xlink="http://www.w3.org/1999/xlink" x="0px" y="0px"
	 width="18px" height="35px" viewBox="0.062 0 18 35" enable-background="new 0.062 0 18 35" xml:space="preserve">
<g>
	
		<linearGradient id="SVGID_1_" gradientUnits="userSpaceOnUse" x1="596.0625" y1="794.9043" x2="596.0625" y2="781.4187" gradientTransform="matrix(1 0 0 1 -587 -757)">
		<stop  offset="0.2754" style="stop-color:#FFFFFF;stop-opacity:0"/>
		<stop  offset="0.9802" style="stop-color:#A1A1A1"/>
	</linearGradient>
	<path fill="url(#SVGID_1_)" d="M14.688,46.656H3.438c-1.035,0-1.874-0.844-1.874-1.877V26.034c0-1.038,0.839-1.876,1.874-1.876
		h11.25c1.035,0,1.874,0.838,1.874,1.876v18.745C16.562,45.812,15.723,46.656,14.688,46.656z M7.772,45.248h3.048
		c0.261,0,0.468-0.211,0.468-0.469c0-0.26-0.207-0.471-0.468-0.471H7.772c-0.258,0-0.468,0.211-0.468,0.471
		C7.305,45.037,7.516,45.248,7.772,45.248z M9.063,24.979c-0.582,0-1.057,0.472-1.057,1.057c0,0.581,0.475,1.055,1.057,1.055
		s1.057-0.474,1.057-1.055C10.12,25.449,9.646,24.979,9.063,24.979z M14.688,28.374c0-0.257-0.21-0.468-0.47-0.468H3.906
		c-0.259,0-0.469,0.211-0.469,0.468v14.063c0,0.256,0.21,0.467,0.469,0.467h10.312c0.26,0,0.47-0.211,0.47-0.467V28.374z"/>
	<path fill="#858585" d="M14.688,1.189H3.438c-1.035,0-1.874,0.84-1.874,1.875v18.749c0,1.037,0.839,1.875,1.874,1.875h11.25
		c1.035,0,1.874-0.84,1.874-1.875V3.064C16.562,2.029,15.723,1.189,14.688,1.189z M7.772,2.596h3.048
		c0.261,0,0.468,0.209,0.468,0.468c0,0.26-0.207,0.469-0.468,0.469H7.772c-0.258,0-0.468-0.208-0.468-0.469
		C7.305,2.805,7.516,2.596,7.772,2.596z M9.063,22.866c-0.582,0-1.057-0.472-1.057-1.056c0-0.582,0.475-1.054,1.057-1.054
		s1.057,0.472,1.057,1.054C10.12,22.396,9.646,22.866,9.063,22.866z M14.688,19.469c0,0.26-0.21,0.471-0.47,0.471H3.906
		c-0.259,0-0.469-0.211-0.469-0.471V5.407c0-0.26,0.21-0.469,0.469-0.469h10.312c0.26,0,0.47,0.209,0.47,0.469V19.469z"/>
</g>
</svg>
