<?xml version="1.0" encoding="utf-8"?>
<!-- Generator: Adobe Illustrator 16.0.4, SVG Export Plug-In . SVG Version: 6.00 Build 0)  -->
<!DOCTYPE svg PUBLIC "-//W3C//DTD SVG 1.1//EN" "http://www.w3.org/Graphics/SVG/1.1/DTD/svg11.dtd">
<svg version="1.1" id="Layer_2" xmlns="http://www.w3.org/2000/svg" xmlns:xlink="http://www.w3.org/1999/xlink" x="0px" y="0px"
	 width="25px" height="35px" viewBox="0 0 25 35" enable-background="new 0 0 25 35" xml:space="preserve">
<g>
	<g>
		<path fill="#858585" d="M11.346,3.352c2.462,0.843,3.777,3.526,2.93,5.991l-3.571,10.426c-0.844,2.464-3.525,3.775-5.991,2.933
			c-2.466-0.848-3.778-3.528-2.931-5.993l3.57-10.423C6.201,3.822,8.879,2.506,11.346,3.352 M11.56,2.724
			C8.755,1.763,5.688,3.262,4.727,6.069L1.153,16.492c-0.96,2.806,0.542,5.873,3.345,6.836c2.809,0.961,5.874-0.541,6.836-3.347
			L14.905,9.56C15.868,6.753,14.366,3.687,11.56,2.724L11.56,2.724z"/>
		<path fill="#858585" d="M10.063,19.537c-0.725,2.108-3.016,3.232-5.125,2.51l0,0c-2.106-0.725-3.229-3.017-2.507-5.125
			l1.921-5.612l7.633,2.617L10.063,19.537z"/>
		<circle fill="#858585" cx="8.075" cy="6.08" r="1.088"/>
		<circle fill="#858585" cx="11.229" cy="5.737" r="1.087"/>
		<circle fill="#858585" cx="9.105" cy="8.678" r="1.088"/>
		<circle fill="#858585" cx="6.428" cy="9.912" r="1.088"/>
		<circle fill="#858585" cx="12.337" cy="8.679" r="1.086"/>
		<circle fill="#858585" cx="10.432" cy="11.432" r="1.087"/>
	</g>
	<g>
		<path fill="#858585" d="M13.432,20.703c1.446,2.57,4.582,3.593,7.231,2.456l-5.573-9.912
			C12.742,14.922,11.987,18.132,13.432,20.703z"/>
		<path fill="#858585" d="M23.402,15.096c-1.446-2.57-4.582-3.592-7.233-2.455l5.572,9.911
			C24.091,20.877,24.848,17.669,23.402,15.096z"/>
	</g>
	
		<linearGradient id="SVGID_1_" gradientUnits="userSpaceOnUse" x1="306" y1="-388.0698" x2="306" y2="-368.0279" gradientTransform="matrix(1 0 0 -1 -293.5 -343.5)">
		<stop  offset="0.4638" style="stop-color:#FFFFFF;stop-opacity:0"/>
		<stop  offset="1" style="stop-color:#A1A1A1"/>
	</linearGradient>
	<path fill="url(#SVGID_1_)" d="M11.346,44.297c-2.467,0.843-5.146-0.471-5.993-2.936l-3.57-10.424
		c-0.846-2.465,0.467-5.146,2.931-5.991c2.466-0.844,5.146,0.471,5.991,2.933l3.571,10.424
		C15.123,40.769,13.809,43.451,11.346,44.297 M11.56,44.923c2.806-0.959,4.308-4.029,3.345-6.835l-3.571-10.422
		c-0.962-2.806-4.029-4.308-6.836-3.346c-2.804,0.962-4.306,4.029-3.345,6.836l3.573,10.421C5.688,44.382,8.755,45.884,11.56,44.923
		L11.56,44.923z M10.063,28.11c-0.725-2.108-3.016-3.229-5.125-2.509l0,0c-2.106,0.722-3.229,3.016-2.507,5.124l1.921,5.61
		l7.633-2.615L10.063,28.11z M9.104,41.214c-0.195-0.568-0.813-0.87-1.383-0.677c-0.567,0.195-0.871,0.813-0.674,1.382
		c0.194,0.568,0.812,0.873,1.381,0.678C8.995,42.4,9.297,41.783,9.104,41.214z M12.258,41.558c-0.192-0.566-0.811-0.871-1.379-0.674
		c-0.568,0.193-0.871,0.813-0.675,1.378c0.195,0.568,0.813,0.871,1.38,0.678C12.152,42.743,12.455,42.129,12.258,41.558z
		 M10.134,38.616c-0.196-0.569-0.815-0.871-1.381-0.678c-0.57,0.196-0.874,0.813-0.676,1.382c0.192,0.569,0.812,0.871,1.382,0.675
		C10.026,39.802,10.327,39.182,10.134,38.616z M7.457,37.384c-0.195-0.569-0.813-0.874-1.382-0.678
		c-0.568,0.193-0.871,0.813-0.677,1.382c0.198,0.568,0.813,0.874,1.382,0.674C7.348,38.569,7.652,37.952,7.457,37.384z
		 M13.365,38.613c-0.195-0.566-0.813-0.868-1.381-0.675c-0.566,0.196-0.871,0.811-0.675,1.38c0.195,0.571,0.813,0.873,1.38,0.677
		C13.258,39.802,13.56,39.182,13.365,38.613z M11.459,35.862c-0.195-0.568-0.813-0.87-1.38-0.675
		c-0.567,0.194-0.871,0.813-0.676,1.382c0.195,0.566,0.813,0.868,1.381,0.675C11.352,37.049,11.656,36.431,11.459,35.862z
		 M15.09,34.401l5.573-9.915c-2.649-1.135-5.785-0.114-7.231,2.457C11.987,29.518,12.742,32.726,15.09,34.401z M21.741,25.096
		l-5.572,9.909c2.651,1.137,5.787,0.114,7.233-2.455C24.848,29.979,24.091,26.77,21.741,25.096z"/>
</g>
</svg>
