<?xml version="1.0" encoding="utf-8"?>
<!-- Generator: Adobe Illustrator 16.0.4, SVG Export Plug-In . SVG Version: 6.00 Build 0)  -->
<!DOCTYPE svg PUBLIC "-//W3C//DTD SVG 1.1//EN" "http://www.w3.org/Graphics/SVG/1.1/DTD/svg11.dtd">
<svg version="1.1" id="Layer_4" xmlns="http://www.w3.org/2000/svg" xmlns:xlink="http://www.w3.org/1999/xlink" x="0px" y="0px"
	 width="25px" height="35px" viewBox="0 0 25 35" enable-background="new 0 0 25 35" xml:space="preserve">
<g>
	<path fill="#858585" d="M12.473,5.44c-0.309,0-0.604-0.062-0.872-0.171l0.178,9.785l0.011,0.558l0.043,2.395l0.003,0.191
		l0.006,0.339l0.036,2.071l0.012,0.555l0.001,0.045c0.002,0.144,0.009,0.283,0.02,0.417c0,0.006-0.002,0.014-0.002,0.019
		c-0.001,0.079,0.007,0.16,0.026,0.225c0.09,0.77,0.302,1.328,0.54,1.328c0.236,0,0.449-0.559,0.539-1.328
		c0.018-0.063,0.027-0.146,0.025-0.225c0-0.005,0-0.013-0.002-0.019c0.011-0.134,0.018-0.274,0.02-0.417l0.002-0.045l0.011-0.555
		l0.037-2.071l0.005-0.339l0.006-0.191l0.042-2.395l0.012-0.558l0.176-9.785C13.077,5.378,12.782,5.44,12.473,5.44z"/>
	<path fill="#858585" d="M9.751,10.049c0.027-0.036,0.049-0.104,0.051-0.151l0.02-1.645c0-0.048,0.005-0.125,0.01-0.171
		c0,0,0.001-0.016,0.084-0.017c0.083-0.004,0.093,0.108,0.093,0.108c0.004,0.047,0.008,0.125,0.009,0.172l0.067,1.554
		c0.003,0.048,0.033,0.11,0.064,0.137c0,0,0.721,0.612,0.926,0.625c0.245,0.014,0.047-4.416,0.047-4.416
		c-0.003-0.046-0.032-0.065-0.068-0.04c0,0-1.924,1.35-3.77,0.993C5.438,6.842,4.949,5.733,4.954,5.132
		c0.004-0.568,0.204-1.091-0.158-1.099C4.438,4.027,3.915,4.85,2.455,6.016C1.098,7.102,0.117,7.67,0.226,7.876
		c0.299,0.571,2.107,0.389,2.107,0.389c0.041-0.003,0.102-0.03,0.134-0.06l1.581-1.391c0.033-0.029,0.087-0.074,0.12-0.102
		c0,0,0.127-0.105,0.18-0.031C4.398,6.757,4.33,6.837,4.33,6.837C4.301,6.87,4.251,6.923,4.219,6.954L2.702,8.425
		c-0.031,0.03-0.061,0.094-0.064,0.142c0,0-0.077,1.065,0.178,1.185c0.242,0.113,1.098-0.212,1.098-0.212
		c0.04-0.014,0.094-0.055,0.122-0.09l1.167-1.51c0.028-0.035,0.075-0.09,0.107-0.12c0,0,0.074-0.074,0.137-0.012
		c0.064,0.062,0.013,0.15,0.013,0.15C5.437,7.997,5.398,8.059,5.372,8.095L4.36,9.533c-0.026,0.038-0.039,0.104-0.027,0.15
		c0,0,0.215,0.928,0.513,0.972c0.346,0.052,1.071-0.733,1.071-0.733C5.946,9.891,5.986,9.83,6.004,9.785l0.635-1.446
		c0.02-0.042,0.052-0.111,0.074-0.151c0,0,0.053-0.102,0.129-0.06C6.917,8.169,6.883,8.27,6.883,8.27
		c-0.015,0.044-0.04,0.118-0.057,0.161L6.303,9.858C6.286,9.9,6.29,9.971,6.312,10.011c0,0,0.332,0.659,0.654,0.659
		C7.318,10.669,7.89,9.838,7.89,9.838C7.917,9.8,7.944,9.731,7.953,9.686l0.228-1.255C8.19,8.383,8.208,8.309,8.221,8.262
		c0,0,0.028-0.091,0.11-0.077c0.081,0.016,0.081,0.114,0.081,0.114c0,0.047-0.003,0.125-0.009,0.172L8.245,9.733
		C8.239,9.779,8.252,9.85,8.274,9.892c0,0,0.42,0.778,0.704,0.794C9.259,10.701,9.751,10.049,9.751,10.049z"/>
	<path fill="#858585" d="M22.533,6.016c-1.467-1.166-1.991-1.989-2.351-1.982c-0.366,0.007-0.161,0.531-0.161,1.099
		c0.003,0.519-0.485,1.709-2.342,2.066c-1.855,0.357-3.788-0.993-3.788-0.993c-0.034-0.025-0.065-0.005-0.067,0.04
		c0,0-0.199,4.43,0.047,4.416c0.206-0.012,0.93-0.625,0.93-0.625c0.033-0.027,0.064-0.089,0.066-0.137l0.067-1.554
		c0.002-0.047,0.008-0.125,0.011-0.172c0,0,0.009-0.112,0.093-0.108c0.084,0.001,0.086,0.017,0.086,0.017
		c0.005,0.047,0.008,0.123,0.008,0.171l0.022,1.645c0.001,0.048,0.023,0.115,0.051,0.151c0,0,0.492,0.652,0.777,0.636
		c0.283-0.016,0.707-0.794,0.707-0.794c0.021-0.041,0.034-0.112,0.028-0.159l-0.157-1.263c-0.005-0.046-0.009-0.124-0.009-0.171
		c0,0,0-0.098,0.08-0.113c0.085-0.015,0.11,0.077,0.11,0.077c0.015,0.046,0.032,0.119,0.04,0.168l0.23,1.255
		c0.009,0.046,0.036,0.115,0.061,0.152c0,0,0.576,0.831,0.933,0.832c0.321,0,0.659-0.659,0.659-0.659
		c0.02-0.041,0.022-0.111,0.006-0.154l-0.53-1.426c-0.019-0.044-0.043-0.117-0.057-0.161c0,0-0.034-0.101,0.041-0.141
		c0.075-0.042,0.129,0.06,0.129,0.06c0.022,0.04,0.055,0.109,0.076,0.151l0.635,1.447c0.019,0.043,0.059,0.105,0.088,0.137
		c0,0,0.729,0.783,1.077,0.733c0.3-0.044,0.514-0.972,0.514-0.972c0.014-0.046-0.001-0.114-0.029-0.15l-1.012-1.439
		c-0.026-0.036-0.067-0.098-0.091-0.14c0,0-0.05-0.087,0.015-0.148c0.062-0.062,0.137,0.012,0.137,0.012
		c0.03,0.03,0.08,0.085,0.107,0.12l1.173,1.51c0.031,0.035,0.085,0.076,0.125,0.09c0,0,0.86,0.325,1.099,0.212
		c0.262-0.121,0.182-1.185,0.182-1.185c-0.005-0.048-0.031-0.111-0.064-0.142l-1.523-1.471c-0.03-0.031-0.081-0.083-0.111-0.116
		c0,0-0.069-0.081-0.018-0.155c0.053-0.074,0.181,0.031,0.181,0.031c0.031,0.028,0.086,0.073,0.12,0.102l1.589,1.391
		c0.032,0.029,0.093,0.056,0.136,0.06c0,0,1.815,0.182,2.115-0.389C24.882,7.67,23.896,7.102,22.533,6.016z"/>
	<path fill="#858585" d="M10.871,19.652c0.011-0.331,0.34-0.572,0.796-0.787l-0.011-0.592c-0.712,0.307-1.312,0.684-1.332,1.361
		c-0.028,0.895,0.746,1.21,1.38,1.458l-0.009-0.559C11.127,20.298,10.856,20.103,10.871,19.652z"/>
	<path fill="#858585" d="M15.292,12.189c-0.114-0.049-0.458-0.175-1.033-0.137c-0.718,0.045-0.738,0.443-0.672,0.591
		c0.065,0.145,0.343,0.26,0.888,0.25c0.316-0.006,0.62-0.088,0.819-0.158c0.318,0,0.562,0.126,0.693,0.394
		c0.14,0.285,0.006,0.639-0.062,0.819c-0.243,0.649-1.374,0.869-2.574,1.076l-0.01,0.556l-0.005,0.293
		c0.798,0.156,1.487,0.365,1.481,0.683c-0.011,0.51-0.753,0.841-1.516,1.113l-0.012,0.578c0.996-0.351,2.13-0.816,2.147-1.677
		c0.013-0.559-0.646-0.882-1.487-1.103c1.228-0.25,2.272-0.613,2.558-1.496c0.104-0.33,0.132-0.839-0.044-1.16
		C16.251,12.423,15.844,12.218,15.292,12.189z M14.12,12.526c-0.071,0-0.131-0.058-0.131-0.13s0.06-0.13,0.131-0.13
		c0.073,0,0.131,0.058,0.131,0.13C14.251,12.466,14.193,12.526,14.12,12.526z"/>
	<path fill="#858585" d="M13.29,18.273l-0.012,0.592c0.455,0.215,0.783,0.456,0.795,0.787c0.015,0.45-0.258,0.646-0.825,0.882
		l-0.009,0.559c0.633-0.248,1.409-0.563,1.382-1.458C14.6,18.957,14,18.58,13.29,18.273z"/>
	<path fill="#858585" d="M11.645,17.667c-0.764-0.272-1.505-0.603-1.516-1.112c-0.006-0.319,0.684-0.527,1.483-0.683l-0.006-0.293
		l-0.009-0.556c-1.199-0.207-2.332-0.428-2.576-1.077c-0.067-0.179-0.202-0.534-0.062-0.818c0.132-0.268,0.376-0.394,0.692-0.394
		c0.201,0.068,0.504,0.151,0.821,0.158c0.546,0.01,0.821-0.105,0.888-0.25c0.068-0.148,0.044-0.545-0.671-0.591
		c-0.578-0.039-0.923,0.087-1.037,0.136c-0.551,0.029-0.959,0.234-1.17,0.622c-0.173,0.318-0.148,0.829-0.042,1.159
		c0.286,0.883,1.327,1.246,2.556,1.497c-0.842,0.22-1.5,0.543-1.489,1.103c0.02,0.86,1.152,1.327,2.146,1.676L11.645,17.667z
		 M10.826,12.264c0.072,0,0.132,0.058,0.132,0.13c0,0.072-0.06,0.13-0.132,0.13s-0.132-0.058-0.132-0.13
		C10.694,12.322,10.754,12.264,10.826,12.264z"/>
	<path fill="#858585" d="M11.807,4.765c0.017,0.005,0.031,0.01,0.047,0.017c0.047,0.016,0.094,0.033,0.144,0.047
		c0.021,0.005,0.041,0.011,0.063,0.017c0.047,0.011,0.095,0.019,0.145,0.028c0.021,0.002,0.04,0.006,0.061,0.008
		c0.069,0.008,0.139,0.014,0.208,0.014s0.14-0.005,0.208-0.014c0.021-0.001,0.041-0.006,0.061-0.008
		c0.047-0.009,0.096-0.017,0.144-0.028c0.021-0.005,0.042-0.011,0.062-0.017c0.05-0.014,0.098-0.029,0.144-0.047
		c0.017-0.007,0.031-0.012,0.045-0.017c0.648-0.264,1.108-0.901,1.108-1.645c0-0.978-0.795-1.773-1.774-1.773
		c-0.978,0-1.773,0.796-1.773,1.773C10.7,3.863,11.159,4.5,11.807,4.765z"/>
</g>
<g>
	
		<linearGradient id="SVGID_1_" gradientUnits="userSpaceOnUse" x1="305.9795" y1="-384.6396" x2="305.9795" y2="-370.1848" gradientTransform="matrix(1 0 0 -1 -293.5 -343.5)">
		<stop  offset="0.4638" style="stop-color:#FFFFFF;stop-opacity:0"/>
		<stop  offset="1" style="stop-color:#A1A1A1"/>
	</linearGradient>
	<path fill="url(#SVGID_1_)" d="M12.478,38.817c-0.258,0-0.506,0.053-0.73,0.146l0.148-8.203l0.01-0.464l0.036-2.011l0.002-0.16
		l0.005-0.281l0.031-1.735l0.009-0.468l0.001-0.032c0.002-0.121,0.008-0.239,0.017-0.354c0-0.004-0.001-0.01-0.001-0.015
		c-0.001-0.067,0.006-0.135,0.021-0.189c0.075-0.646,0.254-1.112,0.452-1.112c0.198,0,0.376,0.467,0.452,1.112
		c0.015,0.055,0.023,0.122,0.021,0.189c0,0.005,0,0.011-0.001,0.015c0.009,0.114,0.015,0.232,0.017,0.354l0.001,0.032l0.009,0.468
		l0.03,1.735l0.005,0.281l0.005,0.16l0.035,2.011l0.009,0.464l0.149,8.203C12.984,38.87,12.737,38.817,12.478,38.817z"/>
	
		<linearGradient id="SVGID_2_" gradientUnits="userSpaceOnUse" x1="300.3076" y1="-384.6367" x2="300.3076" y2="-370.1878" gradientTransform="matrix(1 0 0 -1 -293.5 -343.5)">
		<stop  offset="0.4638" style="stop-color:#FFFFFF;stop-opacity:0"/>
		<stop  offset="1" style="stop-color:#A1A1A1"/>
	</linearGradient>
	<path fill="url(#SVGID_2_)" d="M10.196,34.957c0.023,0.029,0.042,0.085,0.042,0.124l0.017,1.378c0,0.042,0.004,0.105,0.008,0.146
		c0,0,0.001,0.016,0.071,0.016c0.069,0.004,0.078-0.091,0.078-0.091c0.004-0.041,0.007-0.104,0.008-0.143l0.057-1.305
		c0.002-0.038,0.027-0.09,0.054-0.117c0,0,0.604-0.509,0.776-0.52c0.205-0.016,0.039,3.7,0.039,3.7
		c-0.002,0.04-0.026,0.054-0.057,0.032c0,0-1.613-1.133-3.16-0.831c-1.547,0.299-1.958,1.229-1.953,1.73
		c0.002,0.476,0.17,0.914-0.133,0.921c-0.3,0.008-0.739-0.682-1.962-1.659c-1.137-0.913-1.959-1.389-1.869-1.562
		c0.25-0.479,1.766-0.327,1.766-0.327c0.034,0.003,0.085,0.025,0.112,0.053l1.325,1.163c0.028,0.024,0.073,0.062,0.101,0.084
		c0,0,0.106,0.091,0.15,0.03c0.043-0.062-0.015-0.132-0.015-0.132c-0.024-0.027-0.066-0.072-0.093-0.098l-1.27-1.234
		c-0.025-0.022-0.05-0.077-0.053-0.117c0,0-0.065-0.892,0.149-0.993c0.202-0.097,0.92,0.177,0.92,0.177
		c0.034,0.014,0.079,0.047,0.102,0.078l0.979,1.264c0.023,0.03,0.063,0.075,0.09,0.103c0,0,0.062,0.062,0.115,0.008
		c0.053-0.051,0.01-0.123,0.01-0.123c-0.02-0.033-0.052-0.088-0.074-0.118l-0.847-1.206c-0.022-0.032-0.032-0.086-0.023-0.128
		c0,0,0.18-0.775,0.43-0.811c0.29-0.045,0.898,0.612,0.898,0.612c0.025,0.026,0.058,0.077,0.074,0.114l0.53,1.213
		c0.017,0.036,0.043,0.093,0.062,0.126c0,0,0.045,0.083,0.108,0.05c0.062-0.031,0.034-0.117,0.034-0.117
		c-0.012-0.036-0.032-0.099-0.047-0.135l-0.438-1.197c-0.014-0.035-0.011-0.094,0.007-0.125c0,0,0.278-0.556,0.547-0.556
		c0.295,0.003,0.776,0.701,0.776,0.701c0.022,0.03,0.045,0.09,0.052,0.124l0.192,1.053c0.007,0.04,0.021,0.102,0.034,0.138
		c0,0,0.023,0.08,0.092,0.067c0.068-0.012,0.068-0.097,0.068-0.097c0-0.036-0.003-0.102-0.008-0.141l-0.131-1.058
		c-0.005-0.041,0.006-0.1,0.025-0.134c0,0,0.351-0.651,0.589-0.664C9.784,34.41,10.196,34.957,10.196,34.957z"/>
	
		<linearGradient id="SVGID_3_" gradientUnits="userSpaceOnUse" x1="311.6738" y1="-384.6367" x2="311.6738" y2="-370.1868" gradientTransform="matrix(1 0 0 -1 -293.5 -343.5)">
		<stop  offset="0.4638" style="stop-color:#FFFFFF;stop-opacity:0"/>
		<stop  offset="1" style="stop-color:#A1A1A1"/>
	</linearGradient>
	<path fill="url(#SVGID_3_)" d="M20.91,38.339c-1.229,0.978-1.67,1.667-1.971,1.659c-0.307-0.007-0.135-0.445-0.135-0.921
		c0.003-0.436-0.407-1.432-1.963-1.73c-1.555-0.302-3.175,0.831-3.175,0.831c-0.028,0.021-0.056,0.008-0.058-0.032
		c0,0-0.166-3.713,0.04-3.7c0.173,0.011,0.779,0.52,0.779,0.52c0.028,0.026,0.054,0.077,0.056,0.117l0.057,1.305
		c0.002,0.038,0.007,0.102,0.009,0.143c0,0,0.007,0.095,0.078,0.091c0.069,0,0.071-0.016,0.071-0.016
		c0.005-0.04,0.007-0.104,0.007-0.146l0.019-1.378c0.001-0.039,0.021-0.095,0.043-0.124c0,0,0.413-0.547,0.652-0.533
		c0.236,0.011,0.591,0.664,0.591,0.664c0.019,0.034,0.03,0.093,0.025,0.134l-0.133,1.057c-0.004,0.041-0.007,0.104-0.007,0.143
		c0,0,0,0.085,0.066,0.097c0.072,0.013,0.094-0.067,0.094-0.067c0.012-0.036,0.026-0.098,0.032-0.138l0.194-1.053
		c0.007-0.036,0.029-0.095,0.05-0.126c0,0,0.484-0.696,0.781-0.699c0.271,0,0.553,0.553,0.553,0.553
		c0.017,0.032,0.02,0.091,0.006,0.128l-0.44,1.197c-0.017,0.035-0.036,0.099-0.047,0.134c0,0-0.028,0.085,0.033,0.118
		c0.065,0.033,0.109-0.05,0.109-0.05c0.019-0.034,0.046-0.091,0.062-0.127l0.533-1.213c0.015-0.036,0.049-0.087,0.073-0.113
		c0,0,0.612-0.658,0.903-0.614c0.251,0.037,0.431,0.812,0.431,0.812c0.011,0.042-0.003,0.096-0.025,0.128l-0.848,1.205
		c-0.022,0.029-0.058,0.084-0.075,0.119c0,0-0.043,0.071,0.012,0.122c0.052,0.055,0.114-0.008,0.114-0.008
		c0.026-0.026,0.066-0.071,0.089-0.102l0.985-1.266c0.024-0.029,0.069-0.065,0.104-0.077c0,0,0.722-0.272,0.921-0.176
		c0.22,0.102,0.153,0.992,0.153,0.992c-0.006,0.037-0.027,0.093-0.056,0.118l-1.276,1.232c-0.025,0.025-0.068,0.072-0.094,0.099
		c0,0-0.059,0.07-0.014,0.132c0.043,0.061,0.149-0.03,0.149-0.03c0.028-0.024,0.073-0.059,0.102-0.083l1.332-1.163
		c0.028-0.027,0.077-0.05,0.113-0.053c0,0,1.522-0.152,1.775,0.326C22.878,36.95,22.052,37.426,20.91,38.339z"/>
	
		<linearGradient id="SVGID_4_" gradientUnits="userSpaceOnUse" x1="304.7559" y1="-384.6299" x2="304.7559" y2="-370.1831" gradientTransform="matrix(1 0 0 -1 -293.5 -343.5)">
		<stop  offset="0.4638" style="stop-color:#FFFFFF;stop-opacity:0"/>
		<stop  offset="1" style="stop-color:#A1A1A1"/>
	</linearGradient>
	<path fill="url(#SVGID_4_)" d="M11.135,26.908c0.009,0.275,0.286,0.48,0.667,0.66l-0.009,0.493
		c-0.597-0.256-1.099-0.571-1.116-1.14c-0.023-0.749,0.625-1.015,1.158-1.223l-0.008,0.469
		C11.35,26.363,11.123,26.528,11.135,26.908z"/>
	
		<linearGradient id="SVGID_5_" gradientUnits="userSpaceOnUse" x1="308.043" y1="-384.6392" x2="308.043" y2="-370.1832" gradientTransform="matrix(1 0 0 -1 -293.5 -343.5)">
		<stop  offset="0.4638" style="stop-color:#FFFFFF;stop-opacity:0"/>
		<stop  offset="1" style="stop-color:#A1A1A1"/>
	</linearGradient>
	<path fill="url(#SVGID_5_)" d="M15.82,32.643c0.146-0.268,0.123-0.697,0.036-0.973c-0.239-0.74-1.113-1.042-2.144-1.252
		c0.705-0.187,1.258-0.456,1.247-0.925c-0.016-0.721-0.964-1.113-1.801-1.407l0.011,0.483c0.64,0.227,1.261,0.507,1.271,0.934
		c0.006,0.266-0.573,0.44-1.242,0.573l0.005,0.247l0.008,0.461c1.006,0.175,1.954,0.362,2.157,0.905
		c0.058,0.149,0.171,0.446,0.053,0.687c-0.111,0.222-0.315,0.327-0.58,0.327c-0.169-0.058-0.423-0.126-0.688-0.132
		c-0.459-0.011-0.688,0.09-0.745,0.21c-0.055,0.124-0.036,0.459,0.563,0.497c0.482,0.029,0.771-0.073,0.866-0.116
		C15.304,33.138,15.645,32.968,15.82,32.643z M13.968,32.991c0,0.061-0.049,0.107-0.109,0.107s-0.11-0.047-0.11-0.107
		c0-0.06,0.05-0.109,0.11-0.109S13.968,32.932,13.968,32.991z"/>
	
		<linearGradient id="SVGID_6_" gradientUnits="userSpaceOnUse" x1="307.1992" y1="-384.6299" x2="307.1992" y2="-370.1831" gradientTransform="matrix(1 0 0 -1 -293.5 -343.5)">
		<stop  offset="0.4638" style="stop-color:#FFFFFF;stop-opacity:0"/>
		<stop  offset="1" style="stop-color:#A1A1A1"/>
	</linearGradient>
	<path fill="url(#SVGID_6_)" d="M13.162,28.062l-0.01-0.493c0.383-0.18,0.657-0.385,0.666-0.66c0.013-0.38-0.215-0.545-0.691-0.74
		l-0.008-0.469c0.53,0.208,1.181,0.474,1.156,1.223C14.26,27.49,13.758,27.806,13.162,28.062z"/>
	
		<linearGradient id="SVGID_7_" gradientUnits="userSpaceOnUse" x1="303.9102" y1="-384.6387" x2="303.9102" y2="-370.1815" gradientTransform="matrix(1 0 0 -1 -293.5 -343.5)">
		<stop  offset="0.4638" style="stop-color:#FFFFFF;stop-opacity:0"/>
		<stop  offset="1" style="stop-color:#A1A1A1"/>
	</linearGradient>
	<path fill="url(#SVGID_7_)" d="M11.792,28.086c-0.834,0.294-1.784,0.687-1.799,1.407c-0.01,0.47,0.541,0.74,1.249,0.925
		c-1.032,0.211-1.905,0.513-2.143,1.252c-0.089,0.276-0.11,0.705,0.035,0.973c0.177,0.325,0.518,0.496,0.98,0.52
		c0.095,0.043,0.385,0.146,0.869,0.117c0.601-0.039,0.619-0.372,0.562-0.498c-0.057-0.119-0.286-0.219-0.745-0.208
		c-0.265,0.004-0.52,0.074-0.688,0.131c-0.266,0-0.469-0.104-0.58-0.327c-0.118-0.24-0.005-0.537,0.051-0.688
		c0.205-0.543,1.154-0.729,2.159-0.904l0.008-0.462l0.006-0.247c-0.671-0.131-1.249-0.307-1.244-0.573
		c0.009-0.426,0.631-0.705,1.27-0.934L11.792,28.086z M10.986,32.991c0-0.06,0.051-0.109,0.111-0.109s0.111,0.05,0.111,0.109
		c0,0.061-0.051,0.107-0.111,0.107S10.986,33.052,10.986,32.991z"/>
	
		<linearGradient id="SVGID_8_" gradientUnits="userSpaceOnUse" x1="305.9795" y1="-384.6372" x2="305.9795" y2="-370.1764" gradientTransform="matrix(1 0 0 -1 -293.5 -343.5)">
		<stop  offset="0.4638" style="stop-color:#FFFFFF;stop-opacity:0"/>
		<stop  offset="1" style="stop-color:#A1A1A1"/>
	</linearGradient>
	<path fill="url(#SVGID_8_)" d="M11.919,39.384c0.015-0.003,0.026-0.007,0.04-0.013c0.039-0.014,0.079-0.028,0.121-0.039
		c0.018-0.006,0.034-0.008,0.053-0.014c0.039-0.01,0.079-0.02,0.121-0.024c0.018-0.002,0.033-0.005,0.051-0.008
		c0.058-0.006,0.116-0.013,0.174-0.013c0.059,0,0.118,0.007,0.174,0.013c0.018,0.003,0.034,0.006,0.051,0.008
		c0.04,0.005,0.081,0.015,0.121,0.024c0.017,0.006,0.035,0.008,0.053,0.014c0.042,0.011,0.082,0.025,0.121,0.039
		c0.014,0.006,0.026,0.01,0.037,0.013c0.544,0.223,0.931,0.757,0.931,1.378c0,0.818-0.668,1.488-1.488,1.488
		c-0.82,0-1.486-0.67-1.486-1.488C10.992,40.141,11.376,39.606,11.919,39.384z"/>
</g>
</svg>
