<?xml version="1.0" encoding="utf-8"?>
<!-- Generator: Adobe Illustrator 16.0.4, SVG Export Plug-In . SVG Version: 6.00 Build 0)  -->
<!DOCTYPE svg PUBLIC "-//W3C//DTD SVG 1.1//EN" "http://www.w3.org/Graphics/SVG/1.1/DTD/svg11.dtd">
<svg version="1.1" xmlns="http://www.w3.org/2000/svg" xmlns:xlink="http://www.w3.org/1999/xlink" x="0px" y="0px" width="90px"
	 height="90px" viewBox="0 0 90 90" enable-background="new 0 0 90 90" xml:space="preserve">
<g id="Layer_8">
	<circle fill="#FFFFFF" stroke="#CCCCCC" stroke-width="0.4074" stroke-miterlimit="10" cx="45" cy="45" r="36.667"/>
</g>
<g id="Layer_3">
	<path fill="#004B91" d="M77.431,62.011c0.817,0,1.643,0,2.465,0c-0.112,1.649-0.544,2.544-0.413,3.967c-0.55,0-1.096,0-1.643,0
		c-0.502,0.388,0.111,1.086-0.272,1.642c-0.256,0.386-1.021,0.261-1.641,0.272c-0.39,0.649-0.007,2.319-0.142,3.561
		c-0.514,1.265-1.146,2.416-1.642,3.692c-2.021-0.188-3.479,0.895-5.468,0.274c0.503-1.268,0.924-2.629,2.32-3.011
		c0.343-1.897-0.442-2.657-0.956-3.695c-5.375-0.197-9.084,0.476-14.373,0.275c-0.438-0.116-0.286,0.354-0.543,0.409
		c-11.319,0.127-21.9,1.003-33.521,0.819c-0.006-9.261,0-19.698,0-29.417c0.136-0.603-0.473-0.449-0.413-0.957
		c0-1.872,0-3.744,0-5.615c-2.729-0.229-3.03-2.898-4.652-4.24c-0.167-1.241,0.495-2.261,1.641-2.875
		c0.023-1.251,0.064-2.45-1.235-2.871c-0.589-0.135-0.755,0.153-1.092,0.272c-2.84-1.181-3.119-4.157-5.337-6.023
		c0.277-1.369-0.426-1.759-0.409-2.869c12.36,0.224,24.021-0.242,35.577-0.827c0.631-0.803,3.263,0.131,4.516-0.407
		c0.579,1.199,1.5,2.061,2.461,2.876c-0.349,0.472-0.496,1.15-0.955,1.5c0.53,1.122,0.621,2.315,0.813,3.968
		c0.55,1.151,1.275,2.108,1.512,3.561c0.55,0.502,1.536,0.56,1.507,1.642c2.386,1.37,3.695,3.512,5.745,4.93
		c-0.094,1.511,0.005,2.823,0.55,3.696c1.37,0,2.733,0,4.103,0c0.533,0.325,0.442,1.287,1.501,1.087
		c-0.628,0.377-0.354,1.659-0.401,2.603c0.117,0.539-0.723,0.101-0.827,0.414c0,0.496,0,1.004,0,1.499
		c-0.898,0.661-1.176,1.926-1.092,3.562c1.353,2.066,3.891,2.943,5.066,5.2c1.522-0.3,1.846,0.607,3.274,0.408
		c0.434,1.811,1.253,2.053,1.514,3.834c0.094,0.409,0.786,0.217,0.815,0.683C75.048,58.113,76.156,60.562,77.431,62.011z"/>
	<path fill="none" stroke="#D0D2D3" stroke-width="1.6911" stroke-miterlimit="10" d="M76.368,38.149
		c0-5.948-4.826-10.774-10.774-10.774c-5.947,0-10.773,4.826-10.773,10.774c0,5.953,4.826,10.773,10.773,10.773
		C71.542,48.922,76.368,44.102,76.368,38.149z"/>
	<path fill="#D0D2D3" d="M68.757,38.149c0-1.742-1.414-3.164-3.163-3.164c-1.746,0-3.165,1.422-3.165,3.164
		c0,1.75,1.419,3.164,3.165,3.164C67.343,41.313,68.757,39.899,68.757,38.149z"/>
</g>
</svg>
