<?xml version="1.0" encoding="utf-8"?>
<!-- Generator: Adobe Illustrator 16.0.4, SVG Export Plug-In . SVG Version: 6.00 Build 0)  -->
<!DOCTYPE svg PUBLIC "-//W3C//DTD SVG 1.1//EN" "http://www.w3.org/Graphics/SVG/1.1/DTD/svg11.dtd">
<svg version="1.1" xmlns="http://www.w3.org/2000/svg" xmlns:xlink="http://www.w3.org/1999/xlink" x="0px" y="0px" width="90px"
	 height="90px" viewBox="0 0 90 90" enable-background="new 0 0 90 90" xml:space="preserve">
<g id="Layer_8">
	<circle fill="#FFFFFF" stroke="#CCCCCC" stroke-width="0.4074" stroke-miterlimit="10" cx="45" cy="45" r="36.667"/>
</g>
<g id="Layer_6">
	<path fill="#004B91" d="M72.973,50.566c0.885,1.001,2.696,1.423,4.315,1.229c-1.014,1.668-1.775,3.567-3.08,4.935
		c-0.243,0.912,0.541,0.794,0.463,1.539c-0.05,0.524-0.687,0.449-0.771,0.928c-0.193,4.657-2.505,8.083-1.392,13.101
		c-3.266,0.47-5.912-2.04-8.009,0c-0.465,2.752,1.317,3.16,0.771,6.319c-0.415,0-0.82,0-1.235,0c0-0.777,0-1.548,0-2.318
		c-0.064-0.292-0.598-0.113-0.464-0.613c-2.66-0.35-4.015,0.606-6.469,0.465c-0.579-0.164-0.244,0.577-0.771,0.463
		c-2.362-0.101-6.463-0.613-8.327,0.308c-6.361,0.155-12.131,0.912-18.645,0.919c-1.918-1.112-2.774-3.289-3.396-5.699
		c-0.206-0.506-0.727-0.707-1.226-0.928c0.849-3.376,0.035-6.777-0.927-9.088c0.655-0.826,0.435-2.538,0.463-4.009
		c0.55-1.041,1.492-1.695,1.234-3.545c-0.213-0.501-0.735-0.706-1.234-0.925c0-0.615,0-1.233,0-1.851
		c-1.805-1.462-1.954-3.763-3.545-5.547c0.457-1.452-0.499-1.693-0.307-3.544c-0.97-1.648-1.199-4.045-2.161-5.704
		c0-0.667,0-1.333,0-2.003c-0.356-0.351-0.236-0.632-0.463-1.385c-0.158-0.545-0.692-1.786-0.771-2.468
		c-0.029-0.271-0.457-0.595-0.457-0.616c-0.085-0.475,0.1-1.031,0-1.542c-0.057-0.265-0.371-0.328-0.463-0.613
		c-0.171-0.511,0.285-1.473-0.464-1.698c-0.264-2.924-1.077-4.358-2.154-6.473c0-0.564,0-1.13,0-1.695
		c0.021-0.335-0.549-0.066-0.777-0.152c0-1.131,0-2.262,0-3.392c1.169-0.171,3.095,0.425,3.545-0.459
		c2.268,0.313,3.159-0.75,5.393-0.464c0.499,0.135,0.32-0.4,0.621-0.463c1.982-0.278,3.751,0.385,5.392,0
		c0.243-0.054,0.506-0.414,0.771-0.461c1.891-0.349,4.029,0.154,6.013-0.309c0.57-0.133,1.341-0.771,2.618-0.461
		c0.492,0.135,0.32-0.4,0.62-0.463c0.92,0,1.848,0,2.769,0c-0.136-0.717,1.305-0.564,1.391-0.153
		c0.064,0.833-1.042,0.499-1.234,1.077c-0.143,0.734-0.671,1.081-1.077,1.54c-0.099,1.042,0.335,1.102,0.463,2.158
		c1.292,0.556,2.946,0.75,3.232,2.312c0.928,0.05,2.497-0.063,2.932,0c1.248,0.841,1.618,1.74,2.005,3.546
		c2.111,2.26,3.403,4.618,6.777,5.395c0.725,2.348,3.836,3.532,5.706,5.239c-0.142,2.094,1.36,2.536,2.153,3.699
		c0.343,0.09,0.7-0.121,1.078,0c0.199,0.065,0.705,0.781,1.083,0.924c0.929,0.364,1.213,0.553,1.54,1.387
		c0.225,0.578,1.604,2.451,1.849,3.082c0.057,0.154-0.222,0.499-0.156,0.77c0.087,0.364,0.827,0.907,0.464,1.852
		C72.102,44.923,72.752,47.423,72.973,50.566z"/>
</g>
</svg>
