<?xml version="1.0" encoding="utf-8"?>
<!-- Generator: Adobe Illustrator 16.0.4, SVG Export Plug-In . SVG Version: 6.00 Build 0)  -->
<!DOCTYPE svg PUBLIC "-//W3C//DTD SVG 1.1//EN" "http://www.w3.org/Graphics/SVG/1.1/DTD/svg11.dtd">
<svg version="1.1" xmlns="http://www.w3.org/2000/svg" xmlns:xlink="http://www.w3.org/1999/xlink" x="0px" y="0px" width="90px"
	 height="90px" viewBox="0 0 90 90" enable-background="new 0 0 90 90" xml:space="preserve">
<g id="Layer_8">
	<circle fill="#FFFFFF" stroke="#CCCCCC" stroke-width="0.4074" stroke-miterlimit="10" cx="45" cy="45" r="36.667"/>
</g>
<g id="Layer_5">
	<path fill="#004B91" d="M80.795,65.909c0.527-1.475,2.031-2.423,3.623-1.391c-3.55,3.551-7.507,6.67-12.499,8.754
		c-1.92-0.044-2.688,1.039-4.738,0.842c-0.587,0.337-0.803,1.061-1.248,1.538c-0.275-0.836,0.409-1.655,1.114-1.953
		c-0.021-1.935,0.708-3.084,0.407-5.283c-1.788-0.296-2.804-1.369-5.003-1.255c-1.424-0.473-2.493-1.303-4.162-1.526
		c-0.189-0.566-0.764-0.708-0.979-1.251c-0.735,0-1.479,0-2.222,0c-0.754-1.497-2.051-2.373-2.361-4.594c-0.604,0-1.203,0-1.801,0
		c-0.194-0.168-0.194-0.646,0-0.836c-0.051-0.459-0.915-0.111-0.841-0.684c-0.551,0-1.106,0-1.681,0
		c-1.368,0.707-3.632,0.634-5.135,1.52c-2.134-0.045-3.309,0.869-5.555,0.695c-0.44-0.117-0.297,0.359-0.563,0.421
		c-2.325,0.135-4.773,1.117-6.392,1.117c-0.446-0.118-0.289,0.358-0.552,0.409c-1.392,0.381-2.723,0.234-4.044,0.42
		c-0.275,0.046-0.41,0.347-0.685,0.421c-0.3,0.096-0.659-0.074-0.97,0c-1.27,0.287-2.616,1.01-4.173,0.695
		c-0.819,0.718-2.499,0.562-3.337,1.246c-1.92-0.472-3.384,0.492-4.582,0.694c-0.695,0.124-1.417-0.095-2.086,0
		c-0.245,0.039-0.482,0.358-0.699,0.42c-0.791,0.23-1.702-0.144-2.493,0c-0.432,0.085-0.816,0.735-1.399,0.422
		c-0.3-0.623-0.064-1.788-0.138-2.642c1.633-1.846,2.999-3.949,5.133-5.29c-0.093-1.368,0.9-2.54,2.232-2.916
		c-0.143-1.75-0.274-3.522-2.232-3.478c0-1.515-1.019-2.024-0.813-3.74c2.209-0.484,3.275-2.088,6.107-1.96
		c0.44,0.062,0.371-0.37,0.694-0.417c2.052,0.069,3.275-0.721,5.566-0.41c0.468,0.264,0.973,0.505,1.379,0.827
		c2.784,0.062,3.29-2.17,6.684-1.522c1.909-0.407,2.002-2.613,3.754-3.189c0.168-0.72,0.633-1.129,1.102-1.536
		c0.769,0.072,1.383-0.014,1.669-0.418c0.362-2.008-0.707-2.404-0.695-4.308c0.479-0.362,0.469-1.204,0.421-2.089
		c-1.187-0.059-1.705-0.805-2.786-0.974c0-0.372,0-0.742,0-1.116c1.131-1.461,2.508-2.687,3.898-3.884
		c0.519-1.606,1.287-2.975,2.364-4.032c1.035-2.543,3.074-4.065,4.729-5.974c0.695-0.049,1.142-0.347,1.523-0.696
		c0.733-0.046,1.785,0.206,1.954-0.433c0.731-0.036,1.778,0.216,1.942-0.407c3.734,0.216,6.095-1.678,9.023-1.798
		c-0.348,2.35,1.07,2.925,0.841,5.134c0.479,0.227,0.527,0.865,1.115,0.969c-0.266,1.707,0.707,2.172,0.418,3.903
		c0.121,0.44-0.467,0.188-0.418,0.55c-0.014,2.857,1.245,3.935,1.944,5.833c-0.352,0.55-0.539,1.22-0.422,2.229
		c0.576,0.216,0.986,0.696,2.229,0.553c0.399,0.959,0.385,2.303,0.975,3.071c0,0.314-0.252,0.407-0.133,0.827
		c0.744,0.996,0.506,3.012,1.247,4.033c0.349,3.935-0.481,8.384,0,11.815c0.023,0.169,0.361,0.36,0.407,0.696
		c0.049,0.24-0.19,0.433-0.131,0.549c0.085,0.197,0.516,0.274,0.552,0.409c0.109,0.479-0.529,1.358,0.276,1.538
		c0.131,0.938-0.338,2.466,0.42,2.782c0.048,2.231,0.685,3.858,0.42,6.394c-0.135,0.477-0.625,0.578-0.84,0.971
		c-0.122,1.2,0.815,1.322,0.84,2.366c-0.387,0.487-0.647,1.723-0.277,2.508c2.031-0.242,2.4-2.137,3.614-3.192
		C75.648,69.543,78.085,66.605,80.795,65.909z"/>
</g>
</svg>
