<?xml version="1.0" encoding="utf-8"?>
<!-- Generator: Adobe Illustrator 16.0.4, SVG Export Plug-In . SVG Version: 6.00 Build 0)  -->
<!DOCTYPE svg PUBLIC "-//W3C//DTD SVG 1.1//EN" "http://www.w3.org/Graphics/SVG/1.1/DTD/svg11.dtd">
<svg version="1.1" xmlns="http://www.w3.org/2000/svg" xmlns:xlink="http://www.w3.org/1999/xlink" x="0px" y="0px" width="90px"
	 height="90px" viewBox="0 0 90 90" enable-background="new 0 0 90 90" xml:space="preserve">
<g id="Layer_8">
	<circle fill="#FFFFFF" stroke="#CCCCCC" stroke-width="0.4074" stroke-miterlimit="10" cx="45" cy="45" r="36.667"/>
</g>
<g id="Layer_2">
	<path fill="#004B91" d="M78.697,36.906c0.443,7.929,0.42,17.404,0.376,26.251c-1.135,0-2.27,0-3.409,0
		c-0.79-0.198-0.656,0.511-1.388,0.369c-12.735,0.283-24.304-0.587-36.984-0.369c-0.676,0.218-0.441-0.491-1.009-0.381
		c-8.795,0.294-15.404-0.903-24.232-0.633c-0.67,0.208-0.397-0.534-1.013-0.381c-1.345,0-2.691,0-4.042,0
		c-0.114-1.928,0.19-5.186-0.125-7.32c0.397-0.402,0.343-1.254,0.763-1.635c-0.207-5.6,0.24-10.532,0.375-15.783
		c0.43-0.686,0.142-1.339,0.757-1.765c-0.293-3.028-0.044-6.602-0.125-9.849c-0.006-0.206,0.093-0.314,0.25-0.381
		c7.478,0.154,14.76,0.556,21.961,0.634c0.671-0.196,0.398,0.544,1.014,0.381c5.387,0,10.768,0,16.155,0
		c0.67-0.208,0.393,0.533,1.015,0.382c7.567,0,15.146,0,22.72,0c0.607,0.848,1.694,0.631,2.148,1.763
		c0.629,0.087,1.593-0.163,2.015,0.131c0.202,1.461-1.12,1.395-1.386,2.397c-0.215,1.309,0.283,1.906,0.374,2.898
		c1.028,0.567,1.878,1.722,2.151,2.657C77.601,36.753,78.212,36.382,78.697,36.906z"/>
	<path fill="none" stroke="#D0D2D3" stroke-width="1.6911" stroke-miterlimit="10" d="M88.34,38.555
		c0-5.949-4.826-10.775-10.774-10.775c-5.947,0-10.773,4.826-10.773,10.775c0,5.952,4.826,10.772,10.773,10.772
		C83.514,49.327,88.34,44.507,88.34,38.555z"/>
	<path fill="#D0D2D3" d="M80.729,38.555c0-1.743-1.414-3.164-3.163-3.164c-1.746,0-3.165,1.421-3.165,3.164
		c0,1.75,1.419,3.164,3.165,3.164C79.314,41.719,80.729,40.305,80.729,38.555z"/>
</g>
</svg>
