<?xml version="1.0" encoding="utf-8"?>
<!-- Generator: Adobe Illustrator 16.0.4, SVG Export Plug-In . SVG Version: 6.00 Build 0)  -->
<!DOCTYPE svg PUBLIC "-//W3C//DTD SVG 1.1//EN" "http://www.w3.org/Graphics/SVG/1.1/DTD/svg11.dtd">
<svg version="1.1" xmlns="http://www.w3.org/2000/svg" xmlns:xlink="http://www.w3.org/1999/xlink" x="0px" y="0px" width="90px"
	 height="90px" viewBox="0 0 90 90" enable-background="new 0 0 90 90" xml:space="preserve">
<g id="Layer_8">
	<circle fill="#FFFFFF" stroke="#CCCCCC" stroke-width="0.4074" stroke-miterlimit="10" cx="45" cy="45" r="36.667"/>
</g>
<g id="Layer_4">
	<path fill="#004B91" d="M82.344,65.476c-0.214,0-0.423,0-0.631,0c-0.748,0.896-1.176,2.888-0.529,4.328
		c-1.039,1.537-1.898,2.61-4.644,2.43c-0.792,0.491-1.08,1.202-2.322,0.837c0.109-0.417-0.164-0.472-0.312-0.636
		c0-0.639,0-1.258,0-1.896c-0.606-1.255-1.252-2.475-2.323-3.276c0-0.174,0-0.345,0-0.529c-0.41-0.109-0.887-0.164-0.951-0.618
		c-0.947,0.064-2.222-0.182-2.844,0.201c-0.595-1.021-1.443-1.787-1.476-3.369c-0.716-1.721-2.614-2.25-3.275-4.017
		c0-0.772,0-1.537,0-2.32c-0.191-0.401-0.567-0.62-1.264-0.529c-0.66,0.256,0.013,1.849-0.633,2.111
		c-1.543-2.248-2.954-4.642-4.854-6.535c1.02-1.421,1.857-2.412,2.108-4.642c-0.641-0.71-2.423-0.638-3.374-0.419
		c-0.121,0.962,0.563,1.108,1.266,1.255c-0.292,0.345-0.282,0.991-0.419,1.473c-0.409-0.536-1.088-1.4-1.269-2.309
		c-0.17-0.84,0.322-1.813-0.315-2.421c0.879-1.731,0.592-4.618,0.628-7.177c-0.815-0.8-1.606-1.629-1.897-2.958
		c-1.316-0.227-2.514-0.574-3.691-0.947c-0.151-1.521-1.213-1.483-2.318-2.012c0.109-0.591-0.427-0.728-0.317-1.575
		c-0.41-0.191-0.871-0.639-1.371-0.427c-0.654-1.913-2.858-2.278-4.429-3.259c-1.566-0.129-2.699,0.182-3.696,0.619
		c0,0.355,0,0.71,0,1.056c-2.668,0.673-2.996,3.696-6.752,3.276c-0.35,0.109-0.441,0.475-1.051,0.311c0-0.345,0-0.69,0-1.055
		c-0.041-0.492-0.601-0.448-0.637-0.947c-2.837-0.82-4.297-3.023-7.698-3.259c-0.313-0.465-1.407-0.146-1.694-0.638
		c-0.769,0-1.548,0-2.317,0c-0.333-0.055-0.278,0.273-0.528,0.31c-1.439-0.064-2.626,0.117-3.482,0.636
		c-1.229,0.147-2.236,0.509-3.269,0.837c0-1.292,0-2.594,0-3.896c-0.902-0.765-2.532-0.82-2.004-2.75
		c1.326-0.109,3.173,0.291,4.011-0.311c1.385,0.202,3.078,0.154,3.903-0.529c3.672,0,6.736-0.854,10.124-0.837
		c0.336,0.092,0.213-0.273,0.427-0.328c1.402,0,2.81,0,4.215,0c0.297,1.093,0.911,1.257,1.266,2.333
		c1.662-0.174,4.021,0.362,5.171-0.328c1.794-0.164,4.306,0.382,5.591-0.311c2.84,0.264,5.534-0.499,8.754-0.218
		c0.308,0.037,0.362-0.201,0.526-0.311c1.562,0.256,2.477-0.673,3.902-0.216c0,0.5,0,0.991,0,1.483
		c0.229,0.629,1.152,0.537,2.007,0.53c0.311-0.775-0.099-2.286,0.209-3.061c-0.373-0.391-0.811-0.738-0.631-1.685
		c1.297-0.438,3.319,0.438,5.065,0.529c0.123,0.71,0.219,1.456,0.634,1.893c0,0.246,0,0.491,0,0.745
		c0.223,0.611,0.605,1.075,0.632,1.896c0.291,0.335,0.552,0.71,0.528,1.366c0.95,2.112,1.819,4.298,2.955,6.228
		c0.253,0.126,0.236,0.526,0.629,0.526c1.313,3.406,4.162,5.264,6.118,8.014c0.109,0.564-0.185,0.746-0.311,1.056
		c0.126,1.674,0.723,3.595,1.471,4.752c0.301,0.454,0.869,0.728,1.165,1.165c0.142,0.201,0.169,0.601,0.314,0.837
		c0.301,0.492,0.55,0.966,0.843,1.476c0.563,0.999,1.368,1.583,1.478,2.949c1.65,2.177,3.121,3.915,2.957,7.81
		c-0.053,0.328,0.28,0.273,0.317,0.53C81.916,61.199,82.107,63.355,82.344,65.476z"/>
</g>
</svg>
